{
.appVersion = "3215";
DisplayStrings = (
"/Hbar/Iogonek/Kcommaaccent/Eng/Tbar/Uogonek/iogonek/kcommaaccent/longs/tbar/uogonek/fi/fl \012/Gheupturn-cy/Dzhe-cy/Lje-cy/Nje-cy/E-cy/Tshe-cy/Dje-cy/gheupturn-cy \012/dzhe-cy/lje-cy/nje-cy/e-cy/tshe-cy/dje-cy/florin",
"/lessequal/greaterequal"
);
copyright = "Font Copyright Copyright 2019 Morisawa Inc. All rights reserved.";
customParameters = (
{
name = panose;
value = (
2,
11,
4,
0,
0,
0,
0,
0,
0,
0
);
},
{
name = unicodeRanges;
value = (
0,
1,
2,
4,
5,
6,
7,
9,
29,
30,
31,
35,
36,
37,
38,
39,
40,
42,
43,
45,
46,
47,
48,
49,
50,
54,
55,
57,
59,
61,
65,
68
);
},
{
name = fsType;
value = (
);
},
{
name = trademark;
value = "BIZ UDGothic is a trademark of Morisawa Inc.";
},
{
name = license;
value = "Google font";
},
{
name = vendorID;
value = MRSW;
},
{
name = Axes;
value = (
{
Name = Weight;
Tag = wght;
},
{
Name = Width;
Tag = wdth;
}
);
}
);
date = "2019-04-02 01:04:19 +0000";
designer = "TypeBank Co., Ltd.";
designerURL = "http://www.morisawa.co.jp/";
disablesAutomaticAlignment = 1;
familyName = "BIZ-UDPGothicExt";
fontMaster = (
{
ascender = 1802;
capHeight = 1567;
customParameters = (
{
name = typoAscender;
value = 1802;
},
{
name = typoDescender;
value = -246;
},
{
name = typoLineGap;
value = 0;
},
{
name = winAscent;
value = 1802;
},
{
name = winDescent;
value = 246;
},
{
name = hheaAscender;
value = 1802;
},
{
name = hheaDescender;
value = -246;
},
{
name = strikeoutPosition;
value = 727;
},
{
name = strikeoutSize;
value = 102;
},
{
name = underlinePosition;
value = -246;
},
{
name = underlineThickness;
value = 102;
},
{
name = hheaLineGap;
value = 0;
},
{
name = vheaVertAscender;
value = 1802;
},
{
name = vheaVertDescender;
value = 246;
},
{
name = vheaVertLineGap;
value = 0;
}
);
descender = -246;
id = "4E782664-D0D5-4FED-AFC2-B9212141A2ED";
weightValue = 400;
widthValue = 5;
xHeight = 1108;
}
);
glyphs = (
{
color = 3;
glyphname = Cdotaccent;
lastChange = "2022-04-07 18:21:41 +0000";
layers = (
{
background = {
paths = (
{
closed = 1;
nodes = (
"1534 139 LINE",
"1362 -10 OFFCURVE",
"1158 -84 OFFCURVE",
"921 -84 CURVE SMOOTH",
"438 -84 OFFCURVE",
"121 248 OFFCURVE",
"121 714 CURVE SMOOTH",
"121 1166 OFFCURVE",
"441 1520 OFFCURVE",
"909 1520 CURVE SMOOTH",
"1148 1520 OFFCURVE",
"1317 1448 OFFCURVE",
"1497 1289 CURVE",
"1381 1152 LINE",
"1249 1288 OFFCURVE",
"1112 1352 OFFCURVE",
"919 1352 CURVE SMOOTH",
"546 1352 OFFCURVE",
"326 1066 OFFCURVE",
"326 711 CURVE SMOOTH",
"326 371 OFFCURVE",
"564 86 OFFCURVE",
"919 86 CURVE SMOOTH",
"1120 86 OFFCURVE",
"1290 156 OFFCURVE",
"1430 295 CURVE"
);
}
);
};
layerId = "4E782664-D0D5-4FED-AFC2-B9212141A2ED";
paths = (
{
closed = 1;
nodes = (
"1023 1597 LINE",
"794 1597 LINE",
"794 1800 LINE",
"1023 1800 LINE"
);
},
{
closed = 1;
nodes = (
"1534 139 LINE",
"1362 -10 OFFCURVE",
"1158 -84 OFFCURVE",
"921 -84 CURVE SMOOTH",
"438 -84 OFFCURVE",
"121 248 OFFCURVE",
"121 714 CURVE SMOOTH",
"121 1166 OFFCURVE",
"441 1520 OFFCURVE",
"909 1520 CURVE SMOOTH",
"1148 1520 OFFCURVE",
"1317 1448 OFFCURVE",
"1497 1289 CURVE",
"1381 1152 LINE",
"1249 1288 OFFCURVE",
"1112 1352 OFFCURVE",
"919 1352 CURVE SMOOTH",
"546 1352 OFFCURVE",
"326 1066 OFFCURVE",
"326 711 CURVE SMOOTH",
"326 371 OFFCURVE",
"564 86 OFFCURVE",
"919 86 CURVE SMOOTH",
"1120 86 OFFCURVE",
"1290 156 OFFCURVE",
"1430 295 CURVE"
);
}
);
vertWidth = 2048;
width = 1638;
}
);
unicode = 010A;
},
{
color = 3;
glyphname = Dcroat;
lastChange = "2022-04-07 18:21:41 +0000";
layers = (
{
layerId = "4E782664-D0D5-4FED-AFC2-B9212141A2ED";
paths = (
{
closed = 1;
nodes = (
"201 1608 LINE",
"698 1608 LINE SMOOTH",
"931 1608 OFFCURVE",
"1121 1559 OFFCURVE",
"1267 1462 CURVE SMOOTH",
"1365 1397 OFFCURVE",
"1442 1314 OFFCURVE",
"1498 1213 CURVE SMOOTH",
"1567 1088 OFFCURVE",
"1601 945 OFFCURVE",
"1601 782 CURVE SMOOTH",
"1601 579 OFFCURVE",
"1551 407 OFFCURVE",
"1450 267 CURVE SMOOTH",
"1297 55 OFFCURVE",
"1041 -51 OFFCURVE",
"682 -51 CURVE SMOOTH",
"201 -51 LINE",
"201 787 LINE",
"0 787 LINE",
"0 881 LINE",
"201 881 LINE"
);
},
{
closed = 1;
nodes = (
"389 1444 LINE",
"389 881 LINE",
"655 881 LINE",
"655 787 LINE",
"389 787 LINE",
"389 115 LINE",
"669 115 LINE SMOOTH",
"856 115 OFFCURVE",
"1010 152 OFFCURVE",
"1130 226 CURVE SMOOTH",
"1309 336 OFFCURVE",
"1398 521 OFFCURVE",
"1398 780 CURVE SMOOTH",
"1398 1044 OFFCURVE",
"1309 1230 OFFCURVE",
"1130 1338 CURVE SMOOTH",
"1013 1409 OFFCURVE",
"864 1444 OFFCURVE",
"682 1444 CURVE SMOOTH"
);
}
);
vertWidth = 2048;
width = 1720;
}
);
unicode = 0110;
},
{
color = 3;
glyphname = Ebreve;
lastChange = "2022-04-07 18:21:41 +0000";
layers = (
{
layerId = "4E782664-D0D5-4FED-AFC2-B9212141A2ED";
paths = (
{
closed = 1;
nodes = (
"1094 1800 LINE",
"1081 1752 OFFCURVE",
"1058 1711 OFFCURVE",
"1026 1678 CURVE SMOOTH",
"960 1609 OFFCURVE",
"872 1575 OFFCURVE",
"762 1575 CURVE SMOOTH",
"677 1575 OFFCURVE",
"604 1597 OFFCURVE",
"541 1641 CURVE SMOOTH",
"486 1680 OFFCURVE",
"449 1733 OFFCURVE",
"430 1800 CURVE",
"559 1800 LINE",
"566 1783 OFFCURVE",
"576 1769 OFFCURVE",
"588 1757 CURVE SMOOTH",
"634 1712 OFFCURVE",
"692 1690 OFFCURVE",
"763 1690 CURVE SMOOTH",
"829 1690 OFFCURVE",
"884 1710 OFFCURVE",
"929 1751 CURVE SMOOTH",
"947 1767 OFFCURVE",
"959 1783 OFFCURVE",
"965 1800 CURVE"
);
},
{
closed = 1;
nodes = (
"207 1485 LINE",
"1286 1485 LINE",
"1286 1321 LINE",
"393 1321 LINE",
"393 827 LINE",
"1190 827 LINE",
"1190 667 LINE",
"393 667 LINE",
"393 117 LINE",
"1313 117 LINE",
"1313 -51 LINE",
"207 -51 LINE"
);
}
);
vertWidth = 2048;
width = 1434;
}
);
unicode = 0114;
},
{
color = 3;
glyphname = Edotaccent;
lastChange = "2022-04-07 18:21:41 +0000";
layers = (
{
layerId = "4E782664-D0D5-4FED-AFC2-B9212141A2ED";
paths = (
{
closed = 1;
nodes = (
"892 1597 LINE",
"663 1597 LINE",
"663 1800 LINE",
"892 1800 LINE"
);
},
{
closed = 1;
nodes = (
"207 1485 LINE",
"1286 1485 LINE",
"1286 1321 LINE",
"393 1321 LINE",
"393 827 LINE",
"1190 827 LINE",
"1190 667 LINE",
"393 667 LINE",
"393 117 LINE",
"1313 117 LINE",
"1313 -51 LINE",
"207 -51 LINE"
);
}
);
vertWidth = 2048;
width = 1720;
}
);
unicode = 0116;
},
{
color = 3;
glyphname = Gbreve;
lastChange = "2022-04-07 18:21:41 +0000";
layers = (
{
background = {
paths = (
{
closed = 1;
nodes = (
"1408 -60 LINE",
"1375 153 LINE",
"1257 -5 OFFCURVE",
"1091 -82 OFFCURVE",
"895 -82 CURVE SMOOTH",
"420 -82 OFFCURVE",
"114 252 OFFCURVE",
"114 713 CURVE SMOOTH",
"114 1169 OFFCURVE",
"425 1521 OFFCURVE",
"909 1521 CURVE SMOOTH",
"1148 1521 OFFCURVE",
"1306 1464 OFFCURVE",
"1492 1318 CURVE",
"1385 1177 LINE",
"1244 1302 OFFCURVE",
"1112 1353 OFFCURVE",
"916 1353 CURVE SMOOTH",
"534 1353 OFFCURVE",
"319 1085 OFFCURVE",
"319 710 CURVE SMOOTH",
"319 353 OFFCURVE",
"532 86 OFFCURVE",
"905 86 CURVE SMOOTH",
"1098 86 OFFCURVE",
"1275 185 OFFCURVE",
"1371 346 CURVE",
"1371 542 LINE",
"900 542 LINE",
"900 700 LINE",
"1551 700 LINE",
"1551 -60 LINE"
);
}
);
};
layerId = "4E782664-D0D5-4FED-AFC2-B9212141A2ED";
paths = (
{
closed = 1;
nodes = (
"1241 1800 LINE",
"1228 1752 OFFCURVE",
"1205 1711 OFFCURVE",
"1173 1678 CURVE SMOOTH",
"1107 1609 OFFCURVE",
"1019 1575 OFFCURVE",
"909 1575 CURVE SMOOTH",
"824 1575 OFFCURVE",
"751 1597 OFFCURVE",
"688 1641 CURVE SMOOTH",
"633 1680 OFFCURVE",
"596 1733 OFFCURVE",
"577 1800 CURVE",
"706 1800 LINE",
"713 1783 OFFCURVE",
"723 1769 OFFCURVE",
"735 1757 CURVE SMOOTH",
"781 1712 OFFCURVE",
"839 1690 OFFCURVE",
"910 1690 CURVE SMOOTH",
"976 1690 OFFCURVE",
"1031 1710 OFFCURVE",
"1076 1751 CURVE SMOOTH",
"1094 1767 OFFCURVE",
"1106 1783 OFFCURVE",
"1112 1800 CURVE"
);
},
{
closed = 1;
nodes = (
"1408 -60 LINE",
"1375 153 LINE",
"1257 -5 OFFCURVE",
"1091 -82 OFFCURVE",
"895 -82 CURVE SMOOTH",
"420 -82 OFFCURVE",
"114 252 OFFCURVE",
"114 713 CURVE SMOOTH",
"114 1169 OFFCURVE",
"425 1521 OFFCURVE",
"909 1521 CURVE SMOOTH",
"1148 1521 OFFCURVE",
"1306 1464 OFFCURVE",
"1492 1318 CURVE",
"1385 1177 LINE",
"1244 1302 OFFCURVE",
"1112 1353 OFFCURVE",
"916 1353 CURVE SMOOTH",
"534 1353 OFFCURVE",
"319 1085 OFFCURVE",
"319 710 CURVE SMOOTH",
"319 353 OFFCURVE",
"532 86 OFFCURVE",
"905 86 CURVE SMOOTH",
"1098 86 OFFCURVE",
"1275 185 OFFCURVE",
"1371 346 CURVE",
"1371 542 LINE",
"900 542 LINE",
"900 700 LINE",
"1551 700 LINE",
"1551 -60 LINE"
);
}
);
vertWidth = 2048;
width = 1720;
}
);
unicode = 011E;
},
{
color = 3;
glyphname = Gcommaaccent;
lastChange = "2022-04-07 18:21:41 +0000";
layers = (
{
background = {
paths = (
{
closed = 1;
nodes = (
"1408 90 LINE",
"1375 303 LINE",
"1255 142 OFFCURVE",
"1104 68 OFFCURVE",
"895 68 CURVE SMOOTH",
"420 68 OFFCURVE",
"114 395 OFFCURVE",
"114 848 CURVE SMOOTH",
"114 1296 OFFCURVE",
"425 1641 OFFCURVE",
"909 1641 CURVE SMOOTH",
"1148 1641 OFFCURVE",
"1306 1584 OFFCURVE",
"1492 1438 CURVE",
"1385 1297 LINE",
"1244 1422 OFFCURVE",
"1112 1473 OFFCURVE",
"916 1473 CURVE SMOOTH",
"534 1473 OFFCURVE",
"319 1211 OFFCURVE",
"319 845 CURVE SMOOTH",
"319 495 OFFCURVE",
"532 236 OFFCURVE",
"905 236 CURVE SMOOTH",
"1118 236 OFFCURVE",
"1265 318 OFFCURVE",
"1371 496 CURVE",
"1371 677 LINE",
"900 677 LINE",
"900 835 LINE",
"1551 835 LINE",
"1551 90 LINE"
);
}
);
};
layerId = "4E782664-D0D5-4FED-AFC2-B9212141A2ED";
paths = (
{
closed = 1;
nodes = (
"749 0 LINE",
"1025 0 LINE",
"1025 -40 LINE SMOOTH",
"1025 -124 OFFCURVE",
"1004 -193 OFFCURVE",
"961 -246 CURVE",
"824 -246 LINE",
"850 -211 OFFCURVE",
"865 -172 OFFCURVE",
"870 -130 CURVE",
"749 -130 LINE"
);
},
{
closed = 1;
nodes = (
"1408 90 LINE",
"1375 303 LINE",
"1255 142 OFFCURVE",
"1104 68 OFFCURVE",
"895 68 CURVE SMOOTH",
"420 68 OFFCURVE",
"114 395 OFFCURVE",
"114 848 CURVE SMOOTH",
"114 1296 OFFCURVE",
"425 1641 OFFCURVE",
"909 1641 CURVE SMOOTH",
"1148 1641 OFFCURVE",
"1306 1584 OFFCURVE",
"1492 1438 CURVE",
"1385 1297 LINE",
"1244 1422 OFFCURVE",
"1112 1473 OFFCURVE",
"916 1473 CURVE SMOOTH",
"534 1473 OFFCURVE",
"319 1211 OFFCURVE",
"319 845 CURVE SMOOTH",
"319 495 OFFCURVE",
"532 236 OFFCURVE",
"905 236 CURVE SMOOTH",
"1118 236 OFFCURVE",
"1265 318 OFFCURVE",
"1371 496 CURVE",
"1371 677 LINE",
"900 677 LINE",
"900 835 LINE",
"1551 835 LINE",
"1551 90 LINE"
);
}
);
vertWidth = 2048;
width = 1720;
}
);
unicode = 0122;
},
{
color = 3;
glyphname = Gdotaccent;
lastChange = "2022-04-07 18:21:41 +0000";
layers = (
{
layerId = "4E782664-D0D5-4FED-AFC2-B9212141A2ED";
paths = (
{
closed = 1;
nodes = (
"1024 1597 LINE",
"795 1597 LINE",
"795 1800 LINE",
"1024 1800 LINE"
);
},
{
closed = 1;
nodes = (
"1408 -60 LINE",
"1375 153 LINE",
"1257 -5 OFFCURVE",
"1091 -82 OFFCURVE",
"895 -82 CURVE SMOOTH",
"420 -82 OFFCURVE",
"114 252 OFFCURVE",
"114 713 CURVE SMOOTH",
"114 1169 OFFCURVE",
"425 1521 OFFCURVE",
"909 1521 CURVE SMOOTH",
"1148 1521 OFFCURVE",
"1306 1464 OFFCURVE",
"1492 1318 CURVE",
"1385 1177 LINE",
"1244 1302 OFFCURVE",
"1112 1353 OFFCURVE",
"916 1353 CURVE SMOOTH",
"534 1353 OFFCURVE",
"319 1085 OFFCURVE",
"319 710 CURVE SMOOTH",
"319 353 OFFCURVE",
"532 86 OFFCURVE",
"905 86 CURVE SMOOTH",
"1098 86 OFFCURVE",
"1275 185 OFFCURVE",
"1371 346 CURVE",
"1371 542 LINE",
"900 542 LINE",
"900 700 LINE",
"1551 700 LINE",
"1551 -60 LINE"
);
}
);
vertWidth = 2048;
width = 1720;
}
);
unicode = 0120;
},
{
color = 3;
glyphname = Hbar;
lastChange = "2022-04-07 18:21:41 +0000";
layers = (
{
background = {
paths = (
{
closed = 1;
nodes = (
"385 1265 LINE",
"385 1608 LINE",
"199 1608 LINE",
"199 -51 LINE",
"385 -51 LINE",
"385 729 LINE",
"1295 729 LINE",
"1295 -51 LINE",
"1481 -51 LINE",
"1481 1608 LINE",
"1295 1608 LINE",
"1295 1265 LINE"
);
},
{
closed = 1;
nodes = (
"1295 1111 LINE",
"1295 889 LINE",
"385 889 LINE",
"385 1111 LINE"
);
}
);
};
layerId = "4E782664-D0D5-4FED-AFC2-B9212141A2ED";
paths = (
{
closed = 1;
nodes = (
"199 1608 LINE",
"385 1608 LINE",
"385 1265 LINE",
"1295 1265 LINE",
"1295 1608 LINE",
"1481 1608 LINE",
"1481 -51 LINE",
"1295 -51 LINE",
"1295 729 LINE",
"385 729 LINE",
"385 -51 LINE",
"199 -51 LINE"
);
},
{
closed = 1;
nodes = (
"1295 889 LINE",
"1295 1111 LINE",
"385 1111 LINE",
"385 889 LINE"
);
}
);
vertWidth = 2048;
width = 1679;
}
);
unicode = 0126;
},
{
color = 3;
glyphname = IJ;
lastChange = "2022-04-07 18:21:41 +0000";
layers = (
{
background = {
paths = (
{
closed = 1;
nodes = (
"127 1608 LINE",
"733 1608 LINE",
"733 1463 LINE",
"524 1463 LINE",
"524 594 LINE",
"733 594 LINE",
"733 449 LINE",
"127 449 LINE",
"127 594 LINE",
"336 594 LINE",
"336 1463 LINE",
"127 1463 LINE"
);
}
);
};
layerId = "4E782664-D0D5-4FED-AFC2-B9212141A2ED";
paths = (
{
closed = 1;
nodes = (
"1010 1608 LINE",
"1200 1608 LINE",
"1200 402 LINE SMOOTH",
"1200 240 OFFCURVE",
"1168 123 OFFCURVE",
"1104 51 CURVE SMOOTH",
"1024 -39 OFFCURVE",
"908 -84 OFFCURVE",
"757 -84 CURVE SMOOTH",
"573 -84 OFFCURVE",
"434 14 OFFCURVE",
"340 209 CURVE",
"457 324 LINE",
"527 165 OFFCURVE",
"625 86 OFFCURVE",
"751 86 CURVE SMOOTH",
"850 86 OFFCURVE",
"922 120 OFFCURVE",
"965 189 CURVE SMOOTH",
"995 237 OFFCURVE",
"1010 312 OFFCURVE",
"1010 414 CURVE SMOOTH"
);
},
{
closed = 1;
nodes = (
"127 1608 LINE",
"733 1608 LINE",
"733 1463 LINE",
"524 1463 LINE",
"524 594 LINE",
"733 594 LINE",
"733 449 LINE",
"127 449 LINE",
"127 594 LINE",
"336 594 LINE",
"336 1463 LINE",
"127 1463 LINE"
);
}
);
vertWidth = 2048;
width = 1446;
}
);
unicode = 0132;
},
{
color = 3;
glyphname = Ibreve;
lastChange = "2022-04-07 18:21:41 +0000";
layers = (
{
layerId = "4E782664-D0D5-4FED-AFC2-B9212141A2ED";
paths = (
{
closed = 1;
nodes = (
"127 1485 LINE",
"641 1485 LINE",
"641 1344 LINE",
"469 1344 LINE",
"469 90 LINE",
"641 90 LINE",
"641 -51 LINE",
"127 -51 LINE",
"127 90 LINE",
"299 90 LINE",
"299 1344 LINE",
"127 1344 LINE"
);
},
{
closed = 1;
nodes = (
"716 1800 LINE",
"703 1752 OFFCURVE",
"680 1711 OFFCURVE",
"648 1678 CURVE SMOOTH",
"582 1609 OFFCURVE",
"494 1575 OFFCURVE",
"384 1575 CURVE SMOOTH",
"299 1575 OFFCURVE",
"226 1597 OFFCURVE",
"163 1641 CURVE SMOOTH",
"108 1680 OFFCURVE",
"71 1733 OFFCURVE",
"52 1800 CURVE",
"181 1800 LINE",
"188 1783 OFFCURVE",
"198 1769 OFFCURVE",
"210 1757 CURVE SMOOTH",
"256 1712 OFFCURVE",
"314 1690 OFFCURVE",
"385 1690 CURVE SMOOTH",
"451 1690 OFFCURVE",
"506 1710 OFFCURVE",
"551 1751 CURVE SMOOTH",
"569 1767 OFFCURVE",
"581 1783 OFFCURVE",
"587 1800 CURVE"
);
}
);
vertWidth = 2048;
width = 768;
}
);
unicode = 012C;
},
{
color = 3;
glyphname = Idotaccent;
lastChange = "2022-04-07 18:21:41 +0000";
layers = (
{
layerId = "4E782664-D0D5-4FED-AFC2-B9212141A2ED";
paths = (
{
closed = 1;
nodes = (
"127 1485 LINE",
"641 1485 LINE",
"641 1344 LINE",
"469 1344 LINE",
"469 90 LINE",
"641 90 LINE",
"641 -51 LINE",
"127 -51 LINE",
"127 90 LINE",
"299 90 LINE",
"299 1344 LINE",
"127 1344 LINE"
);
},
{
closed = 1;
nodes = (
"499 1597 LINE",
"270 1597 LINE",
"270 1800 LINE",
"499 1800 LINE"
);
}
);
vertWidth = 2048;
width = 768;
}
);
unicode = 0130;
},
{
color = 3;
glyphname = Iogonek;
lastChange = "2022-04-07 18:21:41 +0000";
layers = (
{
background = {
paths = (
{
closed = 1;
nodes = (
"127 1608 LINE",
"127 1465 LINE",
"299 1465 LINE",
"299 212 LINE",
"127 212 LINE",
"127 69 LINE",
"343 69 LINE",
"243 9 OFFCURVE",
"193 -54 OFFCURVE",
"193 -119 CURVE SMOOTH",
"193 -155 OFFCURVE",
"211 -185 OFFCURVE",
"246 -208 CURVE SMOOTH",
"283 -232 OFFCURVE",
"331 -244 OFFCURVE",
"391 -244 CURVE SMOOTH",
"471 -244 OFFCURVE",
"538 -227 OFFCURVE",
"593 -193 CURVE",
"593 -113 LINE",
"532 -146 OFFCURVE",
"474 -162 OFFCURVE",
"420 -162 CURVE SMOOTH",
"365 -162 OFFCURVE",
"337 -142 OFFCURVE",
"337 -102 CURVE SMOOTH",
"337 -72 OFFCURVE",
"350 -42 OFFCURVE",
"377 -13 CURVE SMOOTH",
"397 9 OFFCURVE",
"433 35 OFFCURVE",
"484 69 CURVE",
"641 69 LINE",
"641 212 LINE",
"469 212 LINE",
"469 1465 LINE",
"641 1465 LINE",
"641 1608 LINE"
);
}
);
};
layerId = "4E782664-D0D5-4FED-AFC2-B9212141A2ED";
paths = (
{
closed = 1;
nodes = (
"331 -244 OFFCURVE",
"283 -232 OFFCURVE",
"246 -208 CURVE SMOOTH",
"211 -185 OFFCURVE",
"193 -155 OFFCURVE",
"193 -119 CURVE SMOOTH",
"193 -54 OFFCURVE",
"243 9 OFFCURVE",
"343 69 CURVE",
"127 69 LINE",
"127 212 LINE",
"299 212 LINE",
"299 1465 LINE",
"127 1465 LINE",
"127 1608 LINE",
"641 1608 LINE",
"641 1465 LINE",
"469 1465 LINE",
"469 212 LINE",
"641 212 LINE",
"641 69 LINE",
"484 69 LINE",
"433 35 OFFCURVE",
"397 9 OFFCURVE",
"377 -13 CURVE SMOOTH",
"350 -42 OFFCURVE",
"337 -72 OFFCURVE",
"337 -102 CURVE SMOOTH",
"337 -142 OFFCURVE",
"365 -162 OFFCURVE",
"420 -162 CURVE SMOOTH",
"474 -162 OFFCURVE",
"532 -146 OFFCURVE",
"593 -113 CURVE",
"593 -193 LINE",
"538 -227 OFFCURVE",
"471 -244 OFFCURVE",
"391 -244 CURVE SMOOTH"
);
}
);
vertWidth = 2048;
width = 768;
}
);
unicode = 012E;
},
{
color = 3;
glyphname = Itilde;
lastChange = "2022-04-07 18:21:41 +0000";
layers = (
{
layerId = "4E782664-D0D5-4FED-AFC2-B9212141A2ED";
paths = (
{
closed = 1;
nodes = (
"127 1485 LINE",
"641 1485 LINE",
"641 1344 LINE",
"469 1344 LINE",
"469 90 LINE",
"641 90 LINE",
"641 -51 LINE",
"127 -51 LINE",
"127 90 LINE",
"299 90 LINE",
"299 1344 LINE",
"127 1344 LINE"
);
},
{
closed = 1;
nodes = (
"718 1647 LINE",
"679 1604 OFFCURVE",
"626 1583 OFFCURVE",
"558 1583 CURVE SMOOTH",
"514 1583 OFFCURVE",
"454 1599 OFFCURVE",
"379 1630 CURVE SMOOTH",
"316 1656 OFFCURVE",
"261 1669 OFFCURVE",
"216 1669 CURVE SMOOTH",
"155 1669 OFFCURVE",
"100 1651 OFFCURVE",
"51 1616 CURVE",
"51 1727 LINE",
"91 1769 OFFCURVE",
"145 1790 OFFCURVE",
"213 1790 CURVE SMOOTH",
"258 1790 OFFCURVE",
"318 1774 OFFCURVE",
"393 1743 CURVE SMOOTH",
"455 1717 OFFCURVE",
"509 1704 OFFCURVE",
"554 1704 CURVE SMOOTH",
"617 1704 OFFCURVE",
"671 1722 OFFCURVE",
"718 1757 CURVE"
);
}
);
vertWidth = 2048;
width = 768;
}
);
unicode = 0128;
},
{
color = 3;
glyphname = Kcommaaccent;
lastChange = "2022-04-07 18:21:41 +0000";
layers = (
{
background = {
paths = (
{
closed = 1;
nodes = (
"1159 1608 LINE",
"397 873 LINE",
"397 1608 LINE",
"209 1608 LINE",
"209 69 LINE",
"397 69 LINE",
"397 666 LINE",
"603 859 LINE",
"1247 69 LINE",
"1499 69 LINE",
"730 977 LINE",
"1407 1608 LINE"
);
},
{
closed = 1;
nodes = (
"740 -172 OFFCURVE",
"725 -211 OFFCURVE",
"699 -246 CURVE",
"836 -246 LINE",
"879 -193 OFFCURVE",
"900 -124 OFFCURVE",
"900 -40 CURVE SMOOTH",
"900 0 LINE",
"624 0 LINE",
"624 -130 LINE",
"745 -130 LINE"
);
}
);
};
layerId = "4E782664-D0D5-4FED-AFC2-B9212141A2ED";
paths = (
{
closed = 1;
nodes = (
"209 1608 LINE",
"397 1608 LINE",
"397 873 LINE",
"1159 1608 LINE",
"1407 1608 LINE",
"730 977 LINE",
"1499 69 LINE",
"1247 69 LINE",
"603 859 LINE",
"397 666 LINE",
"397 69 LINE",
"209 69 LINE"
);
},
{
closed = 1;
nodes = (
"725 -211 OFFCURVE",
"740 -172 OFFCURVE",
"745 -130 CURVE",
"624 -130 LINE",
"624 0 LINE",
"900 0 LINE",
"900 -40 LINE SMOOTH",
"900 -124 OFFCURVE",
"879 -193 OFFCURVE",
"836 -246 CURVE",
"699 -246 LINE"
);
}
);
vertWidth = 2048;
width = 1536;
}
);
unicode = 0136;
},
{
color = 3;
glyphname = Lcommaaccent;
lastChange = "2022-04-07 18:21:41 +0000";
layers = (
{
background = {
paths = (
{
closed = 1;
nodes = (
"217 1608 LINE",
"410 1608 LINE",
"410 239 LINE",
"1209 239 LINE",
"1209 69 LINE",
"217 69 LINE"
);
}
);
};
layerId = "4E782664-D0D5-4FED-AFC2-B9212141A2ED";
paths = (
{
closed = 1;
nodes = (
"593 0 LINE",
"869 0 LINE",
"869 -40 LINE SMOOTH",
"869 -124 OFFCURVE",
"848 -193 OFFCURVE",
"805 -246 CURVE",
"668 -246 LINE",
"694 -211 OFFCURVE",
"709 -172 OFFCURVE",
"714 -130 CURVE",
"593 -130 LINE"
);
},
{
closed = 1;
nodes = (
"217 1608 LINE",
"410 1608 LINE",
"410 239 LINE",
"1209 239 LINE",
"1209 69 LINE",
"217 69 LINE"
);
}
);
vertWidth = 2048;
width = 1229;
}
);
unicode = 013B;
},
{
color = 3;
glyphname = Ldot;
lastChange = "2022-04-07 18:21:41 +0000";
layers = (
{
layerId = "4E782664-D0D5-4FED-AFC2-B9212141A2ED";
paths = (
{
closed = 1;
nodes = (
"1012 777 LINE",
"783 777 LINE",
"783 980 LINE",
"1012 980 LINE"
);
},
{
closed = 1;
nodes = (
"217 1608 LINE",
"410 1608 LINE",
"410 119 LINE",
"1209 119 LINE",
"1209 -51 LINE",
"217 -51 LINE"
);
}
);
vertWidth = 2048;
width = 1229;
}
);
unicode = 013F;
},
{
color = 3;
glyphname = Ncommaaccent;
lastChange = "2022-04-07 18:21:41 +0000";
layers = (
{
background = {
paths = (
{
closed = 1;
nodes = (
"193 1608 LINE",
"455 1608 LINE",
"1090 699 LINE SMOOTH",
"1161 589 OFFCURVE",
"1242 479 OFFCURVE",
"1313 356 CURVE",
"1319 356 LINE",
"1308 602 OFFCURVE",
"1303 773 OFFCURVE",
"1303 867 CURVE SMOOTH",
"1303 1608 LINE",
"1487 1608 LINE",
"1487 69 LINE",
"1313 69 LINE",
"572 1142 LINE SMOOTH",
"515 1230 OFFCURVE",
"442 1323 OFFCURVE",
"373 1434 CURVE",
"363 1434 LINE",
"374 1289 OFFCURVE",
"379 1111 OFFCURVE",
"379 900 CURVE SMOOTH",
"379 69 LINE",
"193 69 LINE"
);
}
);
};
layerId = "4E782664-D0D5-4FED-AFC2-B9212141A2ED";
paths = (
{
closed = 1;
nodes = (
"703 0 LINE",
"979 0 LINE",
"979 -40 LINE SMOOTH",
"979 -124 OFFCURVE",
"958 -193 OFFCURVE",
"915 -246 CURVE",
"778 -246 LINE",
"804 -211 OFFCURVE",
"819 -172 OFFCURVE",
"824 -130 CURVE",
"703 -130 LINE"
);
},
{
closed = 1;
nodes = (
"193 1608 LINE",
"455 1608 LINE",
"1090 699 LINE SMOOTH",
"1165 592 OFFCURVE",
"1242 479 OFFCURVE",
"1313 356 CURVE",
"1319 356 LINE",
"1308 602 OFFCURVE",
"1303 773 OFFCURVE",
"1303 867 CURVE SMOOTH",
"1303 1608 LINE",
"1487 1608 LINE",
"1487 69 LINE",
"1313 69 LINE",
"572 1142 LINE SMOOTH",
"512 1228 OFFCURVE",
"442 1323 OFFCURVE",
"373 1434 CURVE",
"363 1434 LINE",
"374 1289 OFFCURVE",
"379 1111 OFFCURVE",
"379 900 CURVE SMOOTH",
"379 69 LINE",
"193 69 LINE"
);
}
);
vertWidth = 2048;
width = 1679;
}
);
unicode = 0145;
},
{
color = 3;
glyphname = Eng;
lastChange = "2022-04-07 18:21:41 +0000";
layers = (
{
background = {
paths = (
{
closed = 1;
nodes = (
"1303 773 OFFCURVE",
"1308 602 OFFCURVE",
"1319 356 CURVE",
"1313 356 LINE",
"1242 479 OFFCURVE",
"1165 592 OFFCURVE",
"1090 699 CURVE SMOOTH",
"455 1608 LINE",
"193 1608 LINE",
"193 69 LINE",
"379 69 LINE",
"379 900 LINE SMOOTH",
"379 1111 OFFCURVE",
"374 1289 OFFCURVE",
"363 1434 CURVE",
"373 1434 LINE",
"442 1323 OFFCURVE",
"512 1228 OFFCURVE",
"572 1142 CURVE SMOOTH",
"1293 98 LINE",
"1266 -33 OFFCURVE",
"1170 -80 OFFCURVE",
"953 -86 CURVE",
"1016 -244 LINE",
"1375 -225 OFFCURVE",
"1487 -92 OFFCURVE",
"1487 260 CURVE SMOOTH",
"1487 1608 LINE",
"1303 1608 LINE",
"1303 867 LINE SMOOTH"
);
}
);
};
layerId = "4E782664-D0D5-4FED-AFC2-B9212141A2ED";
paths = (
{
closed = 1;
nodes = (
"953 -86 LINE",
"1170 -80 OFFCURVE",
"1266 -33 OFFCURVE",
"1293 98 CURVE",
"572 1142 LINE SMOOTH",
"512 1228 OFFCURVE",
"442 1323 OFFCURVE",
"373 1434 CURVE",
"363 1434 LINE",
"374 1289 OFFCURVE",
"379 1111 OFFCURVE",
"379 900 CURVE SMOOTH",
"379 69 LINE",
"193 69 LINE",
"193 1608 LINE",
"455 1608 LINE",
"1090 699 LINE SMOOTH",
"1165 592 OFFCURVE",
"1242 479 OFFCURVE",
"1313 356 CURVE",
"1319 356 LINE",
"1308 602 OFFCURVE",
"1303 773 OFFCURVE",
"1303 867 CURVE SMOOTH",
"1303 1608 LINE",
"1487 1608 LINE",
"1487 260 LINE SMOOTH",
"1487 -92 OFFCURVE",
"1375 -225 OFFCURVE",
"1016 -244 CURVE"
);
}
);
vertWidth = 2048;
width = 1679;
}
);
unicode = 014A;
},
{
color = 3;
glyphname = Obreve;
lastChange = "2022-04-07 18:21:41 +0000";
layers = (
{
layerId = "4E782664-D0D5-4FED-AFC2-B9212141A2ED";
paths = (
{
closed = 1;
nodes = (
"1215 1800 LINE",
"1202 1752 OFFCURVE",
"1179 1711 OFFCURVE",
"1147 1678 CURVE SMOOTH",
"1081 1609 OFFCURVE",
"993 1575 OFFCURVE",
"883 1575 CURVE SMOOTH",
"798 1575 OFFCURVE",
"725 1597 OFFCURVE",
"662 1641 CURVE SMOOTH",
"607 1680 OFFCURVE",
"570 1733 OFFCURVE",
"551 1800 CURVE",
"680 1800 LINE",
"687 1783 OFFCURVE",
"697 1769 OFFCURVE",
"709 1757 CURVE SMOOTH",
"755 1712 OFFCURVE",
"813 1690 OFFCURVE",
"884 1690 CURVE SMOOTH",
"950 1690 OFFCURVE",
"1005 1710 OFFCURVE",
"1050 1751 CURVE SMOOTH",
"1068 1767 OFFCURVE",
"1080 1783 OFFCURVE",
"1086 1800 CURVE"
);
},
{
closed = 1;
nodes = (
"1092 1518 OFFCURVE",
"1266 1459 OFFCURVE",
"1405 1341 CURVE SMOOTH",
"1577 1195 OFFCURVE",
"1663 988 OFFCURVE",
"1663 719 CURVE SMOOTH",
"1663 522 OFFCURVE",
"1615 356 OFFCURVE",
"1520 221 CURVE SMOOTH",
"1445 114 OFFCURVE",
"1345 34 OFFCURVE",
"1222 -19 CURVE SMOOTH",
"1119 -62 OFFCURVE",
"1006 -84 OFFCURVE",
"881 -84 CURVE SMOOTH",
"609 -84 OFFCURVE",
"401 10 OFFCURVE",
"257 199 CURVE SMOOTH",
"151 338 OFFCURVE",
"98 512 OFFCURVE",
"98 719 CURVE SMOOTH",
"98 1000 OFFCURVE",
"191 1213 OFFCURVE",
"376 1358 CURVE SMOOTH",
"513 1465 OFFCURVE",
"682 1518 OFFCURVE",
"883 1518 CURVE SMOOTH"
);
},
{
closed = 1;
nodes = (
"688 1356 OFFCURVE",
"539 1285 OFFCURVE",
"431 1142 CURVE SMOOTH",
"347 1030 OFFCURVE",
"305 888 OFFCURVE",
"305 717 CURVE SMOOTH",
"305 552 OFFCURVE",
"343 416 OFFCURVE",
"420 307 CURVE SMOOTH",
"526 158 OFFCURVE",
"680 84 OFFCURVE",
"882 84 CURVE SMOOTH",
"1063 84 OFFCURVE",
"1207 146 OFFCURVE",
"1313 271 CURVE SMOOTH",
"1408 384 OFFCURVE",
"1456 532 OFFCURVE",
"1456 716 CURVE SMOOTH",
"1456 925 OFFCURVE",
"1396 1087 OFFCURVE",
"1277 1203 CURVE SMOOTH",
"1172 1305 OFFCURVE",
"1039 1356 OFFCURVE",
"878 1356 CURVE SMOOTH"
);
}
);
vertWidth = 2048;
width = 1761;
}
);
unicode = 014E;
},
{
color = 3;
glyphname = Rcommaaccent;
lastChange = "2022-04-07 18:21:41 +0000";
layers = (
{
background = {
paths = (
{
closed = 1;
nodes = (
"209 1608 LINE",
"766 1608 LINE SMOOTH",
"1108 1608 OFFCURVE",
"1368 1475 OFFCURVE",
"1368 1187 CURVE SMOOTH",
"1368 942 OFFCURVE",
"1196 847 OFFCURVE",
"915 791 CURVE",
"915 784 LINE",
"1020 749 OFFCURVE",
"1109 676 OFFCURVE",
"1180 565 CURVE SMOOTH",
"1257 446 OFFCURVE",
"1364 284 OFFCURVE",
"1484 69 CURVE",
"1253 69 LINE",
"1130 324 OFFCURVE",
"1022 491 OFFCURVE",
"945 580 CURVE SMOOTH",
"858 681 OFFCURVE",
"742 731 OFFCURVE",
"598 731 CURVE SMOOTH",
"397 731 LINE",
"397 69 LINE",
"209 69 LINE"
);
},
{
closed = 1;
nodes = (
"397 1450 LINE",
"397 883 LINE",
"700 883 LINE SMOOTH",
"958 883 OFFCURVE",
"1165 965 OFFCURVE",
"1165 1179 CURVE SMOOTH",
"1165 1360 OFFCURVE",
"1021 1450 OFFCURVE",
"733 1450 CURVE SMOOTH"
);
}
);
};
layerId = "4E782664-D0D5-4FED-AFC2-B9212141A2ED";
paths = (
{
closed = 1;
nodes = (
"633 0 LINE",
"909 0 LINE",
"909 -40 LINE SMOOTH",
"909 -124 OFFCURVE",
"888 -193 OFFCURVE",
"845 -246 CURVE",
"708 -246 LINE",
"734 -211 OFFCURVE",
"749 -172 OFFCURVE",
"754 -130 CURVE",
"633 -130 LINE"
);
},
{
closed = 1;
nodes = (
"209 1608 LINE",
"766 1608 LINE SMOOTH",
"1108 1608 OFFCURVE",
"1368 1475 OFFCURVE",
"1368 1187 CURVE SMOOTH",
"1368 942 OFFCURVE",
"1196 847 OFFCURVE",
"915 791 CURVE",
"915 784 LINE",
"1020 749 OFFCURVE",
"1109 676 OFFCURVE",
"1180 565 CURVE SMOOTH",
"1257 446 OFFCURVE",
"1364 284 OFFCURVE",
"1484 69 CURVE",
"1253 69 LINE",
"1130 324 OFFCURVE",
"1022 491 OFFCURVE",
"945 580 CURVE SMOOTH",
"858 681 OFFCURVE",
"742 731 OFFCURVE",
"598 731 CURVE SMOOTH",
"397 731 LINE",
"397 69 LINE",
"209 69 LINE"
);
},
{
closed = 1;
nodes = (
"397 1450 LINE",
"397 883 LINE",
"700 883 LINE SMOOTH",
"958 883 OFFCURVE",
"1165 965 OFFCURVE",
"1165 1179 CURVE SMOOTH",
"1165 1360 OFFCURVE",
"1021 1450 OFFCURVE",
"733 1450 CURVE SMOOTH"
);
}
);
vertWidth = 2048;
width = 1556;
}
);
unicode = 0156;
},
{
color = 3;
glyphname = Tbar;
lastChange = "2022-04-07 18:21:41 +0000";
layers = (
{
background = {
paths = (
{
closed = 1;
nodes = (
"25 1608 LINE",
"25 1440 LINE",
"625 1440 LINE",
"625 905 LINE",
"221 905 LINE",
"221 751 LINE",
"625 751 LINE",
"625 -51 LINE",
"809 -51 LINE",
"809 751 LINE",
"1214 751 LINE",
"1214 905 LINE",
"809 905 LINE",
"809 1440 LINE",
"1409 1440 LINE",
"1409 1608 LINE"
);
}
);
};
layerId = "4E782664-D0D5-4FED-AFC2-B9212141A2ED";
paths = (
{
closed = 1;
nodes = (
"625 751 LINE",
"221 751 LINE",
"221 905 LINE",
"625 905 LINE",
"625 1440 LINE",
"25 1440 LINE",
"25 1608 LINE",
"1409 1608 LINE",
"1409 1440 LINE",
"809 1440 LINE",
"809 905 LINE",
"1214 905 LINE",
"1214 751 LINE",
"809 751 LINE",
"809 -51 LINE",
"625 -51 LINE"
);
}
);
vertWidth = 2048;
width = 1434;
}
);
unicode = 0166;
},
{
color = 3;
glyphname = Uogonek;
lastChange = "2022-04-07 18:21:41 +0000";
layers = (
{
background = {
paths = (
{
closed = 1;
nodes = (
"1319 383 OFFCURVE",
"1135 204 OFFCURVE",
"862 204 CURVE SMOOTH",
"583 204 OFFCURVE",
"401 382 OFFCURVE",
"401 665 CURVE SMOOTH",
"401 1608 LINE",
"213 1608 LINE",
"213 643 LINE SMOOTH",
"213 292 OFFCURVE",
"436 73 OFFCURVE",
"769 40 CURVE",
"698 -11 OFFCURVE",
"662 -64 OFFCURVE",
"662 -119 CURVE SMOOTH",
"662 -155 OFFCURVE",
"680 -185 OFFCURVE",
"715 -208 CURVE SMOOTH",
"752 -232 OFFCURVE",
"800 -244 OFFCURVE",
"860 -244 CURVE SMOOTH",
"940 -244 OFFCURVE",
"1007 -227 OFFCURVE",
"1062 -193 CURVE",
"1062 -113 LINE",
"1001 -146 OFFCURVE",
"943 -162 OFFCURVE",
"889 -162 CURVE SMOOTH",
"834 -162 OFFCURVE",
"806 -142 OFFCURVE",
"806 -102 CURVE SMOOTH",
"806 -72 OFFCURVE",
"819 -42 OFFCURVE",
"846 -13 CURVE SMOOTH",
"859 1 OFFCURVE",
"880 18 OFFCURVE",
"907 37 CURVE",
"1265 56 OFFCURVE",
"1507 278 OFFCURVE",
"1507 643 CURVE SMOOTH",
"1507 1608 LINE",
"1319 1608 LINE",
"1319 665 LINE SMOOTH"
);
}
);
};
layerId = "4E782664-D0D5-4FED-AFC2-B9212141A2ED";
paths = (
{
closed = 1;
nodes = (
"800 -244 OFFCURVE",
"752 -232 OFFCURVE",
"715 -208 CURVE SMOOTH",
"680 -185 OFFCURVE",
"662 -155 OFFCURVE",
"662 -119 CURVE SMOOTH",
"662 -64 OFFCURVE",
"698 -11 OFFCURVE",
"769 40 CURVE",
"436 73 OFFCURVE",
"213 292 OFFCURVE",
"213 643 CURVE SMOOTH",
"213 1608 LINE",
"401 1608 LINE",
"401 665 LINE SMOOTH",
"401 382 OFFCURVE",
"583 204 OFFCURVE",
"862 204 CURVE SMOOTH",
"1135 204 OFFCURVE",
"1319 383 OFFCURVE",
"1319 665 CURVE SMOOTH",
"1319 1608 LINE",
"1507 1608 LINE",
"1507 643 LINE SMOOTH",
"1507 278 OFFCURVE",
"1265 56 OFFCURVE",
"907 37 CURVE",
"880 18 OFFCURVE",
"859 1 OFFCURVE",
"846 -13 CURVE SMOOTH",
"819 -42 OFFCURVE",
"806 -72 OFFCURVE",
"806 -102 CURVE SMOOTH",
"806 -142 OFFCURVE",
"834 -162 OFFCURVE",
"889 -162 CURVE SMOOTH",
"943 -162 OFFCURVE",
"1001 -146 OFFCURVE",
"1062 -113 CURVE",
"1062 -193 LINE",
"1007 -227 OFFCURVE",
"940 -244 OFFCURVE",
"860 -244 CURVE SMOOTH"
);
}
);
vertWidth = 2048;
width = 1720;
}
);
unicode = 0172;
},
{
color = 3;
glyphname = Utilde;
lastChange = "2022-04-07 18:21:41 +0000";
layers = (
{
background = {
paths = (
{
closed = 1;
nodes = (
"213 1488 LINE",
"401 1488 LINE",
"401 665 LINE SMOOTH",
"401 382 OFFCURVE",
"583 204 OFFCURVE",
"862 204 CURVE SMOOTH",
"1135 204 OFFCURVE",
"1319 383 OFFCURVE",
"1319 665 CURVE SMOOTH",
"1319 1488 LINE",
"1507 1488 LINE",
"1507 643 LINE SMOOTH",
"1507 262 OFFCURVE",
"1243 36 OFFCURVE",
"858 36 CURVE SMOOTH",
"477 36 OFFCURVE",
"213 261 OFFCURVE",
"213 643 CURVE SMOOTH"
);
}
);
};
layerId = "4E782664-D0D5-4FED-AFC2-B9212141A2ED";
paths = (
{
closed = 1;
nodes = (
"1195 1647 LINE",
"1156 1604 OFFCURVE",
"1103 1583 OFFCURVE",
"1035 1583 CURVE SMOOTH",
"991 1583 OFFCURVE",
"931 1599 OFFCURVE",
"856 1630 CURVE SMOOTH",
"793 1656 OFFCURVE",
"738 1669 OFFCURVE",
"693 1669 CURVE SMOOTH",
"632 1669 OFFCURVE",
"577 1651 OFFCURVE",
"528 1616 CURVE",
"528 1727 LINE",
"568 1769 OFFCURVE",
"622 1790 OFFCURVE",
"690 1790 CURVE SMOOTH",
"735 1790 OFFCURVE",
"795 1774 OFFCURVE",
"870 1743 CURVE SMOOTH",
"932 1717 OFFCURVE",
"986 1704 OFFCURVE",
"1031 1704 CURVE SMOOTH",
"1094 1704 OFFCURVE",
"1148 1722 OFFCURVE",
"1195 1757 CURVE"
);
},
{
closed = 1;
nodes = (
"213 1488 LINE",
"401 1488 LINE",
"401 545 LINE SMOOTH",
"401 438 OFFCURVE",
"423 351 OFFCURVE",
"467 282 CURVE SMOOTH",
"483 257 OFFCURVE",
"503 233 OFFCURVE",
"526 211 CURVE SMOOTH",
"617 126 OFFCURVE",
"729 84 OFFCURVE",
"862 84 CURVE SMOOTH",
"1005 84 OFFCURVE",
"1121 133 OFFCURVE",
"1212 230 CURVE SMOOTH",
"1283 305 OFFCURVE",
"1319 410 OFFCURVE",
"1319 545 CURVE SMOOTH",
"1319 1488 LINE",
"1507 1488 LINE",
"1507 523 LINE SMOOTH",
"1507 368 OFFCURVE",
"1471 246 OFFCURVE",
"1399 157 CURVE SMOOTH",
"1269 -4 OFFCURVE",
"1089 -84 OFFCURVE",
"858 -84 CURVE SMOOTH",
"624 -84 OFFCURVE",
"443 -1 OFFCURVE",
"314 166 CURVE SMOOTH",
"247 253 OFFCURVE",
"213 372 OFFCURVE",
"213 523 CURVE SMOOTH"
);
}
);
vertWidth = 2048;
width = 1720;
}
);
unicode = 0168;
},
{
color = 3;
glyphname = Wcircumflex;
lastChange = "2022-04-07 18:21:41 +0000";
layers = (
{
background = {
paths = (
{
closed = 1;
nodes = (
"2001 1608 LINE",
"1558 -73 LINE",
"1395 -73 LINE",
"1096 844 LINE SMOOTH",
"1057 963 OFFCURVE",
"1027 1085 OFFCURVE",
"1007 1211 CURVE",
"999 1211 LINE",
"978 1082 OFFCURVE",
"949 960 OFFCURVE",
"911 844 CURVE SMOOTH",
"612 -73 LINE",
"448 -73 LINE",
"6 1608 LINE",
"205 1608 LINE",
"442 654 LINE SMOOTH",
"471 537 OFFCURVE",
"503 395 OFFCURVE",
"538 228 CURVE",
"547 228 LINE",
"573 353 OFFCURVE",
"609 490 OFFCURVE",
"655 637 CURVE SMOOTH",
"917 1475 LINE",
"1089 1475 LINE",
"1352 637 LINE SMOOTH",
"1396 496 OFFCURVE",
"1432 359 OFFCURVE",
"1460 228 CURVE",
"1468 228 LINE",
"1497 367 OFFCURVE",
"1529 509 OFFCURVE",
"1565 654 CURVE SMOOTH",
"1802 1608 LINE"
);
}
);
};
layerId = "4E782664-D0D5-4FED-AFC2-B9212141A2ED";
paths = (
{
closed = 1;
nodes = (
"903 1800 LINE",
"1104 1800 LINE",
"1368 1585 LINE",
"1202 1585 LINE",
"1003 1704 LINE",
"805 1585 LINE",
"639 1585 LINE"
);
},
{
closed = 1;
nodes = (
"2001 1488 LINE",
"1558 -73 LINE",
"1395 -73 LINE",
"1101 774 LINE SMOOTH",
"1065 877 OFFCURVE",
"1027 986 OFFCURVE",
"1007 1091 CURVE",
"999 1091 LINE",
"978 983 OFFCURVE",
"941 874 OFFCURVE",
"906 774 CURVE SMOOTH",
"612 -73 LINE",
"448 -73 LINE",
"6 1488 LINE",
"205 1488 LINE",
"442 614 LINE SMOOTH",
"471 507 OFFCURVE",
"503 379 OFFCURVE",
"538 228 CURVE",
"547 228 LINE",
"573 341 OFFCURVE",
"620 461 OFFCURVE",
"665 597 CURVE SMOOTH",
"917 1355 LINE",
"1089 1355 LINE",
"1342 597 LINE SMOOTH",
"1386 466 OFFCURVE",
"1432 346 OFFCURVE",
"1460 228 CURVE",
"1468 228 LINE",
"1497 354 OFFCURVE",
"1529 482 OFFCURVE",
"1565 614 CURVE SMOOTH",
"1802 1488 LINE"
);
}
);
vertWidth = 2048;
width = 2007;
}
);
unicode = 0174;
},
{
color = 3;
glyphname = Ycircumflex;
lastChange = "2022-04-07 18:21:41 +0000";
layers = (
{
background = {
paths = (
{
closed = 1;
nodes = (
"23 1488 LINE",
"256 1488 LINE",
"738 757 LINE",
"1219 1488 LINE",
"1452 1488 LINE",
"830 599 LINE",
"830 -51 LINE",
"646 -51 LINE",
"646 599 LINE"
);
}
);
};
layerId = "4E782664-D0D5-4FED-AFC2-B9212141A2ED";
paths = (
{
closed = 1;
nodes = (
"638 1800 LINE",
"839 1800 LINE",
"1103 1585 LINE",
"937 1585 LINE",
"738 1704 LINE",
"540 1585 LINE",
"374 1585 LINE"
);
},
{
closed = 1;
nodes = (
"23 1488 LINE",
"256 1488 LINE",
"738 757 LINE",
"1219 1488 LINE",
"1452 1488 LINE",
"830 599 LINE",
"830 -51 LINE",
"646 -51 LINE",
"646 599 LINE"
);
}
);
vertWidth = 2048;
width = 1475;
}
);
unicode = 0176;
},
{
color = 3;
glyphname = Ydieresis;
lastChange = "2022-04-07 18:21:41 +0000";
layers = (
{
layerId = "4E782664-D0D5-4FED-AFC2-B9212141A2ED";
paths = (
{
closed = 1;
nodes = (
"418 1800 LINE",
"639 1800 LINE",
"639 1605 LINE",
"418 1605 LINE"
);
},
{
closed = 1;
nodes = (
"838 1800 LINE",
"1059 1800 LINE",
"1059 1605 LINE",
"838 1605 LINE"
);
},
{
closed = 1;
nodes = (
"23 1488 LINE",
"256 1488 LINE",
"738 757 LINE",
"1219 1488 LINE",
"1452 1488 LINE",
"830 599 LINE",
"830 -51 LINE",
"646 -51 LINE",
"646 599 LINE"
);
}
);
vertWidth = 2048;
width = 1475;
}
);
unicode = 0178;
},
{
color = 3;
glyphname = cdotaccent;
lastChange = "2022-04-07 18:21:41 +0000";
layers = (
{
layerId = "4E782664-D0D5-4FED-AFC2-B9212141A2ED";
paths = (
{
closed = 1;
nodes = (
"586 1569 LINE",
"815 1569 LINE",
"815 1340 LINE",
"586 1340 LINE"
);
},
{
closed = 1;
nodes = (
"1231 143 LINE",
"1106 -10 OFFCURVE",
"933 -86 OFFCURVE",
"714 -86 CURVE SMOOTH",
"541 -86 OFFCURVE",
"400 -33 OFFCURVE",
"291 73 CURVE SMOOTH",
"171 190 OFFCURVE",
"111 349 OFFCURVE",
"111 550 CURVE SMOOTH",
"111 700 OFFCURVE",
"148 830 OFFCURVE",
"223 940 CURVE SMOOTH",
"292 1041 OFFCURVE",
"383 1113 OFFCURVE",
"498 1154 CURVE SMOOTH",
"561 1177 OFFCURVE",
"629 1188 OFFCURVE",
"701 1188 CURVE SMOOTH",
"884 1188 OFFCURVE",
"1043 1130 OFFCURVE",
"1178 1014 CURVE",
"1080 877 LINE",
"972 979 OFFCURVE",
"849 1030 OFFCURVE",
"712 1030 CURVE SMOOTH",
"579 1030 OFFCURVE",
"474 978 OFFCURVE",
"399 874 CURVE SMOOTH",
"337 789 OFFCURVE",
"306 682 OFFCURVE",
"306 551 CURVE SMOOTH",
"306 446 OFFCURVE",
"327 355 OFFCURVE",
"370 279 CURVE SMOOTH",
"416 198 OFFCURVE",
"480 140 OFFCURVE",
"563 105 CURVE SMOOTH",
"612 84 OFFCURVE",
"666 74 OFFCURVE",
"723 74 CURVE SMOOTH",
"879 74 OFFCURVE",
"1009 138 OFFCURVE",
"1112 266 CURVE"
);
}
);
vertWidth = 2048;
width = 1311;
}
);
unicode = 010B;
},
{
color = 3;
glyphname = ebreve;
lastChange = "2022-04-07 18:21:41 +0000";
layers = (
{
layerId = "4E782664-D0D5-4FED-AFC2-B9212141A2ED";
paths = (
{
closed = 1;
nodes = (
"1040 1608 LINE",
"997 1427 OFFCURVE",
"886 1336 OFFCURVE",
"707 1336 CURVE SMOOTH",
"528 1336 OFFCURVE",
"417 1427 OFFCURVE",
"376 1608 CURVE",
"505 1608 LINE",
"530 1510 OFFCURVE",
"598 1461 OFFCURVE",
"708 1461 CURVE SMOOTH",
"817 1461 OFFCURVE",
"885 1510 OFFCURVE",
"911 1608 CURVE"
);
},
{
closed = 1;
nodes = (
"1257 533 LINE",
"326 533 LINE",
"329 406 OFFCURVE",
"358 305 OFFCURVE",
"415 230 CURVE SMOOTH",
"492 128 OFFCURVE",
"603 77 OFFCURVE",
"749 77 CURVE SMOOTH",
"903 77 OFFCURVE",
"1032 144 OFFCURVE",
"1137 277 CURVE",
"1253 154 LINE",
"1120 -5 OFFCURVE",
"949 -85 OFFCURVE",
"740 -85 CURVE SMOOTH",
"531 -85 OFFCURVE",
"371 -14 OFFCURVE",
"259 128 CURVE SMOOTH",
"172 238 OFFCURVE",
"129 376 OFFCURVE",
"129 542 CURVE SMOOTH",
"129 685 OFFCURVE",
"160 809 OFFCURVE",
"223 915 CURVE SMOOTH",
"284 1018 OFFCURVE",
"368 1093 OFFCURVE",
"473 1140 CURVE SMOOTH",
"546 1173 OFFCURVE",
"624 1190 OFFCURVE",
"707 1190 CURVE SMOOTH",
"899 1190 OFFCURVE",
"1047 1113 OFFCURVE",
"1150 960 CURVE SMOOTH",
"1221 854 OFFCURVE",
"1257 729 OFFCURVE",
"1257 586 CURVE SMOOTH"
);
},
{
closed = 1;
nodes = (
"1061 676 LINE",
"1053 775 OFFCURVE",
"1022 855 OFFCURVE",
"967 918 CURVE SMOOTH",
"899 997 OFFCURVE",
"811 1036 OFFCURVE",
"703 1036 CURVE SMOOTH",
"624 1036 OFFCURVE",
"553 1011 OFFCURVE",
"488 961 CURVE SMOOTH",
"403 896 OFFCURVE",
"351 801 OFFCURVE",
"334 676 CURVE"
);
}
);
vertWidth = 2048;
width = 1413;
}
);
unicode = 0115;
},
{
color = 3;
glyphname = edotaccent;
lastChange = "2022-04-07 18:21:41 +0000";
layers = (
{
layerId = "4E782664-D0D5-4FED-AFC2-B9212141A2ED";
paths = (
{
closed = 1;
nodes = (
"593 1569 LINE",
"822 1569 LINE",
"822 1340 LINE",
"593 1340 LINE"
);
},
{
closed = 1;
nodes = (
"1257 533 LINE",
"326 533 LINE",
"329 406 OFFCURVE",
"358 305 OFFCURVE",
"415 230 CURVE SMOOTH",
"492 128 OFFCURVE",
"603 77 OFFCURVE",
"749 77 CURVE SMOOTH",
"903 77 OFFCURVE",
"1032 144 OFFCURVE",
"1137 277 CURVE",
"1253 154 LINE",
"1120 -5 OFFCURVE",
"949 -85 OFFCURVE",
"740 -85 CURVE SMOOTH",
"531 -85 OFFCURVE",
"371 -14 OFFCURVE",
"259 128 CURVE SMOOTH",
"172 238 OFFCURVE",
"129 376 OFFCURVE",
"129 542 CURVE SMOOTH",
"129 685 OFFCURVE",
"160 809 OFFCURVE",
"223 915 CURVE SMOOTH",
"284 1018 OFFCURVE",
"368 1093 OFFCURVE",
"473 1140 CURVE SMOOTH",
"546 1173 OFFCURVE",
"624 1190 OFFCURVE",
"707 1190 CURVE SMOOTH",
"899 1190 OFFCURVE",
"1047 1113 OFFCURVE",
"1150 960 CURVE SMOOTH",
"1221 854 OFFCURVE",
"1257 729 OFFCURVE",
"1257 586 CURVE SMOOTH"
);
},
{
closed = 1;
nodes = (
"1061 676 LINE",
"1053 775 OFFCURVE",
"1022 855 OFFCURVE",
"967 918 CURVE SMOOTH",
"899 997 OFFCURVE",
"811 1036 OFFCURVE",
"703 1036 CURVE SMOOTH",
"624 1036 OFFCURVE",
"553 1011 OFFCURVE",
"488 961 CURVE SMOOTH",
"403 896 OFFCURVE",
"351 801 OFFCURVE",
"334 676 CURVE"
);
}
);
vertWidth = 2048;
width = 1413;
}
);
unicode = 0117;
},
{
color = 3;
glyphname = gbreve;
lastChange = "2022-04-07 18:21:41 +0000";
layers = (
{
layerId = "4E782664-D0D5-4FED-AFC2-B9212141A2ED";
paths = (
{
closed = 1;
nodes = (
"990 1608 LINE",
"947 1427 OFFCURVE",
"836 1336 OFFCURVE",
"657 1336 CURVE SMOOTH",
"478 1336 OFFCURVE",
"367 1427 OFFCURVE",
"326 1608 CURVE",
"455 1608 LINE",
"480 1510 OFFCURVE",
"548 1461 OFFCURVE",
"658 1461 CURVE SMOOTH",
"767 1461 OFFCURVE",
"835 1510 OFFCURVE",
"861 1608 CURVE"
);
},
{
closed = 1;
nodes = (
"1190 1157 LINE",
"1190 274 LINE SMOOTH",
"1190 104 OFFCURVE",
"1147 -24 OFFCURVE",
"1061 -109 CURVE SMOOTH",
"970 -199 OFFCURVE",
"839 -244 OFFCURVE",
"666 -244 CURVE SMOOTH",
"469 -244 OFFCURVE",
"303 -192 OFFCURVE",
"168 -88 CURVE",
"259 47 LINE",
"366 -43 OFFCURVE",
"502 -88 OFFCURVE",
"667 -88 CURVE SMOOTH",
"806 -88 OFFCURVE",
"904 -41 OFFCURVE",
"960 52 CURVE SMOOTH",
"991 103 OFFCURVE",
"1006 164 OFFCURVE",
"1006 236 CURVE SMOOTH",
"1006 373 LINE",
"971 326 OFFCURVE",
"924 289 OFFCURVE",
"866 261 CURVE SMOOTH",
"796 228 OFFCURVE",
"725 211 OFFCURVE",
"654 211 CURVE SMOOTH",
"541 211 OFFCURVE",
"440 240 OFFCURVE",
"350 299 CURVE SMOOTH",
"206 392 OFFCURVE",
"134 525 OFFCURVE",
"134 698 CURVE SMOOTH",
"134 851 OFFCURVE",
"196 976 OFFCURVE",
"320 1073 CURVE SMOOTH",
"418 1148 OFFCURVE",
"530 1186 OFFCURVE",
"657 1186 CURVE SMOOTH",
"796 1186 OFFCURVE",
"915 1141 OFFCURVE",
"1014 1051 CURVE",
"1045 1157 LINE"
);
},
{
closed = 1;
nodes = (
"1006 848 LINE",
"932 969 OFFCURVE",
"820 1030 OFFCURVE",
"670 1030 CURVE SMOOTH",
"599 1030 OFFCURVE",
"536 1013 OFFCURVE",
"481 980 CURVE SMOOTH",
"380 919 OFFCURVE",
"329 825 OFFCURVE",
"329 699 CURVE SMOOTH",
"329 616 OFFCURVE",
"355 544 OFFCURVE",
"407 483 CURVE SMOOTH",
"472 406 OFFCURVE",
"558 367 OFFCURVE",
"667 367 CURVE SMOOTH",
"780 367 OFFCURVE",
"875 407 OFFCURVE",
"950 486 CURVE SMOOTH",
"971 507 OFFCURVE",
"989 533 OFFCURVE",
"1006 563 CURVE"
);
}
);
vertWidth = 2048;
width = 1372;
}
);
unicode = 011F;
},
{
color = 3;
glyphname = gcommaaccent;
lastChange = "2022-04-07 18:21:41 +0000";
layers = (
{
background = {
paths = (
{
closed = 1;
nodes = (
"397 1569 LINE",
"626 1569 LINE",
"626 1340 LINE",
"397 1340 LINE"
);
}
);
};
layerId = "4E782664-D0D5-4FED-AFC2-B9212141A2ED";
paths = (
{
closed = 1;
nodes = (
"786 1340 LINE",
"520 1340 LINE",
"520 1420 LINE SMOOTH",
"520 1524 OFFCURVE",
"544 1610 OFFCURVE",
"594 1676 CURVE",
"731 1676 LINE",
"699 1626 OFFCURVE",
"681 1570 OFFCURVE",
"675 1510 CURVE",
"786 1510 LINE"
);
},
{
closed = 1;
nodes = (
"1190 1157 LINE",
"1190 274 LINE SMOOTH",
"1190 104 OFFCURVE",
"1147 -24 OFFCURVE",
"1061 -109 CURVE SMOOTH",
"970 -199 OFFCURVE",
"839 -244 OFFCURVE",
"666 -244 CURVE SMOOTH",
"469 -244 OFFCURVE",
"303 -192 OFFCURVE",
"168 -88 CURVE",
"259 47 LINE",
"366 -43 OFFCURVE",
"502 -88 OFFCURVE",
"667 -88 CURVE SMOOTH",
"806 -88 OFFCURVE",
"904 -41 OFFCURVE",
"960 52 CURVE SMOOTH",
"991 103 OFFCURVE",
"1006 164 OFFCURVE",
"1006 236 CURVE SMOOTH",
"1006 373 LINE",
"971 326 OFFCURVE",
"924 289 OFFCURVE",
"866 261 CURVE SMOOTH",
"796 228 OFFCURVE",
"725 211 OFFCURVE",
"654 211 CURVE SMOOTH",
"541 211 OFFCURVE",
"440 240 OFFCURVE",
"350 299 CURVE SMOOTH",
"206 392 OFFCURVE",
"134 525 OFFCURVE",
"134 698 CURVE SMOOTH",
"134 851 OFFCURVE",
"196 976 OFFCURVE",
"320 1073 CURVE SMOOTH",
"418 1148 OFFCURVE",
"530 1186 OFFCURVE",
"657 1186 CURVE SMOOTH",
"796 1186 OFFCURVE",
"915 1141 OFFCURVE",
"1014 1051 CURVE",
"1045 1157 LINE"
);
},
{
closed = 1;
nodes = (
"1006 848 LINE",
"932 969 OFFCURVE",
"820 1030 OFFCURVE",
"670 1030 CURVE SMOOTH",
"599 1030 OFFCURVE",
"536 1013 OFFCURVE",
"481 980 CURVE SMOOTH",
"380 919 OFFCURVE",
"329 825 OFFCURVE",
"329 699 CURVE SMOOTH",
"329 616 OFFCURVE",
"355 544 OFFCURVE",
"407 483 CURVE SMOOTH",
"472 406 OFFCURVE",
"558 367 OFFCURVE",
"667 367 CURVE SMOOTH",
"780 367 OFFCURVE",
"875 407 OFFCURVE",
"950 486 CURVE SMOOTH",
"971 507 OFFCURVE",
"989 533 OFFCURVE",
"1006 563 CURVE"
);
}
);
vertWidth = 2048;
width = 1372;
}
);
unicode = 0123;
},
{
color = 3;
glyphname = gdotaccent;
lastChange = "2022-04-07 18:21:41 +0000";
layers = (
{
layerId = "4E782664-D0D5-4FED-AFC2-B9212141A2ED";
paths = (
{
closed = 1;
nodes = (
"543 1569 LINE",
"772 1569 LINE",
"772 1340 LINE",
"543 1340 LINE"
);
},
{
closed = 1;
nodes = (
"1190 1157 LINE",
"1190 274 LINE SMOOTH",
"1190 104 OFFCURVE",
"1147 -24 OFFCURVE",
"1061 -109 CURVE SMOOTH",
"970 -199 OFFCURVE",
"839 -244 OFFCURVE",
"666 -244 CURVE SMOOTH",
"469 -244 OFFCURVE",
"303 -192 OFFCURVE",
"168 -88 CURVE",
"259 47 LINE",
"366 -43 OFFCURVE",
"502 -88 OFFCURVE",
"667 -88 CURVE SMOOTH",
"806 -88 OFFCURVE",
"904 -41 OFFCURVE",
"960 52 CURVE SMOOTH",
"991 103 OFFCURVE",
"1006 164 OFFCURVE",
"1006 236 CURVE SMOOTH",
"1006 373 LINE",
"971 326 OFFCURVE",
"924 289 OFFCURVE",
"866 261 CURVE SMOOTH",
"796 228 OFFCURVE",
"725 211 OFFCURVE",
"654 211 CURVE SMOOTH",
"541 211 OFFCURVE",
"440 240 OFFCURVE",
"350 299 CURVE SMOOTH",
"206 392 OFFCURVE",
"134 525 OFFCURVE",
"134 698 CURVE SMOOTH",
"134 851 OFFCURVE",
"196 976 OFFCURVE",
"320 1073 CURVE SMOOTH",
"418 1148 OFFCURVE",
"530 1186 OFFCURVE",
"657 1186 CURVE SMOOTH",
"796 1186 OFFCURVE",
"915 1141 OFFCURVE",
"1014 1051 CURVE",
"1045 1157 LINE"
);
},
{
closed = 1;
nodes = (
"1006 848 LINE",
"932 969 OFFCURVE",
"820 1030 OFFCURVE",
"670 1030 CURVE SMOOTH",
"599 1030 OFFCURVE",
"536 1013 OFFCURVE",
"481 980 CURVE SMOOTH",
"380 919 OFFCURVE",
"329 825 OFFCURVE",
"329 699 CURVE SMOOTH",
"329 616 OFFCURVE",
"355 544 OFFCURVE",
"407 483 CURVE SMOOTH",
"472 406 OFFCURVE",
"558 367 OFFCURVE",
"667 367 CURVE SMOOTH",
"780 367 OFFCURVE",
"875 407 OFFCURVE",
"950 486 CURVE SMOOTH",
"971 507 OFFCURVE",
"989 533 OFFCURVE",
"1006 563 CURVE"
);
}
);
vertWidth = 2048;
width = 1372;
}
);
unicode = 0121;
},
{
glyphname = idotless;
lastChange = "2022-03-08 04:05:42 +0000";
layers = (
{
layerId = "4E782664-D0D5-4FED-AFC2-B9212141A2ED";
paths = (
{
closed = 1;
nodes = (
"233 1157 LINE",
"421 1157 LINE",
"421 -51 LINE",
"233 -51 LINE"
);
}
);
vertWidth = 2048;
width = 655;
}
);
unicode = 0131;
},
{
color = 3;
glyphname = ibreve;
lastChange = "2022-04-07 18:21:41 +0000";
layers = (
{
layerId = "4E782664-D0D5-4FED-AFC2-B9212141A2ED";
paths = (
{
closed = 1;
nodes = (
"649 1608 LINE",
"606 1427 OFFCURVE",
"495 1336 OFFCURVE",
"316 1336 CURVE SMOOTH",
"137 1336 OFFCURVE",
"26 1427 OFFCURVE",
"-15 1608 CURVE",
"114 1608 LINE",
"139 1510 OFFCURVE",
"207 1461 OFFCURVE",
"317 1461 CURVE SMOOTH",
"426 1461 OFFCURVE",
"494 1510 OFFCURVE",
"520 1608 CURVE"
);
},
{
closed = 1;
nodes = (
"222 1157 LINE",
"410 1157 LINE",
"410 -51 LINE",
"222 -51 LINE"
);
}
);
vertWidth = 2048;
width = 633;
}
);
unicode = 012D;
},
{
color = 3;
glyphname = iogonek;
lastChange = "2022-04-07 18:21:41 +0000";
layers = (
{
background = {
paths = (
{
closed = 1;
nodes = (
"205 1415 LINE",
"430 1415 LINE",
"430 1638 LINE",
"205 1638 LINE"
);
},
{
closed = 1;
nodes = (
"275 -162 OFFCURVE",
"252 -142 OFFCURVE",
"252 -102 CURVE SMOOTH",
"252 -54 OFFCURVE",
"301 -4 OFFCURVE",
"399 49 CURVE",
"410 49 LINE",
"410 1157 LINE",
"222 1157 LINE",
"222 49 LINE",
"229 49 LINE",
"141 -7 OFFCURVE",
"97 -64 OFFCURVE",
"97 -120 CURVE SMOOTH",
"97 -213 OFFCURVE",
"186 -244 OFFCURVE",
"281 -244 CURVE SMOOTH",
"351 -244 OFFCURVE",
"410 -234 OFFCURVE",
"458 -213 CURVE",
"458 -133 LINE",
"409 -153 OFFCURVE",
"362 -162 OFFCURVE",
"320 -162 CURVE SMOOTH"
);
}
);
};
layerId = "4E782664-D0D5-4FED-AFC2-B9212141A2ED";
paths = (
{
closed = 1;
nodes = (
"186 -244 OFFCURVE",
"97 -213 OFFCURVE",
"97 -120 CURVE SMOOTH",
"97 -64 OFFCURVE",
"141 -7 OFFCURVE",
"229 49 CURVE",
"222 49 LINE",
"222 1157 LINE",
"410 1157 LINE",
"410 49 LINE",
"399 49 LINE",
"301 -4 OFFCURVE",
"252 -54 OFFCURVE",
"252 -102 CURVE SMOOTH",
"252 -142 OFFCURVE",
"275 -162 OFFCURVE",
"320 -162 CURVE SMOOTH",
"362 -162 OFFCURVE",
"409 -153 OFFCURVE",
"458 -133 CURVE",
"458 -213 LINE",
"410 -234 OFFCURVE",
"351 -244 OFFCURVE",
"281 -244 CURVE SMOOTH"
);
},
{
closed = 1;
nodes = (
"205 1638 LINE",
"430 1638 LINE",
"430 1415 LINE",
"205 1415 LINE"
);
}
);
vertWidth = 2048;
width = 655;
}
);
unicode = 012F;
},
{
color = 3;
glyphname = itilde;
lastChange = "2022-04-07 18:21:41 +0000";
layers = (
{
background = {
paths = (
{
closed = 1;
nodes = (
"233 1157 LINE",
"399 1157 LINE",
"399 -51 LINE",
"233 -51 LINE"
);
},
{
closed = 1;
nodes = (
"649 1608 LINE",
"606 1427 OFFCURVE",
"495 1336 OFFCURVE",
"316 1336 CURVE SMOOTH",
"137 1336 OFFCURVE",
"26 1427 OFFCURVE",
"-15 1608 CURVE",
"114 1608 LINE",
"139 1510 OFFCURVE",
"207 1461 OFFCURVE",
"317 1461 CURVE SMOOTH",
"426 1461 OFFCURVE",
"494 1510 OFFCURVE",
"520 1608 CURVE"
);
}
);
};
layerId = "4E782664-D0D5-4FED-AFC2-B9212141A2ED";
paths = (
{
closed = 1;
nodes = (
"659 1424 LINE",
"620 1381 OFFCURVE",
"567 1360 OFFCURVE",
"499 1360 CURVE SMOOTH",
"455 1360 OFFCURVE",
"395 1376 OFFCURVE",
"319 1407 CURVE SMOOTH",
"256 1433 OFFCURVE",
"202 1446 OFFCURVE",
"157 1446 CURVE SMOOTH",
"96 1446 OFFCURVE",
"41 1428 OFFCURVE",
"-8 1393 CURVE",
"-8 1514 LINE",
"33 1556 OFFCURVE",
"87 1577 OFFCURVE",
"154 1577 CURVE SMOOTH",
"195 1577 OFFCURVE",
"255 1561 OFFCURVE",
"334 1528 CURVE SMOOTH",
"392 1503 OFFCURVE",
"446 1491 OFFCURVE",
"495 1491 CURVE SMOOTH",
"558 1491 OFFCURVE",
"613 1508 OFFCURVE",
"659 1542 CURVE"
);
},
{
closed = 1;
nodes = (
"222 1157 LINE",
"410 1157 LINE",
"410 -51 LINE",
"222 -51 LINE"
);
}
);
vertWidth = 2048;
width = 655;
}
);
unicode = 0129;
},
{
color = 3;
glyphname = ij;
lastChange = "2022-04-07 18:21:41 +0000";
layers = (
{
layerId = "4E782664-D0D5-4FED-AFC2-B9212141A2ED";
paths = (
{
closed = 1;
nodes = (
"216 1157 LINE",
"404 1157 LINE",
"404 49 LINE",
"216 49 LINE"
);
},
{
closed = 1;
nodes = (
"196 1638 LINE",
"421 1638 LINE",
"421 1415 LINE",
"196 1415 LINE"
);
},
{
closed = 1;
nodes = (
"700 1638 LINE",
"923 1638 LINE",
"923 1415 LINE",
"700 1415 LINE"
);
},
{
closed = 1;
nodes = (
"719 1157 LINE",
"905 1157 LINE",
"905 260 LINE SMOOTH",
"905 -92 OFFCURVE",
"778 -225 OFFCURVE",
"374 -244 CURVE",
"311 -86 LINE",
"618 -77 OFFCURVE",
"719 7 OFFCURVE",
"719 262 CURVE SMOOTH"
);
}
);
vertWidth = 2048;
width = 1134;
}
);
unicode = 0133;
},
{
color = 3;
glyphname = kcommaaccent;
lastChange = "2022-04-07 18:21:41 +0000";
layers = (
{
background = {
paths = (
{
closed = 1;
nodes = (
"946 1157 LINE",
"387 683 LINE",
"387 1700 LINE",
"201 1700 LINE",
"201 69 LINE",
"387 69 LINE",
"387 470 LINE",
"585 639 LINE",
"997 69 LINE",
"1237 69 LINE",
"714 750 LINE",
"1190 1157 LINE"
);
},
{
closed = 1;
nodes = (
"645 -172 OFFCURVE",
"630 -211 OFFCURVE",
"604 -246 CURVE",
"741 -246 LINE",
"784 -193 OFFCURVE",
"805 -124 OFFCURVE",
"805 -40 CURVE SMOOTH",
"805 0 LINE",
"529 0 LINE",
"529 -130 LINE",
"650 -130 LINE"
);
}
);
};
layerId = "4E782664-D0D5-4FED-AFC2-B9212141A2ED";
paths = (
{
closed = 1;
nodes = (
"201 1700 LINE",
"387 1700 LINE",
"387 683 LINE",
"946 1157 LINE",
"1190 1157 LINE",
"714 750 LINE",
"1237 69 LINE",
"997 69 LINE",
"585 639 LINE",
"387 470 LINE",
"387 69 LINE",
"201 69 LINE"
);
},
{
closed = 1;
nodes = (
"630 -211 OFFCURVE",
"645 -172 OFFCURVE",
"650 -130 CURVE",
"529 -130 LINE",
"529 0 LINE",
"805 0 LINE",
"805 -40 LINE SMOOTH",
"805 -124 OFFCURVE",
"784 -193 OFFCURVE",
"741 -246 CURVE",
"604 -246 LINE"
);
}
);
vertWidth = 2048;
width = 1290;
}
);
unicode = 0137;
},
{
color = 3;
glyphname = kgreenlandic;
lastChange = "2022-04-07 18:21:41 +0000";
layers = (
{
layerId = "4E782664-D0D5-4FED-AFC2-B9212141A2ED";
paths = (
{
closed = 1;
nodes = (
"201 1157 LINE",
"387 1157 LINE",
"387 629 LINE",
"946 1157 LINE",
"1190 1157 LINE",
"708 698 LINE",
"1237 -51 LINE",
"997 -51 LINE",
"582 588 LINE",
"387 410 LINE",
"387 -51 LINE",
"201 -51 LINE"
);
}
);
vertWidth = 2048;
width = 1290;
}
);
unicode = 0138;
},
{
color = 3;
glyphname = lcommaaccent;
lastChange = "2022-04-07 18:21:41 +0000";
layers = (
{
background = {
paths = (
{
closed = 1;
nodes = (
"227 1700 LINE",
"393 1700 LINE",
"393 259 LINE SMOOTH",
"393 234 OFFCURVE",
"405 222 OFFCURVE",
"430 222 CURVE SMOOTH",
"577 222 LINE",
"559 69 LINE",
"391 69 LINE SMOOTH",
"282 69 OFFCURVE",
"227 125 OFFCURVE",
"227 237 CURVE SMOOTH"
);
},
{
closed = 1;
nodes = (
"223 0 LINE",
"499 0 LINE",
"499 -40 LINE SMOOTH",
"499 -124 OFFCURVE",
"478 -193 OFFCURVE",
"435 -246 CURVE",
"298 -246 LINE",
"324 -211 OFFCURVE",
"339 -172 OFFCURVE",
"344 -130 CURVE",
"223 -130 LINE"
);
}
);
};
layerId = "4E782664-D0D5-4FED-AFC2-B9212141A2ED";
paths = (
{
closed = 1;
nodes = (
"223 0 LINE",
"499 0 LINE",
"499 -40 LINE SMOOTH",
"499 -124 OFFCURVE",
"478 -193 OFFCURVE",
"435 -246 CURVE",
"298 -246 LINE",
"324 -211 OFFCURVE",
"339 -172 OFFCURVE",
"344 -130 CURVE",
"223 -130 LINE"
);
},
{
closed = 1;
nodes = (
"225 1700 LINE",
"413 1700 LINE",
"413 261 LINE SMOOTH",
"413 235 OFFCURVE",
"425 222 OFFCURVE",
"450 222 CURVE SMOOTH",
"610 222 LINE",
"589 69 LINE",
"399 69 LINE SMOOTH",
"283 69 OFFCURVE",
"225 126 OFFCURVE",
"225 239 CURVE SMOOTH"
);
}
);
vertWidth = 2048;
width = 676;
}
);
unicode = 013C;
},
{
color = 3;
glyphname = ldot;
lastChange = "2022-04-07 18:21:41 +0000";
layers = (
{
layerId = "4E782664-D0D5-4FED-AFC2-B9212141A2ED";
paths = (
{
closed = 1;
nodes = (
"772 777 LINE",
"543 777 LINE",
"543 980 LINE",
"772 980 LINE"
);
},
{
closed = 1;
nodes = (
"225 1700 LINE",
"413 1700 LINE",
"413 141 LINE SMOOTH",
"413 115 OFFCURVE",
"425 102 OFFCURVE",
"450 102 CURVE SMOOTH",
"610 102 LINE",
"589 -51 LINE",
"399 -51 LINE SMOOTH",
"283 -51 OFFCURVE",
"225 6 OFFCURVE",
"225 119 CURVE SMOOTH"
);
}
);
vertWidth = 2048;
width = 676;
}
);
unicode = 0140;
},
{
color = 3;
glyphname = napostrophe;
lastChange = "2022-04-07 18:21:41 +0000";
layers = (
{
layerId = "4E782664-D0D5-4FED-AFC2-B9212141A2ED";
paths = (
{
closed = 1;
nodes = (
"197 1751 LINE",
"406 1751 LINE",
"406 1631 LINE SMOOTH",
"406 1503 OFFCURVE",
"363 1393 OFFCURVE",
"278 1302 CURVE",
"185 1302 LINE",
"248 1377 OFFCURVE",
"286 1457 OFFCURVE",
"297 1542 CURVE",
"197 1542 LINE"
);
},
{
closed = 1;
nodes = (
"379 1157 LINE",
"379 940 LINE",
"440 1020 OFFCURVE",
"511 1081 OFFCURVE",
"591 1122 CURVE SMOOTH",
"665 1161 OFFCURVE",
"740 1180 OFFCURVE",
"816 1180 CURVE SMOOTH",
"916 1180 OFFCURVE",
"1002 1155 OFFCURVE",
"1073 1106 CURVE SMOOTH",
"1181 1031 OFFCURVE",
"1235 900 OFFCURVE",
"1235 713 CURVE SMOOTH",
"1235 -51 LINE",
"1049 -51 LINE",
"1049 690 LINE SMOOTH",
"1049 909 OFFCURVE",
"963 1018 OFFCURVE",
"792 1018 CURVE SMOOTH",
"726 1018 OFFCURVE",
"662 999 OFFCURVE",
"600 962 CURVE SMOOTH",
"507 907 OFFCURVE",
"435 826 OFFCURVE",
"385 717 CURVE",
"385 -51 LINE",
"197 -51 LINE",
"197 1157 LINE"
);
}
);
vertWidth = 2048;
width = 1434;
}
);
unicode = 0149;
},
{
color = 3;
glyphname = ncommaaccent;
lastChange = "2022-04-07 18:21:41 +0000";
layers = (
{
background = {
paths = (
{
closed = 1;
nodes = (
"379 1157 LINE",
"379 940 LINE",
"440 1020 OFFCURVE",
"511 1081 OFFCURVE",
"591 1122 CURVE SMOOTH",
"665 1161 OFFCURVE",
"740 1180 OFFCURVE",
"816 1180 CURVE SMOOTH",
"916 1180 OFFCURVE",
"1002 1155 OFFCURVE",
"1073 1106 CURVE SMOOTH",
"1181 1031 OFFCURVE",
"1235 900 OFFCURVE",
"1235 713 CURVE SMOOTH",
"1235 69 LINE",
"1049 69 LINE",
"1049 690 LINE SMOOTH",
"1049 909 OFFCURVE",
"963 1018 OFFCURVE",
"792 1018 CURVE SMOOTH",
"726 1018 OFFCURVE",
"662 999 OFFCURVE",
"600 962 CURVE SMOOTH",
"507 907 OFFCURVE",
"435 826 OFFCURVE",
"385 717 CURVE",
"385 69 LINE",
"197 69 LINE",
"197 1157 LINE"
);
}
);
};
layerId = "4E782664-D0D5-4FED-AFC2-B9212141A2ED";
paths = (
{
closed = 1;
nodes = (
"569 0 LINE",
"845 0 LINE",
"845 -40 LINE SMOOTH",
"845 -124 OFFCURVE",
"824 -193 OFFCURVE",
"781 -246 CURVE",
"644 -246 LINE",
"670 -211 OFFCURVE",
"685 -172 OFFCURVE",
"690 -130 CURVE",
"569 -130 LINE"
);
},
{
closed = 1;
nodes = (
"379 1157 LINE",
"379 940 LINE",
"440 1020 OFFCURVE",
"511 1081 OFFCURVE",
"591 1122 CURVE SMOOTH",
"665 1161 OFFCURVE",
"740 1180 OFFCURVE",
"816 1180 CURVE SMOOTH",
"916 1180 OFFCURVE",
"1002 1155 OFFCURVE",
"1073 1106 CURVE SMOOTH",
"1181 1031 OFFCURVE",
"1235 900 OFFCURVE",
"1235 713 CURVE SMOOTH",
"1235 69 LINE",
"1049 69 LINE",
"1049 690 LINE SMOOTH",
"1049 909 OFFCURVE",
"963 1018 OFFCURVE",
"792 1018 CURVE SMOOTH",
"726 1018 OFFCURVE",
"662 999 OFFCURVE",
"600 962 CURVE SMOOTH",
"507 907 OFFCURVE",
"435 826 OFFCURVE",
"385 717 CURVE",
"385 69 LINE",
"197 69 LINE",
"197 1157 LINE"
);
}
);
vertWidth = 2048;
width = 1434;
}
);
unicode = 0146;
},
{
color = 3;
glyphname = obreve;
lastChange = "2022-04-07 18:21:41 +0000";
layers = (
{
layerId = "4E782664-D0D5-4FED-AFC2-B9212141A2ED";
paths = (
{
closed = 1;
nodes = (
"1032 1608 LINE",
"989 1427 OFFCURVE",
"878 1336 OFFCURVE",
"699 1336 CURVE SMOOTH",
"520 1336 OFFCURVE",
"409 1427 OFFCURVE",
"368 1608 CURVE",
"497 1608 LINE",
"522 1510 OFFCURVE",
"590 1461 OFFCURVE",
"700 1461 CURVE SMOOTH",
"809 1461 OFFCURVE",
"877 1510 OFFCURVE",
"903 1608 CURVE"
);
},
{
closed = 1;
nodes = (
"864 1188 OFFCURVE",
"1003 1132 OFFCURVE",
"1117 1020 CURVE SMOOTH",
"1238 902 OFFCURVE",
"1298 747 OFFCURVE",
"1298 554 CURVE SMOOTH",
"1298 441 OFFCURVE",
"1277 340 OFFCURVE",
"1236 250 CURVE SMOOTH",
"1183 135 OFFCURVE",
"1102 47 OFFCURVE",
"993 -12 CURVE SMOOTH",
"903 -61 OFFCURVE",
"804 -86 OFFCURVE",
"695 -86 CURVE SMOOTH",
"499 -86 OFFCURVE",
"344 -14 OFFCURVE",
"229 131 CURVE SMOOTH",
"139 244 OFFCURVE",
"94 385 OFFCURVE",
"94 554 CURVE SMOOTH",
"94 774 OFFCURVE",
"171 944 OFFCURVE",
"324 1063 CURVE SMOOTH",
"431 1146 OFFCURVE",
"556 1188 OFFCURVE",
"699 1188 CURVE SMOOTH"
);
},
{
closed = 1;
nodes = (
"572 1034 OFFCURVE",
"471 983 OFFCURVE",
"392 882 CURVE SMOOTH",
"323 795 OFFCURVE",
"289 684 OFFCURVE",
"289 551 CURVE SMOOTH",
"289 456 OFFCURVE",
"307 373 OFFCURVE",
"342 300 CURVE SMOOTH",
"375 230 OFFCURVE",
"422 175 OFFCURVE",
"483 135 CURVE SMOOTH",
"547 93 OFFCURVE",
"618 72 OFFCURVE",
"697 72 CURVE SMOOTH",
"792 72 OFFCURVE",
"876 103 OFFCURVE",
"949 165 CURVE SMOOTH",
"1052 254 OFFCURVE",
"1103 383 OFFCURVE",
"1103 552 CURVE SMOOTH",
"1103 695 OFFCURVE",
"1063 812 OFFCURVE",
"984 902 CURVE SMOOTH",
"906 990 OFFCURVE",
"809 1034 OFFCURVE",
"694 1034 CURVE SMOOTH"
);
}
);
vertWidth = 2048;
width = 1393;
}
);
unicode = 014F;
},
{
color = 3;
glyphname = rcommaaccent;
lastChange = "2022-04-07 18:21:41 +0000";
layers = (
{
background = {
paths = (
{
closed = 1;
nodes = (
"336 823 LINE",
"346 823 LINE",
"382 959 OFFCURVE",
"442 1059 OFFCURVE",
"526 1123 CURVE SMOOTH",
"581 1165 OFFCURVE",
"639 1186 OFFCURVE",
"699 1186 CURVE SMOOTH",
"746 1186 OFFCURVE",
"789 1172 OFFCURVE",
"828 1143 CURVE",
"781 977 LINE",
"755 999 OFFCURVE",
"724 1010 OFFCURVE",
"689 1010 CURVE SMOOTH",
"618 1010 OFFCURVE",
"553 972 OFFCURVE",
"494 896 CURVE SMOOTH",
"442 828 OFFCURVE",
"400 733 OFFCURVE",
"369 610 CURVE",
"369 69 LINE",
"205 69 LINE",
"205 1157 LINE",
"357 1157 LINE"
);
},
{
closed = 1;
nodes = (
"144 0 LINE",
"420 0 LINE",
"420 -40 LINE SMOOTH",
"420 -124 OFFCURVE",
"399 -193 OFFCURVE",
"356 -246 CURVE",
"219 -246 LINE",
"245 -211 OFFCURVE",
"260 -172 OFFCURVE",
"265 -130 CURVE",
"144 -130 LINE"
);
}
);
};
layerId = "4E782664-D0D5-4FED-AFC2-B9212141A2ED";
paths = (
{
closed = 1;
nodes = (
"363 823 LINE",
"371 823 LINE",
"456 1065 OFFCURVE",
"587 1186 OFFCURVE",
"764 1186 CURVE SMOOTH",
"819 1186 OFFCURVE",
"871 1175 OFFCURVE",
"918 1153 CURVE",
"860 981 LINE",
"825 996 OFFCURVE",
"785 1004 OFFCURVE",
"738 1004 CURVE SMOOTH",
"569 1004 OFFCURVE",
"450 863 OFFCURVE",
"381 580 CURVE",
"381 69 LINE",
"193 69 LINE",
"193 1157 LINE",
"373 1157 LINE"
);
},
{
closed = 1;
nodes = (
"144 0 LINE",
"420 0 LINE",
"420 -40 LINE SMOOTH",
"420 -124 OFFCURVE",
"399 -193 OFFCURVE",
"356 -246 CURVE",
"219 -246 LINE",
"245 -211 OFFCURVE",
"260 -172 OFFCURVE",
"265 -130 CURVE",
"144 -130 LINE"
);
}
);
vertWidth = 2048;
width = 922;
}
);
unicode = 0157;
},
{
color = 3;
glyphname = longs;
lastChange = "2022-04-07 18:21:41 +0000";
layers = (
{
background = {
paths = (
{
closed = 1;
nodes = (
"338 1376 OFFCURVE",
"363 1475 OFFCURVE",
"414 1547 CURVE SMOOTH",
"487 1649 OFFCURVE",
"592 1700 OFFCURVE",
"731 1700 CURVE SMOOTH",
"830 1700 OFFCURVE",
"923 1673 OFFCURVE",
"1011 1620 CURVE",
"938 1489 LINE",
"876 1527 OFFCURVE",
"812 1546 OFFCURVE",
"746 1546 CURVE SMOOTH",
"651 1546 OFFCURVE",
"584 1502 OFFCURVE",
"547 1415 CURVE SMOOTH",
"530 1375 OFFCURVE",
"522 1321 OFFCURVE",
"522 1253 CURVE SMOOTH",
"522 -51 LINE",
"338 -51 LINE",
"338 1251 LINE SMOOTH"
);
}
);
};
layerId = "4E782664-D0D5-4FED-AFC2-B9212141A2ED";
paths = (
{
closed = 1;
nodes = (
"338 1251 LINE SMOOTH",
"338 1376 OFFCURVE",
"363 1475 OFFCURVE",
"414 1547 CURVE SMOOTH",
"487 1649 OFFCURVE",
"592 1700 OFFCURVE",
"731 1700 CURVE SMOOTH",
"830 1700 OFFCURVE",
"923 1673 OFFCURVE",
"1011 1620 CURVE",
"938 1489 LINE",
"876 1527 OFFCURVE",
"812 1546 OFFCURVE",
"746 1546 CURVE SMOOTH",
"651 1546 OFFCURVE",
"584 1502 OFFCURVE",
"547 1415 CURVE SMOOTH",
"530 1375 OFFCURVE",
"522 1321 OFFCURVE",
"522 1253 CURVE SMOOTH",
"522 -51 LINE",
"338 -51 LINE"
);
}
);
vertWidth = 2048;
width = 1024;
}
);
unicode = 017F;
},
{
color = 3;
glyphname = tbar;
lastChange = "2022-04-07 18:21:41 +0000";
layers = (
{
background = {
paths = (
{
closed = 1;
nodes = (
"753 98 OFFCURVE",
"683 74 OFFCURVE",
"614 74 CURVE SMOOTH",
"561 74 OFFCURVE",
"526 96 OFFCURVE",
"509 139 CURVE SMOOTH",
"499 164 OFFCURVE",
"494 205 OFFCURVE",
"494 262 CURVE SMOOTH",
"494 508 LINE",
"868 508 LINE",
"868 647 LINE",
"494 647 LINE",
"494 1014 LINE",
"868 1014 LINE",
"868 1157 LINE",
"494 1157 LINE",
"494 1528 LINE",
"312 1432 LINE",
"312 1157 LINE",
"27 1157 LINE",
"27 1014 LINE",
"312 1014 LINE",
"312 647 LINE",
"27 647 LINE",
"27 508 LINE",
"312 508 LINE",
"312 238 LINE SMOOTH",
"312 29 OFFCURVE",
"403 -76 OFFCURVE",
"584 -76 CURVE SMOOTH",
"689 -76 OFFCURVE",
"786 -46 OFFCURVE",
"875 13 CURVE",
"823 146 LINE"
);
}
);
};
layerId = "4E782664-D0D5-4FED-AFC2-B9212141A2ED";
paths = (
{
closed = 1;
nodes = (
"403 -76 OFFCURVE",
"312 29 OFFCURVE",
"312 238 CURVE SMOOTH",
"312 508 LINE",
"27 508 LINE",
"27 647 LINE",
"312 647 LINE",
"312 1014 LINE",
"27 1014 LINE",
"27 1157 LINE",
"312 1157 LINE",
"312 1432 LINE",
"494 1528 LINE",
"494 1157 LINE",
"868 1157 LINE",
"868 1014 LINE",
"494 1014 LINE",
"494 647 LINE",
"868 647 LINE",
"868 508 LINE",
"494 508 LINE",
"494 262 LINE SMOOTH",
"494 205 OFFCURVE",
"499 164 OFFCURVE",
"509 139 CURVE SMOOTH",
"526 96 OFFCURVE",
"561 74 OFFCURVE",
"614 74 CURVE SMOOTH",
"683 74 OFFCURVE",
"753 98 OFFCURVE",
"823 146 CURVE",
"875 13 LINE",
"786 -46 OFFCURVE",
"689 -76 OFFCURVE",
"584 -76 CURVE SMOOTH"
);
}
);
vertWidth = 2048;
width = 963;
}
);
unicode = 0167;
},
{
color = 3;
glyphname = uogonek;
lastChange = "2022-04-07 18:21:41 +0000";
layers = (
{
background = {
paths = (
{
closed = 1;
nodes = (
"1235 1157 LINE",
"1045 1157 LINE",
"1045 503 LINE",
"998 397 OFFCURVE",
"932 316 OFFCURVE",
"845 259 CURVE SMOOTH",
"779 216 OFFCURVE",
"712 195 OFFCURVE",
"643 195 CURVE SMOOTH",
"470 195 OFFCURVE",
"383 306 OFFCURVE",
"383 528 CURVE SMOOTH",
"383 1157 LINE",
"197 1157 LINE",
"197 503 LINE SMOOTH",
"197 368 OFFCURVE",
"223 263 OFFCURVE",
"275 190 CURVE SMOOTH",
"348 87 OFFCURVE",
"460 36 OFFCURVE",
"613 36 CURVE SMOOTH",
"690 36 OFFCURVE",
"766 55 OFFCURVE",
"840 93 CURVE SMOOTH",
"923 136 OFFCURVE",
"994 198 OFFCURVE",
"1055 280 CURVE",
"1055 59 LINE",
"1057 59 LINE",
"980 8 OFFCURVE",
"919 -52 OFFCURVE",
"919 -120 CURVE SMOOTH",
"919 -213 OFFCURVE",
"1008 -244 OFFCURVE",
"1103 -244 CURVE SMOOTH",
"1153 -244 OFFCURVE",
"1196 -237 OFFCURVE",
"1230 -223 CURVE",
"1230 -143 LINE",
"1199 -156 OFFCURVE",
"1169 -162 OFFCURVE",
"1142 -162 CURVE SMOOTH",
"1097 -162 OFFCURVE",
"1074 -142 OFFCURVE",
"1074 -102 CURVE SMOOTH",
"1074 -54 OFFCURVE",
"1110 -1 OFFCURVE",
"1183 59 CURVE",
"1235 59 LINE"
);
}
);
};
layerId = "4E782664-D0D5-4FED-AFC2-B9212141A2ED";
paths = (
{
closed = 1;
nodes = (
"1008 -244 OFFCURVE",
"919 -213 OFFCURVE",
"919 -120 CURVE SMOOTH",
"919 -52 OFFCURVE",
"980 8 OFFCURVE",
"1057 59 CURVE",
"1055 59 LINE",
"1055 280 LINE",
"994 198 OFFCURVE",
"923 136 OFFCURVE",
"840 93 CURVE SMOOTH",
"766 55 OFFCURVE",
"690 36 OFFCURVE",
"613 36 CURVE SMOOTH",
"460 36 OFFCURVE",
"348 87 OFFCURVE",
"275 190 CURVE SMOOTH",
"223 263 OFFCURVE",
"197 368 OFFCURVE",
"197 503 CURVE SMOOTH",
"197 1157 LINE",
"383 1157 LINE",
"383 528 LINE SMOOTH",
"383 306 OFFCURVE",
"470 195 OFFCURVE",
"643 195 CURVE SMOOTH",
"712 195 OFFCURVE",
"779 216 OFFCURVE",
"845 259 CURVE SMOOTH",
"932 316 OFFCURVE",
"998 397 OFFCURVE",
"1045 503 CURVE",
"1045 1157 LINE",
"1235 1157 LINE",
"1235 59 LINE",
"1183 59 LINE",
"1110 -1 OFFCURVE",
"1074 -54 OFFCURVE",
"1074 -102 CURVE SMOOTH",
"1074 -142 OFFCURVE",
"1097 -162 OFFCURVE",
"1142 -162 CURVE SMOOTH",
"1169 -162 OFFCURVE",
"1199 -156 OFFCURVE",
"1230 -143 CURVE",
"1230 -223 LINE",
"1196 -237 OFFCURVE",
"1153 -244 OFFCURVE",
"1103 -244 CURVE SMOOTH"
);
}
);
vertWidth = 2048;
width = 1434;
}
);
unicode = 0173;
},
{
color = 3;
glyphname = utilde;
lastChange = "2022-04-07 18:21:41 +0000";
layers = (
{
background = {
paths = (
{
closed = 1;
nodes = (
"156 1157 LINE",
"318 1157 LINE",
"318 414 LINE SMOOTH",
"318 191 OFFCURVE",
"366 80 OFFCURVE",
"462 80 CURVE SMOOTH",
"507 80 OFFCURVE",
"551 106 OFFCURVE",
"595 157 CURVE SMOOTH",
"644 214 OFFCURVE",
"682 290 OFFCURVE",
"709 387 CURVE",
"709 1157 LINE",
"871 1157 LINE",
"871 -51 LINE",
"715 -51 LINE",
"715 164 LINE",
"650 5 OFFCURVE",
"557 -74 OFFCURVE",
"435 -74 CURVE SMOOTH",
"331 -74 OFFCURVE",
"253 -20 OFFCURVE",
"200 88 CURVE SMOOTH",
"171 147 OFFCURVE",
"156 250 OFFCURVE",
"156 395 CURVE SMOOTH"
);
},
{
closed = 1;
nodes = (
"861 1424 LINE",
"822 1381 OFFCURVE",
"769 1360 OFFCURVE",
"701 1360 CURVE SMOOTH",
"657 1360 OFFCURVE",
"597 1376 OFFCURVE",
"521 1407 CURVE SMOOTH",
"458 1433 OFFCURVE",
"404 1446 OFFCURVE",
"359 1446 CURVE SMOOTH",
"298 1446 OFFCURVE",
"243 1428 OFFCURVE",
"194 1393 CURVE",
"194 1514 LINE",
"235 1556 OFFCURVE",
"289 1577 OFFCURVE",
"356 1577 CURVE SMOOTH",
"397 1577 OFFCURVE",
"457 1561 OFFCURVE",
"536 1528 CURVE SMOOTH",
"594 1503 OFFCURVE",
"648 1491 OFFCURVE",
"697 1491 CURVE SMOOTH",
"760 1491 OFFCURVE",
"815 1508 OFFCURVE",
"861 1542 CURVE"
);
}
);
};
layerId = "4E782664-D0D5-4FED-AFC2-B9212141A2ED";
paths = (
{
closed = 1;
nodes = (
"197 1157 LINE",
"383 1157 LINE",
"383 418 LINE SMOOTH",
"383 196 OFFCURVE",
"470 85 OFFCURVE",
"643 85 CURVE SMOOTH",
"712 85 OFFCURVE",
"779 106 OFFCURVE",
"845 149 CURVE SMOOTH",
"932 206 OFFCURVE",
"998 287 OFFCURVE",
"1045 393 CURVE",
"1045 1157 LINE",
"1235 1157 LINE",
"1235 -51 LINE",
"1055 -51 LINE",
"1055 170 LINE",
"994 88 OFFCURVE",
"923 26 OFFCURVE",
"840 -17 CURVE SMOOTH",
"766 -55 OFFCURVE",
"690 -74 OFFCURVE",
"613 -74 CURVE SMOOTH",
"460 -74 OFFCURVE",
"348 -23 OFFCURVE",
"275 80 CURVE SMOOTH",
"223 153 OFFCURVE",
"197 258 OFFCURVE",
"197 393 CURVE SMOOTH"
);
},
{
closed = 1;
nodes = (
"1050 1424 LINE",
"1011 1381 OFFCURVE",
"958 1360 OFFCURVE",
"890 1360 CURVE SMOOTH",
"846 1360 OFFCURVE",
"786 1376 OFFCURVE",
"710 1407 CURVE SMOOTH",
"647 1433 OFFCURVE",
"593 1446 OFFCURVE",
"548 1446 CURVE SMOOTH",
"487 1446 OFFCURVE",
"432 1428 OFFCURVE",
"383 1393 CURVE",
"383 1514 LINE",
"424 1556 OFFCURVE",
"478 1577 OFFCURVE",
"545 1577 CURVE SMOOTH",
"586 1577 OFFCURVE",
"646 1561 OFFCURVE",
"725 1528 CURVE SMOOTH",
"783 1503 OFFCURVE",
"837 1491 OFFCURVE",
"886 1491 CURVE SMOOTH",
"949 1491 OFFCURVE",
"1004 1508 OFFCURVE",
"1050 1542 CURVE"
);
}
);
vertWidth = 2048;
width = 1434;
}
);
unicode = 0169;
},
{
color = 3;
glyphname = wcircumflex;
lastChange = "2022-04-07 18:21:41 +0000";
layers = (
{
layerId = "4E782664-D0D5-4FED-AFC2-B9212141A2ED";
paths = (
{
closed = 1;
nodes = (
"801 1608 LINE",
"1003 1608 LINE",
"1267 1340 LINE",
"1100 1340 LINE",
"901 1512 LINE",
"702 1340 LINE",
"536 1340 LINE"
);
},
{
closed = 1;
nodes = (
"33 1157 LINE",
"230 1157 LINE",
"434 448 LINE SMOOTH",
"464 345 OFFCURVE",
"489 252 OFFCURVE",
"508 168 CURVE",
"514 168 LINE",
"547 294 OFFCURVE",
"574 387 OFFCURVE",
"596 448 CURVE SMOOTH",
"817 1071 LINE",
"985 1071 LINE",
"1207 448 LINE SMOOTH",
"1225 397 OFFCURVE",
"1250 312 OFFCURVE",
"1282 191 CURVE SMOOTH",
"1288 168 LINE",
"1295 168 LINE",
"1312 247 OFFCURVE",
"1337 340 OFFCURVE",
"1368 448 CURVE SMOOTH",
"1573 1157 LINE",
"1770 1157 LINE",
"1379 -70 LINE",
"1221 -70 LINE",
"975 600 LINE SMOOTH",
"949 671 OFFCURVE",
"926 757 OFFCURVE",
"905 860 CURVE",
"897 860 LINE",
"874 749 OFFCURVE",
"851 662 OFFCURVE",
"828 600 CURVE SMOOTH",
"582 -70 LINE",
"424 -70 LINE"
);
}
);
vertWidth = 2048;
width = 1802;
}
);
unicode = 0175;
},
{
color = 3;
glyphname = ycircumflex;
lastChange = "2022-04-07 18:21:41 +0000";
layers = (
{
layerId = "4E782664-D0D5-4FED-AFC2-B9212141A2ED";
paths = (
{
closed = 1;
nodes = (
"542 1608 LINE",
"744 1608 LINE",
"1008 1340 LINE",
"841 1340 LINE",
"642 1512 LINE",
"443 1340 LINE",
"277 1340 LINE"
);
},
{
closed = 1;
nodes = (
"70 1157 LINE",
"283 1157 LINE",
"539 592 LINE SMOOTH",
"577 509 OFFCURVE",
"608 425 OFFCURVE",
"635 340 CURVE",
"641 340 LINE",
"650 360 LINE SMOOTH",
"700 472 OFFCURVE",
"730 549 OFFCURVE",
"748 588 CURVE SMOOTH",
"1014 1157 LINE",
"1225 1157 LINE",
"648 -12 LINE SMOOTH",
"600 -109 OFFCURVE",
"540 -175 OFFCURVE",
"468 -208 CURVE SMOOTH",
"416 -232 OFFCURVE",
"350 -244 OFFCURVE",
"269 -244 CURVE SMOOTH",
"193 -244 LINE",
"142 -82 LINE",
"244 -82 LINE SMOOTH",
"311 -82 OFFCURVE",
"362 -72 OFFCURVE",
"397 -52 CURVE SMOOTH",
"434 -32 OFFCURVE",
"465 4 OFFCURVE",
"490 57 CURVE SMOOTH",
"545 172 LINE"
);
}
);
vertWidth = 2048;
width = 1249;
}
);
unicode = 0177;
},
{
color = 3;
glyphname = fi;
lastChange = "2022-04-07 18:21:41 +0000";
layers = (
{
background = {
paths = (
{
closed = 1;
nodes = (
"522 1157 LINE",
"522 1253 LINE SMOOTH",
"522 1446 OFFCURVE",
"647 1546 OFFCURVE",
"886 1546 CURVE SMOOTH",
"1004 1546 OFFCURVE",
"1125 1499 OFFCURVE",
"1238 1409 CURVE",
"1321 1550 LINE",
"1182 1649 OFFCURVE",
"1028 1700 OFFCURVE",
"871 1700 CURVE SMOOTH",
"521 1700 OFFCURVE",
"338 1546 OFFCURVE",
"338 1251 CURVE SMOOTH",
"338 1157 LINE",
"29 1157 LINE",
"29 1014 LINE",
"338 1014 LINE",
"338 -51 LINE",
"522 -51 LINE",
"522 1014 LINE",
"1157 1014 LINE",
"1157 -51 LINE",
"1345 -51 LINE",
"1345 1157 LINE"
);
}
);
};
layerId = "4E782664-D0D5-4FED-AFC2-B9212141A2ED";
paths = (
{
closed = 1;
nodes = (
"338 1014 LINE",
"29 1014 LINE",
"29 1157 LINE",
"338 1157 LINE",
"338 1251 LINE SMOOTH",
"338 1546 OFFCURVE",
"521 1700 OFFCURVE",
"871 1700 CURVE SMOOTH",
"1028 1700 OFFCURVE",
"1182 1649 OFFCURVE",
"1321 1550 CURVE",
"1238 1409 LINE",
"1125 1499 OFFCURVE",
"1004 1546 OFFCURVE",
"886 1546 CURVE SMOOTH",
"647 1546 OFFCURVE",
"522 1446 OFFCURVE",
"522 1253 CURVE SMOOTH",
"522 1157 LINE",
"1345 1157 LINE",
"1345 -51 LINE",
"1157 -51 LINE",
"1157 1014 LINE",
"522 1014 LINE",
"522 -51 LINE",
"338 -51 LINE"
);
}
);
vertWidth = 2048;
width = 1579;
}
);
unicode = FB01;
},
{
color = 3;
glyphname = fl;
lastChange = "2022-04-07 18:21:41 +0000";
layers = (
{
background = {
paths = (
{
closed = 1;
nodes = (
"1357 102 OFFCURVE",
"1345 115 OFFCURVE",
"1345 141 CURVE SMOOTH",
"1345 1549 LINE",
"1346 1550 LINE",
"1199 1649 OFFCURVE",
"1037 1700 OFFCURVE",
"871 1700 CURVE SMOOTH",
"521 1700 OFFCURVE",
"338 1546 OFFCURVE",
"338 1251 CURVE SMOOTH",
"338 1157 LINE",
"29 1157 LINE",
"29 1014 LINE",
"338 1014 LINE",
"338 -51 LINE",
"522 -51 LINE",
"522 1014 LINE",
"1157 1014 LINE",
"1157 119 LINE SMOOTH",
"1157 6 OFFCURVE",
"1215 -51 OFFCURVE",
"1331 -51 CURVE SMOOTH",
"1521 -51 LINE",
"1542 102 LINE",
"1382 102 LINE SMOOTH"
);
},
{
closed = 1;
nodes = (
"522 1446 OFFCURVE",
"647 1546 OFFCURVE",
"886 1546 CURVE SMOOTH",
"976 1546 OFFCURVE",
"1068 1519 OFFCURVE",
"1157 1468 CURVE",
"1157 1157 LINE",
"522 1157 LINE",
"522 1253 LINE SMOOTH"
);
}
);
};
layerId = "4E782664-D0D5-4FED-AFC2-B9212141A2ED";
paths = (
{
closed = 1;
nodes = (
"338 1014 LINE",
"29 1014 LINE",
"29 1157 LINE",
"338 1157 LINE",
"338 1251 LINE SMOOTH",
"338 1546 OFFCURVE",
"521 1700 OFFCURVE",
"871 1700 CURVE SMOOTH",
"1037 1700 OFFCURVE",
"1199 1649 OFFCURVE",
"1346 1550 CURVE",
"1345 1549 LINE",
"1345 141 LINE SMOOTH",
"1345 115 OFFCURVE",
"1357 102 OFFCURVE",
"1382 102 CURVE SMOOTH",
"1542 102 LINE",
"1521 -51 LINE",
"1331 -51 LINE SMOOTH",
"1215 -51 OFFCURVE",
"1157 6 OFFCURVE",
"1157 119 CURVE SMOOTH",
"1157 1014 LINE",
"522 1014 LINE",
"522 -51 LINE",
"338 -51 LINE"
);
},
{
closed = 1;
nodes = (
"1157 1157 LINE",
"1157 1468 LINE",
"1068 1519 OFFCURVE",
"976 1546 OFFCURVE",
"886 1546 CURVE SMOOTH",
"647 1546 OFFCURVE",
"522 1446 OFFCURVE",
"522 1253 CURVE SMOOTH",
"522 1157 LINE"
);
}
);
vertWidth = 2048;
width = 1608;
}
);
unicode = FB02;
},
{
color = 4;
glyphname = "Gje-cy";
lastChange = "2022-04-07 18:21:41 +0000";
layers = (
{
layerId = "4E782664-D0D5-4FED-AFC2-B9212141A2ED";
paths = (
{
closed = 1;
nodes = (
"467 1488 LINE",
"1683 1488 LINE",
"1683 1318 LINE",
"653 1318 LINE",
"653 -51 LINE",
"467 -51 LINE"
);
},
{
closed = 1;
nodes = (
"1203 1800 LINE",
"1457 1800 LINE",
"1140 1606 LINE",
"970 1606 LINE"
);
}
);
vertWidth = 2048;
width = 2048;
}
);
unicode = 0403;
},
{
color = 4;
glyphname = "Gheupturn-cy";
lastChange = "2022-04-07 18:21:41 +0000";
layers = (
{
background = {
paths = (
{
closed = 1;
nodes = (
"467 1388 LINE",
"467 -51 LINE",
"653 -51 LINE",
"653 1218 LINE",
"1683 1218 LINE",
"1683 1802 LINE",
"1497 1802 LINE",
"1497 1388 LINE"
);
}
);
};
layerId = "4E782664-D0D5-4FED-AFC2-B9212141A2ED";
paths = (
{
closed = 1;
nodes = (
"467 1388 LINE",
"1497 1388 LINE",
"1497 1802 LINE",
"1683 1802 LINE",
"1683 1218 LINE",
"653 1218 LINE",
"653 -51 LINE",
"467 -51 LINE"
);
}
);
vertWidth = 2048;
width = 2048;
}
);
unicode = 0490;
},
{
color = 4;
glyphname = "Kje-cy";
lastChange = "2022-04-07 18:21:41 +0000";
layers = (
{
background = {
paths = (
{
closed = 1;
nodes = (
"426 1608 LINE",
"614 1608 LINE",
"614 899 LINE",
"863 900 OFFCURVE",
"1052 953 OFFCURVE",
"1181 1057 CURVE SMOOTH",
"1325 1173 OFFCURVE",
"1416 1357 OFFCURVE",
"1454 1608 CURVE",
"1654 1608 LINE",
"1621 1423 OFFCURVE",
"1571 1273 OFFCURVE",
"1503 1160 CURVE SMOOTH",
"1425 1031 OFFCURVE",
"1314 928 OFFCURVE",
"1169 850 CURVE",
"1798 -51 LINE",
"1550 -51 LINE",
"1011 779 LINE",
"902 748 OFFCURVE",
"770 732 OFFCURVE",
"614 731 CURVE",
"614 -51 LINE",
"426 -51 LINE"
);
}
);
};
layerId = "4E782664-D0D5-4FED-AFC2-B9212141A2ED";
paths = (
{
closed = 1;
nodes = (
"912 689 OFFCURVE",
"776 672 OFFCURVE",
"614 671 CURVE",
"614 -51 LINE",
"426 -51 LINE",
"426 1488 LINE",
"614 1488 LINE",
"614 839 LINE",
"1114 841 OFFCURVE",
"1379 1032 OFFCURVE",
"1454 1488 CURVE",
"1654 1488 LINE",
"1590 1156 OFFCURVE",
"1466 931 OFFCURVE",
"1153 782 CURVE",
"1024 723 LINE"
);
},
{
closed = 1;
nodes = (
"1798 -51 LINE",
"1550 -51 LINE",
"1001 732 LINE",
"1159 802 LINE"
);
},
{
closed = 1;
nodes = (
"1123 1800 LINE",
"1377 1800 LINE",
"1060 1606 LINE",
"890 1606 LINE"
);
}
);
vertWidth = 2048;
width = 2048;
}
);
unicode = 040C;
},
{
color = 4;
glyphname = "Ushort-cy";
lastChange = "2022-04-07 18:21:41 +0000";
layers = (
{
background = {
paths = (
{
closed = 1;
nodes = (
"377 1608 LINE",
"588 1608 LINE",
"981 793 LINE SMOOTH",
"1012 728 OFFCURVE",
"1045 642 OFFCURVE",
"1079 537 CURVE",
"1090 537 LINE",
"1119 616 OFFCURVE",
"1153 704 OFFCURVE",
"1192 799 CURVE SMOOTH",
"1522 1608 LINE",
"1733 1608 LINE",
"1122 199 LINE SMOOTH",
"1075 91 OFFCURVE",
"1010 19 OFFCURVE",
"927 -16 CURVE SMOOTH",
"871 -39 OFFCURVE",
"798 -51 OFFCURVE",
"709 -51 CURVE SMOOTH",
"527 -51 LINE",
"490 119 LINE",
"705 119 LINE SMOOTH",
"772 119 OFFCURVE",
"824 129 OFFCURVE",
"862 148 CURVE SMOOTH",
"906 171 OFFCURVE",
"940 211 OFFCURVE",
"963 269 CURVE SMOOTH",
"1004 371 LINE"
);
}
);
};
layerId = "4E782664-D0D5-4FED-AFC2-B9212141A2ED";
paths = (
{
closed = 1;
nodes = (
"377 1488 LINE",
"588 1488 LINE",
"981 723 LINE SMOOTH",
"1015 656 OFFCURVE",
"1045 572 OFFCURVE",
"1079 467 CURVE",
"1090 467 LINE",
"1119 546 OFFCURVE",
"1156 632 OFFCURVE",
"1197 729 CURVE SMOOTH",
"1522 1488 LINE",
"1733 1488 LINE",
"1134 167 LINE SMOOTH",
"1051 -16 OFFCURVE",
"929 -51 OFFCURVE",
"709 -51 CURVE SMOOTH",
"527 -51 LINE",
"490 119 LINE",
"705 119 LINE SMOOTH",
"837 119 OFFCURVE",
"926 129 OFFCURVE",
"975 237 CURVE SMOOTH",
"1004 301 LINE"
);
},
{
closed = 1;
nodes = (
"1428 1800 LINE",
"1389 1627 OFFCURVE",
"1274 1540 OFFCURVE",
"1084 1540 CURVE SMOOTH",
"894 1540 OFFCURVE",
"779 1627 OFFCURVE",
"740 1800 CURVE",
"884 1800 LINE",
"907 1707 OFFCURVE",
"973 1661 OFFCURVE",
"1084 1661 CURVE SMOOTH",
"1195 1661 OFFCURVE",
"1262 1707 OFFCURVE",
"1285 1800 CURVE"
);
}
);
vertWidth = 2048;
width = 2048;
}
);
unicode = 040E;
},
{
color = 4;
glyphname = "Dzhe-cy";
lastChange = "2022-04-07 18:21:41 +0000";
layers = (
{
background = {
paths = (
{
closed = 1;
nodes = (
"1479 109 LINE",
"569 109 LINE",
"569 1608 LINE",
"383 1608 LINE",
"383 -51 LINE",
"935 -51 LINE",
"935 -244 LINE",
"1113 -244 LINE",
"1113 -51 LINE",
"1665 -51 LINE",
"1665 1608 LINE",
"1479 1608 LINE"
);
}
);
};
layerId = "4E782664-D0D5-4FED-AFC2-B9212141A2ED";
paths = (
{
closed = 1;
nodes = (
"935 -51 LINE",
"383 -51 LINE",
"383 1608 LINE",
"569 1608 LINE",
"569 109 LINE",
"1479 109 LINE",
"1479 1608 LINE",
"1665 1608 LINE",
"1665 -51 LINE",
"1113 -51 LINE",
"1113 -244 LINE",
"935 -244 LINE"
);
}
);
vertWidth = 2048;
width = 2048;
}
);
unicode = 040F;
},
{
color = 4;
glyphname = "Lje-cy";
lastChange = "2022-04-07 18:21:41 +0000";
layers = (
{
background = {
paths = (
{
closed = 1;
nodes = (
"1368 1608 LINE",
"608 1608 LINE",
"608 777 LINE SMOOTH",
"608 155 OFFCURVE",
"528 88 OFFCURVE",
"368 88 CURVE SMOOTH",
"279 88 OFFCURVE",
"210 163 OFFCURVE",
"160 314 CURVE",
"27 189 LINE",
"106 4 OFFCURVE",
"219 -88 OFFCURVE",
"366 -88 CURVE SMOOTH",
"745 -88 OFFCURVE",
"790 223 OFFCURVE",
"790 777 CURVE SMOOTH",
"790 1442 LINE",
"1184 1442 LINE",
"1184 -51 LINE",
"1485 -51 LINE SMOOTH",
"1807 -51 OFFCURVE",
"2024 94 OFFCURVE",
"2024 416 CURVE SMOOTH",
"2024 748 OFFCURVE",
"1798 895 OFFCURVE",
"1470 895 CURVE SMOOTH",
"1368 895 LINE"
);
},
{
closed = 1;
nodes = (
"1368 735 LINE",
"1503 735 LINE SMOOTH",
"1691 735 OFFCURVE",
"1823 634 OFFCURVE",
"1823 427 CURVE SMOOTH",
"1823 221 OFFCURVE",
"1692 117 OFFCURVE",
"1511 117 CURVE SMOOTH",
"1368 117 LINE"
);
}
);
};
layerId = "4E782664-D0D5-4FED-AFC2-B9212141A2ED";
paths = (
{
closed = 1;
nodes = (
"219 -88 OFFCURVE",
"106 4 OFFCURVE",
"27 189 CURVE",
"160 314 LINE",
"210 163 OFFCURVE",
"279 88 OFFCURVE",
"368 88 CURVE SMOOTH",
"528 88 OFFCURVE",
"608 155 OFFCURVE",
"608 777 CURVE SMOOTH",
"608 1608 LINE",
"1368 1608 LINE",
"1368 895 LINE",
"1470 895 LINE SMOOTH",
"1798 895 OFFCURVE",
"2024 748 OFFCURVE",
"2024 416 CURVE SMOOTH",
"2024 94 OFFCURVE",
"1807 -51 OFFCURVE",
"1485 -51 CURVE SMOOTH",
"1184 -51 LINE",
"1184 1442 LINE",
"790 1442 LINE",
"790 777 LINE SMOOTH",
"790 223 OFFCURVE",
"745 -88 OFFCURVE",
"366 -88 CURVE SMOOTH"
);
},
{
closed = 1;
nodes = (
"1511 117 LINE SMOOTH",
"1692 117 OFFCURVE",
"1823 221 OFFCURVE",
"1823 427 CURVE SMOOTH",
"1823 634 OFFCURVE",
"1691 735 OFFCURVE",
"1503 735 CURVE SMOOTH",
"1368 735 LINE",
"1368 117 LINE"
);
}
);
vertWidth = 2048;
width = 2048;
}
);
unicode = 0409;
},
{
color = 4;
glyphname = "Nje-cy";
lastChange = "2022-04-07 18:21:41 +0000";
layers = (
{
background = {
paths = (
{
closed = 1;
nodes = (
"1190 1608 LINE",
"1004 1608 LINE",
"1004 889 LINE",
"379 889 LINE",
"379 1608 LINE",
"193 1608 LINE",
"193 -51 LINE",
"379 -51 LINE",
"379 729 LINE",
"1004 729 LINE",
"1004 -51 LINE",
"1395 -51 LINE SMOOTH",
"1717 -51 OFFCURVE",
"1934 94 OFFCURVE",
"1934 416 CURVE SMOOTH",
"1934 748 OFFCURVE",
"1708 895 OFFCURVE",
"1380 895 CURVE SMOOTH",
"1190 895 LINE"
);
},
{
closed = 1;
nodes = (
"1190 735 LINE",
"1413 735 LINE SMOOTH",
"1601 735 OFFCURVE",
"1733 634 OFFCURVE",
"1733 427 CURVE SMOOTH",
"1733 221 OFFCURVE",
"1602 117 OFFCURVE",
"1421 117 CURVE SMOOTH",
"1190 117 LINE"
);
}
);
};
layerId = "4E782664-D0D5-4FED-AFC2-B9212141A2ED";
paths = (
{
closed = 1;
nodes = (
"193 1608 LINE",
"379 1608 LINE",
"379 889 LINE",
"1004 889 LINE",
"1004 1608 LINE",
"1190 1608 LINE",
"1190 895 LINE",
"1380 895 LINE SMOOTH",
"1708 895 OFFCURVE",
"1934 748 OFFCURVE",
"1934 416 CURVE SMOOTH",
"1934 94 OFFCURVE",
"1717 -51 OFFCURVE",
"1395 -51 CURVE SMOOTH",
"1004 -51 LINE",
"1004 729 LINE",
"379 729 LINE",
"379 -51 LINE",
"193 -51 LINE"
);
},
{
closed = 1;
nodes = (
"1421 117 LINE SMOOTH",
"1602 117 OFFCURVE",
"1733 221 OFFCURVE",
"1733 427 CURVE SMOOTH",
"1733 634 OFFCURVE",
"1601 735 OFFCURVE",
"1413 735 CURVE SMOOTH",
"1190 735 LINE",
"1190 117 LINE"
);
}
);
vertWidth = 2048;
width = 2048;
}
);
unicode = 040A;
},
{
color = 4;
glyphname = "Dze-cy";
lastChange = "2022-04-07 18:21:41 +0000";
layers = (
{
layerId = "4E782664-D0D5-4FED-AFC2-B9212141A2ED";
paths = (
{
closed = 1;
nodes = (
"506 326 LINE",
"648 166 OFFCURVE",
"828 86 OFFCURVE",
"1045 86 CURVE SMOOTH",
"1158 86 OFFCURVE",
"1245 109 OFFCURVE",
"1307 156 CURVE SMOOTH",
"1378 209 OFFCURVE",
"1413 281 OFFCURVE",
"1413 371 CURVE SMOOTH",
"1413 462 OFFCURVE",
"1378 534 OFFCURVE",
"1309 589 CURVE SMOOTH",
"1252 634 OFFCURVE",
"1155 680 OFFCURVE",
"1016 727 CURVE SMOOTH",
"907 764 LINE SMOOTH",
"772 810 OFFCURVE",
"675 856 OFFCURVE",
"615 903 CURVE SMOOTH",
"523 975 OFFCURVE",
"477 1071 OFFCURVE",
"477 1192 CURVE SMOOTH",
"477 1327 OFFCURVE",
"524 1433 OFFCURVE",
"619 1512 CURVE SMOOTH",
"719 1596 OFFCURVE",
"852 1638 OFFCURVE",
"1017 1638 CURVE SMOOTH",
"1220 1638 OFFCURVE",
"1399 1577 OFFCURVE",
"1554 1454 CURVE",
"1454 1311 LINE",
"1331 1422 OFFCURVE",
"1185 1478 OFFCURVE",
"1016 1478 CURVE SMOOTH",
"904 1478 OFFCURVE",
"818 1452 OFFCURVE",
"758 1400 CURVE SMOOTH",
"705 1353 OFFCURVE",
"678 1290 OFFCURVE",
"678 1210 CURVE SMOOTH",
"678 1144 OFFCURVE",
"702 1089 OFFCURVE",
"749 1045 CURVE SMOOTH",
"801 996 OFFCURVE",
"895 950 OFFCURVE",
"1032 905 CURVE SMOOTH",
"1151 866 LINE SMOOTH",
"1312 813 OFFCURVE",
"1429 751 OFFCURVE",
"1501 678 CURVE SMOOTH",
"1580 598 OFFCURVE",
"1620 499 OFFCURVE",
"1620 381 CURVE SMOOTH",
"1620 231 OFFCURVE",
"1563 114 OFFCURVE",
"1449 29 CURVE SMOOTH",
"1350 -45 OFFCURVE",
"1214 -82 OFFCURVE",
"1041 -82 CURVE SMOOTH",
"768 -82 OFFCURVE",
"552 10 OFFCURVE",
"391 193 CURVE"
);
}
);
vertWidth = 2048;
width = 2048;
}
);
unicode = 0405;
},
{
color = 4;
glyphname = "E-cy";
lastChange = "2022-04-07 18:21:41 +0000";
layers = (
{
background = {
paths = (
{
closed = 1;
nodes = (
"1342 -84 OFFCURVE",
"1546 -10 OFFCURVE",
"1718 139 CURVE",
"1614 295 LINE",
"1474 156 OFFCURVE",
"1304 86 OFFCURVE",
"1103 86 CURVE SMOOTH",
"1010 86 OFFCURVE",
"922 109 OFFCURVE",
"838 155 CURVE SMOOTH",
"759 198 OFFCURVE",
"693 256 OFFCURVE",
"641 328 CURVE SMOOTH",
"554 449 OFFCURVE",
"510 597 OFFCURVE",
"510 771 CURVE SMOOTH",
"510 974 OFFCURVE",
"566 1144 OFFCURVE",
"678 1279 CURVE SMOOTH",
"784 1408 OFFCURVE",
"926 1472 OFFCURVE",
"1103 1472 CURVE SMOOTH",
"1184 1472 OFFCURVE",
"1257 1460 OFFCURVE",
"1322 1437 CURVE SMOOTH",
"1405 1408 OFFCURVE",
"1486 1353 OFFCURVE",
"1565 1272 CURVE",
"1681 1409 LINE",
"1596 1484 OFFCURVE",
"1514 1539 OFFCURVE",
"1434 1574 CURVE SMOOTH",
"1332 1618 OFFCURVE",
"1218 1640 OFFCURVE",
"1093 1640 CURVE SMOOTH",
"891 1640 OFFCURVE",
"716 1572 OFFCURVE",
"569 1435 CURVE SMOOTH",
"527 1396 OFFCURVE",
"489 1351 OFFCURVE",
"456 1301 CURVE SMOOTH",
"355 1151 OFFCURVE",
"305 975 OFFCURVE",
"305 774 CURVE SMOOTH",
"305 529 OFFCURVE",
"371 332 OFFCURVE",
"503 182 CURVE SMOOTH",
"660 5 OFFCURVE",
"860 -84 OFFCURVE",
"1105 -84 CURVE SMOOTH"
);
},
{
closed = 1;
nodes = (
"1534 655 OFFCURVE",
"1451 632 OFFCURVE",
"1381 632 CURVE SMOOTH",
"1320 632 OFFCURVE",
"1243 651 OFFCURVE",
"1151 688 CURVE SMOOTH",
"1082 716 OFFCURVE",
"1021 730 OFFCURVE",
"968 730 CURVE SMOOTH",
"901 730 OFFCURVE",
"821 708 OFFCURVE",
"727 665 CURVE",
"727 829 LINE",
"815 874 OFFCURVE",
"895 896 OFFCURVE",
"967 896 CURVE SMOOTH",
"1032 896 OFFCURVE",
"1109 878 OFFCURVE",
"1198 842 CURVE SMOOTH",
"1268 813 OFFCURVE",
"1329 799 OFFCURVE",
"1382 799 CURVE SMOOTH",
"1446 799 OFFCURVE",
"1529 821 OFFCURVE",
"1631 866 CURVE",
"1631 702 LINE"
);
}
);
};
layerId = "4E782664-D0D5-4FED-AFC2-B9212141A2ED";
paths = (
{
closed = 1;
nodes = (
"860 -84 OFFCURVE",
"660 5 OFFCURVE",
"503 182 CURVE SMOOTH",
"371 332 OFFCURVE",
"305 529 OFFCURVE",
"305 774 CURVE SMOOTH",
"305 975 OFFCURVE",
"355 1151 OFFCURVE",
"456 1301 CURVE SMOOTH",
"489 1351 OFFCURVE",
"527 1396 OFFCURVE",
"569 1435 CURVE SMOOTH",
"716 1572 OFFCURVE",
"891 1640 OFFCURVE",
"1093 1640 CURVE SMOOTH",
"1218 1640 OFFCURVE",
"1332 1618 OFFCURVE",
"1434 1574 CURVE SMOOTH",
"1514 1539 OFFCURVE",
"1596 1484 OFFCURVE",
"1681 1409 CURVE",
"1565 1272 LINE",
"1486 1353 OFFCURVE",
"1405 1408 OFFCURVE",
"1322 1437 CURVE SMOOTH",
"1257 1460 OFFCURVE",
"1184 1472 OFFCURVE",
"1103 1472 CURVE SMOOTH",
"926 1472 OFFCURVE",
"784 1408 OFFCURVE",
"678 1279 CURVE SMOOTH",
"566 1144 OFFCURVE",
"510 974 OFFCURVE",
"510 771 CURVE SMOOTH",
"510 597 OFFCURVE",
"554 449 OFFCURVE",
"641 328 CURVE SMOOTH",
"693 256 OFFCURVE",
"759 198 OFFCURVE",
"838 155 CURVE SMOOTH",
"922 109 OFFCURVE",
"1010 86 OFFCURVE",
"1103 86 CURVE SMOOTH",
"1304 86 OFFCURVE",
"1474 156 OFFCURVE",
"1614 295 CURVE",
"1718 139 LINE",
"1546 -10 OFFCURVE",
"1342 -84 OFFCURVE",
"1105 -84 CURVE SMOOTH"
);
},
{
closed = 1;
nodes = (
"1320 632 OFFCURVE",
"1243 651 OFFCURVE",
"1151 688 CURVE SMOOTH",
"1082 716 OFFCURVE",
"1021 730 OFFCURVE",
"968 730 CURVE SMOOTH",
"901 730 OFFCURVE",
"821 708 OFFCURVE",
"727 665 CURVE",
"727 829 LINE",
"815 874 OFFCURVE",
"895 896 OFFCURVE",
"967 896 CURVE SMOOTH",
"1032 896 OFFCURVE",
"1109 878 OFFCURVE",
"1198 842 CURVE SMOOTH",
"1268 813 OFFCURVE",
"1329 799 OFFCURVE",
"1382 799 CURVE SMOOTH",
"1446 799 OFFCURVE",
"1529 821 OFFCURVE",
"1631 866 CURVE",
"1631 702 LINE",
"1534 655 OFFCURVE",
"1451 632 OFFCURVE",
"1381 632 CURVE SMOOTH"
);
}
);
vertWidth = 2048;
width = 2048;
}
);
unicode = 0404;
},
{
color = 4;
glyphname = "I-cy";
lastChange = "2022-04-07 18:21:41 +0000";
layers = (
{
layerId = "4E782664-D0D5-4FED-AFC2-B9212141A2ED";
paths = (
{
closed = 1;
nodes = (
"721 1608 LINE",
"1327 1608 LINE",
"1327 1463 LINE",
"1118 1463 LINE",
"1118 94 LINE",
"1327 94 LINE",
"1327 -51 LINE",
"721 -51 LINE",
"721 94 LINE",
"930 94 LINE",
"930 1463 LINE",
"721 1463 LINE"
);
}
);
vertWidth = 2048;
width = 2048;
}
);
unicode = 0406;
},
{
color = 4;
glyphname = "Yi-cy";
lastChange = "2022-04-07 18:21:41 +0000";
layers = (
{
layerId = "4E782664-D0D5-4FED-AFC2-B9212141A2ED";
paths = (
{
closed = 1;
nodes = (
"721 1488 LINE",
"1327 1488 LINE",
"1327 1343 LINE",
"1118 1343 LINE",
"1118 94 LINE",
"1327 94 LINE",
"1327 -51 LINE",
"721 -51 LINE",
"721 94 LINE",
"930 94 LINE",
"930 1343 LINE",
"721 1343 LINE"
);
},
{
closed = 1;
nodes = (
"700 1800 LINE",
"921 1800 LINE",
"921 1605 LINE",
"700 1605 LINE"
);
},
{
closed = 1;
nodes = (
"1120 1800 LINE",
"1341 1800 LINE",
"1341 1605 LINE",
"1120 1605 LINE"
);
}
);
vertWidth = 2048;
width = 2048;
}
);
unicode = 0407;
},
{
color = 4;
glyphname = "Je-cy";
lastChange = "2022-04-07 18:21:41 +0000";
layers = (
{
layerId = "4E782664-D0D5-4FED-AFC2-B9212141A2ED";
paths = (
{
closed = 1;
nodes = (
"1120 1608 LINE",
"1310 1608 LINE",
"1310 402 LINE SMOOTH",
"1310 248 OFFCURVE",
"1282 136 OFFCURVE",
"1225 65 CURVE SMOOTH",
"1146 -34 OFFCURVE",
"1027 -84 OFFCURVE",
"866 -84 CURVE SMOOTH",
"678 -84 OFFCURVE",
"537 14 OFFCURVE",
"442 209 CURVE",
"559 324 LINE",
"630 165 OFFCURVE",
"731 86 OFFCURVE",
"862 86 CURVE SMOOTH",
"961 86 OFFCURVE",
"1032 120 OFFCURVE",
"1075 189 CURVE SMOOTH",
"1105 237 OFFCURVE",
"1120 312 OFFCURVE",
"1120 414 CURVE SMOOTH"
);
}
);
vertWidth = 2048;
width = 2048;
}
);
unicode = 0408;
},
{
color = 4;
glyphname = "Tshe-cy";
lastChange = "2022-04-07 18:21:41 +0000";
layers = (
{
background = {
paths = (
{
closed = 1;
nodes = (
"1102 1060 OFFCURVE",
"945 965 OFFCURVE",
"840 822 CURVE",
"839 817 LINE",
"839 1440 LINE",
"1439 1440 LINE",
"1439 1608 LINE",
"225 1608 LINE",
"225 1440 LINE",
"655 1440 LINE",
"655 -51 LINE",
"840 -51 LINE",
"840 597 LINE",
"919 769 OFFCURVE",
"1075 898 OFFCURVE",
"1244 898 CURVE SMOOTH",
"1437 898 OFFCURVE",
"1502 771 OFFCURVE",
"1502 570 CURVE SMOOTH",
"1502 -51 LINE",
"1690 -51 LINE",
"1690 593 LINE SMOOTH",
"1690 888 OFFCURVE",
"1550 1060 OFFCURVE",
"1271 1060 CURVE SMOOTH"
);
}
);
};
layerId = "4E782664-D0D5-4FED-AFC2-B9212141A2ED";
paths = (
{
closed = 1;
nodes = (
"655 1440 LINE",
"225 1440 LINE",
"225 1608 LINE",
"1439 1608 LINE",
"1439 1440 LINE",
"839 1440 LINE",
"839 817 LINE",
"840 822 LINE",
"945 965 OFFCURVE",
"1102 1060 OFFCURVE",
"1271 1060 CURVE SMOOTH",
"1550 1060 OFFCURVE",
"1690 888 OFFCURVE",
"1690 593 CURVE SMOOTH",
"1690 -51 LINE",
"1502 -51 LINE",
"1502 570 LINE SMOOTH",
"1502 771 OFFCURVE",
"1437 898 OFFCURVE",
"1244 898 CURVE SMOOTH",
"1075 898 OFFCURVE",
"919 769 OFFCURVE",
"840 597 CURVE",
"840 -51 LINE",
"655 -51 LINE"
);
}
);
vertWidth = 2048;
width = 2048;
}
);
unicode = 040B;
},
{
color = 4;
glyphname = "Dje-cy";
lastChange = "2022-04-07 18:21:41 +0000";
layers = (
{
background = {
paths = (
{
closed = 1;
nodes = (
"1092 1060 OFFCURVE",
"935 965 OFFCURVE",
"830 822 CURVE",
"829 817 LINE",
"829 1440 LINE",
"1429 1440 LINE",
"1429 1608 LINE",
"215 1608 LINE",
"215 1440 LINE",
"645 1440 LINE",
"645 -51 LINE",
"830 -51 LINE",
"830 597 LINE",
"909 769 OFFCURVE",
"1065 898 OFFCURVE",
"1234 898 CURVE SMOOTH",
"1443 898 OFFCURVE",
"1552 758 OFFCURVE",
"1552 490 CURVE SMOOTH",
"1552 217 OFFCURVE",
"1451 74 OFFCURVE",
"1258 74 CURVE SMOOTH",
"1178 74 OFFCURVE",
"1112 101 OFFCURVE",
"1059 156 CURVE",
"940 33 LINE",
"1017 -47 OFFCURVE",
"1123 -86 OFFCURVE",
"1257 -86 CURVE SMOOTH",
"1574 -86 OFFCURVE",
"1740 119 OFFCURVE",
"1740 513 CURVE SMOOTH",
"1740 872 OFFCURVE",
"1576 1060 OFFCURVE",
"1261 1060 CURVE SMOOTH"
);
}
);
};
layerId = "4E782664-D0D5-4FED-AFC2-B9212141A2ED";
paths = (
{
closed = 1;
nodes = (
"1123 -86 OFFCURVE",
"1017 -47 OFFCURVE",
"940 33 CURVE",
"1059 156 LINE",
"1112 101 OFFCURVE",
"1178 74 OFFCURVE",
"1258 74 CURVE SMOOTH",
"1451 74 OFFCURVE",
"1552 217 OFFCURVE",
"1552 490 CURVE SMOOTH",
"1552 758 OFFCURVE",
"1443 898 OFFCURVE",
"1234 898 CURVE SMOOTH",
"1065 898 OFFCURVE",
"909 769 OFFCURVE",
"830 597 CURVE",
"830 -51 LINE",
"645 -51 LINE",
"645 1440 LINE",
"215 1440 LINE",
"215 1608 LINE",
"1429 1608 LINE",
"1429 1440 LINE",
"829 1440 LINE",
"829 817 LINE",
"830 822 LINE",
"935 965 OFFCURVE",
"1092 1060 OFFCURVE",
"1261 1060 CURVE SMOOTH",
"1576 1060 OFFCURVE",
"1740 872 OFFCURVE",
"1740 513 CURVE SMOOTH",
"1740 119 OFFCURVE",
"1574 -86 OFFCURVE",
"1257 -86 CURVE SMOOTH"
);
}
);
vertWidth = 2048;
width = 2048;
}
);
unicode = 0402;
},
{
color = 4;
glyphname = "gje-cy";
lastChange = "2022-04-07 18:21:41 +0000";
layers = (
{
layerId = "4E782664-D0D5-4FED-AFC2-B9212141A2ED";
paths = (
{
closed = 1;
nodes = (
"588 1157 LINE",
"1560 1157 LINE",
"1560 991 LINE",
"774 991 LINE",
"774 -51 LINE",
"588 -51 LINE"
);
},
{
closed = 1;
nodes = (
"1192 1608 LINE",
"1446 1608 LINE",
"1108 1340 LINE",
"938 1340 LINE"
);
}
);
vertWidth = 2048;
width = 2048;
}
);
unicode = 0453;
},
{
color = 4;
glyphname = "gheupturn-cy";
lastChange = "2022-04-07 18:21:41 +0000";
layers = (
{
background = {
paths = (
{
closed = 1;
nodes = (
"1373 1485 LINE",
"1373 1157 LINE",
"588 1157 LINE",
"588 -51 LINE",
"774 -51 LINE",
"774 991 LINE",
"1560 991 LINE",
"1560 1157 LINE",
"1559 1157 LINE",
"1559 1485 LINE"
);
}
);
};
layerId = "4E782664-D0D5-4FED-AFC2-B9212141A2ED";
paths = (
{
closed = 1;
nodes = (
"588 1157 LINE",
"1373 1157 LINE",
"1373 1485 LINE",
"1559 1485 LINE",
"1559 1157 LINE",
"1560 1157 LINE",
"1560 991 LINE",
"774 991 LINE",
"774 -51 LINE",
"588 -51 LINE"
);
}
);
vertWidth = 2048;
width = 2048;
}
);
unicode = 0491;
},
{
color = 4;
glyphname = "kje-cy";
lastChange = "2022-04-07 18:21:41 +0000";
layers = (
{
layerId = "4E782664-D0D5-4FED-AFC2-B9212141A2ED";
paths = (
{
closed = 1;
nodes = (
"502 1157 LINE",
"684 1157 LINE",
"684 645 LINE",
"817 649 OFFCURVE",
"925 669 OFFCURVE",
"1007 705 CURVE SMOOTH",
"1182 781 OFFCURVE",
"1283 932 OFFCURVE",
"1311 1157 CURVE",
"1501 1157 LINE",
"1482 1025 OFFCURVE",
"1450 918 OFFCURVE",
"1403 836 CURVE SMOOTH",
"1346 736 OFFCURVE",
"1262 656 OFFCURVE",
"1151 596 CURVE",
"1647 -51 LINE",
"1403 -51 LINE",
"997 531 LINE",
"906 504 OFFCURVE",
"802 490 OFFCURVE",
"684 488 CURVE",
"684 -51 LINE",
"502 -51 LINE"
);
},
{
closed = 1;
nodes = (
"1132 1608 LINE",
"1386 1608 LINE",
"1048 1340 LINE",
"878 1340 LINE"
);
}
);
vertWidth = 2048;
width = 2048;
}
);
unicode = 045C;
},
{
color = 4;
glyphname = "ushort-cy";
lastChange = "2022-04-07 18:21:41 +0000";
layers = (
{
layerId = "4E782664-D0D5-4FED-AFC2-B9212141A2ED";
paths = (
{
closed = 1;
nodes = (
"459 1157 LINE",
"672 1157 LINE",
"928 592 LINE SMOOTH",
"966 509 OFFCURVE",
"997 425 OFFCURVE",
"1024 340 CURVE",
"1030 340 LINE",
"1039 360 LINE SMOOTH",
"1089 472 OFFCURVE",
"1119 549 OFFCURVE",
"1137 588 CURVE SMOOTH",
"1403 1157 LINE",
"1614 1157 LINE",
"1037 -12 LINE SMOOTH",
"989 -109 OFFCURVE",
"929 -175 OFFCURVE",
"857 -208 CURVE SMOOTH",
"805 -232 OFFCURVE",
"739 -244 OFFCURVE",
"658 -244 CURVE SMOOTH",
"582 -244 LINE",
"531 -82 LINE",
"633 -82 LINE SMOOTH",
"700 -82 OFFCURVE",
"751 -72 OFFCURVE",
"786 -52 CURVE SMOOTH",
"823 -32 OFFCURVE",
"854 4 OFFCURVE",
"879 57 CURVE SMOOTH",
"934 172 LINE"
);
},
{
closed = 1;
nodes = (
"1388 1544 LINE",
"1349 1359 OFFCURVE",
"1235 1266 OFFCURVE",
"1044 1266 CURVE SMOOTH",
"854 1266 OFFCURVE",
"739 1359 OFFCURVE",
"700 1544 CURVE",
"844 1544 LINE",
"867 1446 OFFCURVE",
"934 1397 OFFCURVE",
"1045 1397 CURVE SMOOTH",
"1155 1397 OFFCURVE",
"1222 1446 OFFCURVE",
"1245 1544 CURVE"
);
}
);
vertWidth = 2048;
width = 2048;
}
);
unicode = 045E;
},
{
color = 4;
glyphname = "dzhe-cy";
lastChange = "2022-04-07 18:21:41 +0000";
layers = (
{
background = {
paths = (
{
closed = 1;
nodes = (
"1374 113 LINE",
"673 113 LINE",
"673 1157 LINE",
"489 1157 LINE",
"489 -51 LINE",
"937 -51 LINE",
"937 -244 LINE",
"1111 -244 LINE",
"1111 -51 LINE",
"1558 -51 LINE",
"1558 1157 LINE",
"1374 1157 LINE"
);
}
);
};
layerId = "4E782664-D0D5-4FED-AFC2-B9212141A2ED";
paths = (
{
closed = 1;
nodes = (
"937 -51 LINE",
"489 -51 LINE",
"489 1157 LINE",
"673 1157 LINE",
"673 113 LINE",
"1374 113 LINE",
"1374 1157 LINE",
"1558 1157 LINE",
"1558 -51 LINE",
"1111 -51 LINE",
"1111 -244 LINE",
"937 -244 LINE"
);
}
);
vertWidth = 2048;
width = 2048;
}
);
unicode = 045F;
},
{
color = 4;
glyphname = "lje-cy";
lastChange = "2022-04-07 18:21:41 +0000";
layers = (
{
background = {
paths = (
{
closed = 1;
nodes = (
"1333 1157 LINE",
"618 1157 LINE",
"618 663 LINE SMOOTH",
"618 419 OFFCURVE",
"580 82 OFFCURVE",
"391 82 CURVE SMOOTH",
"316 82 OFFCURVE",
"253 136 OFFCURVE",
"202 243 CURVE",
"71 129 LINE",
"152 -17 OFFCURVE",
"257 -90 OFFCURVE",
"387 -90 CURVE SMOOTH",
"670 -90 OFFCURVE",
"800 150 OFFCURVE",
"800 675 CURVE SMOOTH",
"800 993 LINE",
"1149 993 LINE",
"1149 -51 LINE",
"1438 -51 LINE SMOOTH",
"1733 -51 OFFCURVE",
"1944 76 OFFCURVE",
"1944 351 CURVE SMOOTH",
"1944 624 OFFCURVE",
"1729 750 OFFCURVE",
"1428 750 CURVE SMOOTH",
"1333 750 LINE"
);
},
{
closed = 1;
nodes = (
"1333 588 LINE",
"1450 588 LINE SMOOTH",
"1653 588 OFFCURVE",
"1754 509 OFFCURVE",
"1754 351 CURVE SMOOTH",
"1754 185 OFFCURVE",
"1623 113 OFFCURVE",
"1450 113 CURVE SMOOTH",
"1333 113 LINE"
);
}
);
};
layerId = "4E782664-D0D5-4FED-AFC2-B9212141A2ED";
paths = (
{
closed = 1;
nodes = (
"257 -90 OFFCURVE",
"152 -17 OFFCURVE",
"71 129 CURVE",
"202 243 LINE",
"253 136 OFFCURVE",
"316 82 OFFCURVE",
"391 82 CURVE SMOOTH",
"580 82 OFFCURVE",
"618 419 OFFCURVE",
"618 663 CURVE SMOOTH",
"618 1157 LINE",
"1333 1157 LINE",
"1333 750 LINE",
"1428 750 LINE SMOOTH",
"1729 750 OFFCURVE",
"1944 624 OFFCURVE",
"1944 351 CURVE SMOOTH",
"1944 76 OFFCURVE",
"1733 -51 OFFCURVE",
"1438 -51 CURVE SMOOTH",
"1149 -51 LINE",
"1149 993 LINE",
"800 993 LINE",
"800 675 LINE SMOOTH",
"800 150 OFFCURVE",
"670 -90 OFFCURVE",
"387 -90 CURVE SMOOTH"
);
},
{
closed = 1;
nodes = (
"1450 113 LINE SMOOTH",
"1623 113 OFFCURVE",
"1754 185 OFFCURVE",
"1754 351 CURVE SMOOTH",
"1754 509 OFFCURVE",
"1653 588 OFFCURVE",
"1450 588 CURVE SMOOTH",
"1333 588 LINE",
"1333 113 LINE"
);
}
);
vertWidth = 2048;
width = 2048;
}
);
unicode = 0459;
},
{
color = 4;
glyphname = "nje-cy";
lastChange = "2022-04-07 18:21:41 +0000";
layers = (
{
background = {
paths = (
{
closed = 1;
nodes = (
"1204 1157 LINE",
"1020 1157 LINE",
"1020 676 LINE",
"441 676 LINE",
"441 1157 LINE",
"257 1157 LINE",
"257 -51 LINE",
"441 -51 LINE",
"441 512 LINE",
"1020 512 LINE",
"1020 -51 LINE",
"1372 -51 LINE SMOOTH",
"1667 -51 OFFCURVE",
"1878 76 OFFCURVE",
"1878 351 CURVE SMOOTH",
"1878 624 OFFCURVE",
"1663 750 OFFCURVE",
"1362 750 CURVE SMOOTH",
"1204 750 LINE"
);
},
{
closed = 1;
nodes = (
"1204 588 LINE",
"1384 588 LINE SMOOTH",
"1587 588 OFFCURVE",
"1688 509 OFFCURVE",
"1688 351 CURVE SMOOTH",
"1688 185 OFFCURVE",
"1557 113 OFFCURVE",
"1384 113 CURVE SMOOTH",
"1204 113 LINE"
);
}
);
};
layerId = "4E782664-D0D5-4FED-AFC2-B9212141A2ED";
paths = (
{
closed = 1;
nodes = (
"257 1157 LINE",
"441 1157 LINE",
"441 676 LINE",
"1020 676 LINE",
"1020 1157 LINE",
"1204 1157 LINE",
"1204 750 LINE",
"1362 750 LINE SMOOTH",
"1663 750 OFFCURVE",
"1878 624 OFFCURVE",
"1878 351 CURVE SMOOTH",
"1878 76 OFFCURVE",
"1667 -51 OFFCURVE",
"1372 -51 CURVE SMOOTH",
"1020 -51 LINE",
"1020 512 LINE",
"441 512 LINE",
"441 -51 LINE",
"257 -51 LINE"
);
},
{
closed = 1;
nodes = (
"1384 113 LINE SMOOTH",
"1557 113 OFFCURVE",
"1688 185 OFFCURVE",
"1688 351 CURVE SMOOTH",
"1688 509 OFFCURVE",
"1587 588 OFFCURVE",
"1384 588 CURVE SMOOTH",
"1204 588 LINE",
"1204 113 LINE"
);
}
);
vertWidth = 2048;
width = 2048;
}
);
unicode = 045A;
},
{
color = 4;
glyphname = "dze-cy";
lastChange = "2022-04-07 18:21:41 +0000";
layers = (
{
layerId = "4E782664-D0D5-4FED-AFC2-B9212141A2ED";
paths = (
{
closed = 1;
nodes = (
"612 236 LINE",
"736 133 OFFCURVE",
"876 82 OFFCURVE",
"1031 82 CURVE SMOOTH",
"1210 82 OFFCURVE",
"1300 141 OFFCURVE",
"1300 260 CURVE SMOOTH",
"1300 315 OFFCURVE",
"1269 361 OFFCURVE",
"1208 400 CURVE SMOOTH",
"1169 425 OFFCURVE",
"1107 452 OFFCURVE",
"1024 481 CURVE SMOOTH",
"920 518 LINE SMOOTH",
"805 559 OFFCURVE",
"721 600 OFFCURVE",
"669 643 CURVE SMOOTH",
"605 696 OFFCURVE",
"573 767 OFFCURVE",
"573 856 CURVE SMOOTH",
"573 963 OFFCURVE",
"619 1047 OFFCURVE",
"710 1110 CURVE SMOOTH",
"785 1162 OFFCURVE",
"880 1188 OFFCURVE",
"993 1188 CURVE SMOOTH",
"1158 1188 OFFCURVE",
"1311 1140 OFFCURVE",
"1450 1044 CURVE",
"1354 901 LINE",
"1243 986 OFFCURVE",
"1126 1028 OFFCURVE",
"1003 1028 CURVE SMOOTH",
"948 1028 OFFCURVE",
"902 1018 OFFCURVE",
"864 998 CURVE SMOOTH",
"803 967 OFFCURVE",
"773 922 OFFCURVE",
"773 861 CURVE SMOOTH",
"773 813 OFFCURVE",
"794 775 OFFCURVE",
"837 748 CURVE SMOOTH",
"864 731 OFFCURVE",
"924 705 OFFCURVE",
"1018 670 CURVE SMOOTH",
"1145 623 LINE SMOOTH",
"1260 580 OFFCURVE",
"1346 534 OFFCURVE",
"1402 485 CURVE SMOOTH",
"1471 426 OFFCURVE",
"1505 352 OFFCURVE",
"1505 264 CURVE SMOOTH",
"1505 149 OFFCURVE",
"1455 59 OFFCURVE",
"1355 -8 CURVE SMOOTH",
"1278 -59 OFFCURVE",
"1166 -84 OFFCURVE",
"1017 -84 CURVE SMOOTH",
"827 -84 OFFCURVE",
"659 -25 OFFCURVE",
"512 94 CURVE"
);
}
);
vertWidth = 2048;
width = 2048;
}
);
unicode = 0455;
},
{
color = 4;
glyphname = "e-cy";
lastChange = "2022-04-07 18:21:41 +0000";
layers = (
{
background = {
paths = (
{
closed = 1;
nodes = (
"1281 -86 OFFCURVE",
"1454 -10 OFFCURVE",
"1579 143 CURVE",
"1460 266 LINE",
"1357 138 OFFCURVE",
"1227 74 OFFCURVE",
"1071 74 CURVE SMOOTH",
"1014 74 OFFCURVE",
"960 84 OFFCURVE",
"911 105 CURVE SMOOTH",
"828 140 OFFCURVE",
"764 198 OFFCURVE",
"718 279 CURVE SMOOTH",
"675 355 OFFCURVE",
"654 446 OFFCURVE",
"654 551 CURVE SMOOTH",
"654 682 OFFCURVE",
"685 789 OFFCURVE",
"747 874 CURVE SMOOTH",
"822 978 OFFCURVE",
"927 1030 OFFCURVE",
"1060 1030 CURVE SMOOTH",
"1197 1030 OFFCURVE",
"1320 979 OFFCURVE",
"1428 877 CURVE",
"1526 1014 LINE",
"1391 1130 OFFCURVE",
"1232 1188 OFFCURVE",
"1049 1188 CURVE SMOOTH",
"977 1188 OFFCURVE",
"909 1177 OFFCURVE",
"846 1154 CURVE SMOOTH",
"731 1113 OFFCURVE",
"640 1041 OFFCURVE",
"571 940 CURVE SMOOTH",
"496 830 OFFCURVE",
"459 700 OFFCURVE",
"459 550 CURVE SMOOTH",
"459 349 OFFCURVE",
"519 190 OFFCURVE",
"639 73 CURVE SMOOTH",
"748 -33 OFFCURVE",
"889 -86 OFFCURVE",
"1062 -86 CURVE SMOOTH"
);
},
{
closed = 1;
nodes = (
"1415 442 OFFCURVE",
"1359 426 OFFCURVE",
"1308 426 CURVE SMOOTH",
"1267 426 OFFCURVE",
"1215 438 OFFCURVE",
"1154 461 CURVE SMOOTH",
"1103 480 OFFCURVE",
"1058 490 OFFCURVE",
"1019 490 CURVE SMOOTH",
"968 490 OFFCURVE",
"908 473 OFFCURVE",
"840 440 CURVE",
"840 592 LINE",
"905 625 OFFCURVE",
"964 642 OFFCURVE",
"1017 642 CURVE SMOOTH",
"1059 642 OFFCURVE",
"1107 631 OFFCURVE",
"1160 610 CURVE SMOOTH",
"1215 589 OFFCURVE",
"1262 578 OFFCURVE",
"1303 578 CURVE SMOOTH",
"1353 578 OFFCURVE",
"1411 594 OFFCURVE",
"1477 627 CURVE",
"1477 473 LINE"
);
}
);
};
layerId = "4E782664-D0D5-4FED-AFC2-B9212141A2ED";
paths = (
{
closed = 1;
nodes = (
"889 -86 OFFCURVE",
"748 -33 OFFCURVE",
"639 73 CURVE SMOOTH",
"519 190 OFFCURVE",
"459 349 OFFCURVE",
"459 550 CURVE SMOOTH",
"459 700 OFFCURVE",
"496 830 OFFCURVE",
"571 940 CURVE SMOOTH",
"640 1041 OFFCURVE",
"731 1113 OFFCURVE",
"846 1154 CURVE SMOOTH",
"909 1177 OFFCURVE",
"977 1188 OFFCURVE",
"1049 1188 CURVE SMOOTH",
"1232 1188 OFFCURVE",
"1391 1130 OFFCURVE",
"1526 1014 CURVE",
"1428 877 LINE",
"1320 979 OFFCURVE",
"1197 1030 OFFCURVE",
"1060 1030 CURVE SMOOTH",
"927 1030 OFFCURVE",
"822 978 OFFCURVE",
"747 874 CURVE SMOOTH",
"685 789 OFFCURVE",
"654 682 OFFCURVE",
"654 551 CURVE SMOOTH",
"654 446 OFFCURVE",
"675 355 OFFCURVE",
"718 279 CURVE SMOOTH",
"764 198 OFFCURVE",
"828 140 OFFCURVE",
"911 105 CURVE SMOOTH",
"960 84 OFFCURVE",
"1014 74 OFFCURVE",
"1071 74 CURVE SMOOTH",
"1227 74 OFFCURVE",
"1357 138 OFFCURVE",
"1460 266 CURVE",
"1579 143 LINE",
"1454 -10 OFFCURVE",
"1281 -86 OFFCURVE",
"1062 -86 CURVE SMOOTH"
);
},
{
closed = 1;
nodes = (
"1267 426 OFFCURVE",
"1215 438 OFFCURVE",
"1154 461 CURVE SMOOTH",
"1103 480 OFFCURVE",
"1058 490 OFFCURVE",
"1019 490 CURVE SMOOTH",
"968 490 OFFCURVE",
"908 473 OFFCURVE",
"840 440 CURVE",
"840 592 LINE",
"905 625 OFFCURVE",
"964 642 OFFCURVE",
"1017 642 CURVE SMOOTH",
"1059 642 OFFCURVE",
"1107 631 OFFCURVE",
"1160 610 CURVE SMOOTH",
"1215 589 OFFCURVE",
"1262 578 OFFCURVE",
"1303 578 CURVE SMOOTH",
"1353 578 OFFCURVE",
"1411 594 OFFCURVE",
"1477 627 CURVE",
"1477 473 LINE",
"1415 442 OFFCURVE",
"1359 426 OFFCURVE",
"1308 426 CURVE SMOOTH"
);
}
);
vertWidth = 2048;
width = 2048;
}
);
unicode = 0454;
},
{
color = 4;
glyphname = "i-cy";
lastChange = "2022-04-07 18:21:41 +0000";
layers = (
{
layerId = "4E782664-D0D5-4FED-AFC2-B9212141A2ED";
paths = (
{
closed = 1;
nodes = (
"911 1638 LINE",
"1136 1638 LINE",
"1136 1415 LINE",
"911 1415 LINE"
);
},
{
closed = 1;
nodes = (
"929 1157 LINE",
"1117 1157 LINE",
"1117 -51 LINE",
"929 -51 LINE"
);
}
);
vertWidth = 2048;
width = 2048;
}
);
unicode = 0456;
},
{
color = 4;
glyphname = "yi-cy";
lastChange = "2022-04-07 18:21:41 +0000";
layers = (
{
layerId = "4E782664-D0D5-4FED-AFC2-B9212141A2ED";
paths = (
{
closed = 1;
nodes = (
"1117 -51 LINE",
"929 -51 LINE"
);
},
{
closed = 1;
nodes = (
"929 1157 LINE",
"1117 1157 LINE",
"1117 -51 LINE",
"929 -51 LINE"
);
},
{
closed = 1;
nodes = (
"703 1561 LINE",
"924 1561 LINE",
"924 1340 LINE",
"703 1340 LINE"
);
},
{
closed = 1;
nodes = (
"1123 1561 LINE",
"1344 1561 LINE",
"1344 1340 LINE",
"1123 1340 LINE"
);
}
);
vertWidth = 2048;
width = 2048;
}
);
unicode = 0457;
},
{
color = 4;
glyphname = "je-cy";
lastChange = "2022-04-07 18:21:41 +0000";
layers = (
{
layerId = "4E782664-D0D5-4FED-AFC2-B9212141A2ED";
paths = (
{
closed = 1;
nodes = (
"943 1638 LINE",
"1166 1638 LINE",
"1166 1415 LINE",
"943 1415 LINE"
);
},
{
closed = 1;
nodes = (
"963 1157 LINE",
"1148 1157 LINE",
"1148 260 LINE SMOOTH",
"1148 132 OFFCURVE",
"1135 38 OFFCURVE",
"1110 -23 CURVE SMOOTH",
"1079 -97 OFFCURVE",
"1019 -152 OFFCURVE",
"931 -187 CURVE SMOOTH",
"853 -218 OFFCURVE",
"749 -237 OFFCURVE",
"620 -244 CURVE",
"557 -86 LINE",
"713 -82 OFFCURVE",
"820 -57 OFFCURVE",
"878 -11 CURVE SMOOTH",
"919 22 OFFCURVE",
"944 71 OFFCURVE",
"955 137 CURVE SMOOTH",
"960 170 OFFCURVE",
"963 212 OFFCURVE",
"963 262 CURVE SMOOTH"
);
}
);
vertWidth = 2048;
width = 2048;
}
);
unicode = 0458;
},
{
color = 4;
glyphname = "tshe-cy";
lastChange = "2022-04-07 18:21:41 +0000";
layers = (
{
background = {
paths = (
{
closed = 1;
nodes = (
"1428 1008 OFFCURVE",
"1315 1060 OFFCURVE",
"1161 1060 CURVE SMOOTH",
"1081 1060 OFFCURVE",
"1002 1039 OFFCURVE",
"924 996 CURVE SMOOTH",
"850 955 OFFCURVE",
"785 897 OFFCURVE",
"730 822 CURVE",
"730 1337 LINE",
"1237 1337 LINE",
"1237 1497 LINE",
"730 1497 LINE",
"730 1700 LINE",
"544 1700 LINE",
"544 1497 LINE",
"283 1497 LINE",
"283 1337 LINE",
"544 1337 LINE",
"544 -51 LINE",
"730 -51 LINE",
"730 597 LINE",
"779 704 OFFCURVE",
"850 786 OFFCURVE",
"941 841 CURVE SMOOTH",
"1004 879 OFFCURVE",
"1069 898 OFFCURVE",
"1134 898 CURVE SMOOTH",
"1230 898 OFFCURVE",
"1299 865 OFFCURVE",
"1342 800 CURVE SMOOTH",
"1375 749 OFFCURVE",
"1392 673 OFFCURVE",
"1392 570 CURVE SMOOTH",
"1392 -51 LINE",
"1580 -51 LINE",
"1580 593 LINE SMOOTH",
"1580 725 OFFCURVE",
"1553 829 OFFCURVE",
"1500 905 CURVE SMOOTH"
);
}
);
};
layerId = "4E782664-D0D5-4FED-AFC2-B9212141A2ED";
paths = (
{
closed = 1;
nodes = (
"544 1337 LINE",
"283 1337 LINE",
"283 1497 LINE",
"544 1497 LINE",
"544 1700 LINE",
"730 1700 LINE",
"730 1497 LINE",
"1237 1497 LINE",
"1237 1337 LINE",
"730 1337 LINE",
"730 822 LINE",
"785 897 OFFCURVE",
"850 955 OFFCURVE",
"924 996 CURVE SMOOTH",
"1002 1039 OFFCURVE",
"1081 1060 OFFCURVE",
"1161 1060 CURVE SMOOTH",
"1315 1060 OFFCURVE",
"1428 1008 OFFCURVE",
"1500 905 CURVE SMOOTH",
"1553 829 OFFCURVE",
"1580 725 OFFCURVE",
"1580 593 CURVE SMOOTH",
"1580 -51 LINE",
"1392 -51 LINE",
"1392 570 LINE SMOOTH",
"1392 673 OFFCURVE",
"1375 749 OFFCURVE",
"1342 800 CURVE SMOOTH",
"1299 865 OFFCURVE",
"1230 898 OFFCURVE",
"1134 898 CURVE SMOOTH",
"1069 898 OFFCURVE",
"1004 879 OFFCURVE",
"941 841 CURVE SMOOTH",
"850 786 OFFCURVE",
"779 704 OFFCURVE",
"730 597 CURVE",
"730 -51 LINE",
"544 -51 LINE"
);
}
);
vertWidth = 2048;
width = 2048;
}
);
unicode = 045B;
},
{
color = 4;
glyphname = "dje-cy";
lastChange = "2022-04-07 18:21:41 +0000";
layers = (
{
background = {
paths = (
{
closed = 1;
nodes = (
"1428 1008 OFFCURVE",
"1315 1060 OFFCURVE",
"1161 1060 CURVE SMOOTH",
"1081 1060 OFFCURVE",
"1002 1039 OFFCURVE",
"924 996 CURVE SMOOTH",
"850 955 OFFCURVE",
"785 897 OFFCURVE",
"730 822 CURVE",
"730 1337 LINE",
"1237 1337 LINE",
"1237 1497 LINE",
"730 1497 LINE",
"730 1700 LINE",
"544 1700 LINE",
"544 1497 LINE",
"283 1497 LINE",
"283 1337 LINE",
"544 1337 LINE",
"544 -51 LINE",
"730 -51 LINE",
"730 597 LINE",
"779 704 OFFCURVE",
"850 786 OFFCURVE",
"941 841 CURVE SMOOTH",
"1004 879 OFFCURVE",
"1069 898 OFFCURVE",
"1134 898 CURVE SMOOTH",
"1230 898 OFFCURVE",
"1299 865 OFFCURVE",
"1342 800 CURVE SMOOTH",
"1375 749 OFFCURVE",
"1392 673 OFFCURVE",
"1392 570 CURVE SMOOTH",
"1392 231 LINE SMOOTH",
"1392 -6 OFFCURVE",
"1335 -79 OFFCURVE",
"1113 -96 CURVE",
"1172 -244 LINE",
"1503 -201 OFFCURVE",
"1580 -98 OFFCURVE",
"1580 231 CURVE SMOOTH",
"1580 593 LINE SMOOTH",
"1580 725 OFFCURVE",
"1553 829 OFFCURVE",
"1500 905 CURVE SMOOTH"
);
}
);
};
layerId = "4E782664-D0D5-4FED-AFC2-B9212141A2ED";
paths = (
{
closed = 1;
nodes = (
"1113 -96 LINE",
"1335 -79 OFFCURVE",
"1392 -6 OFFCURVE",
"1392 231 CURVE SMOOTH",
"1392 570 LINE SMOOTH",
"1392 673 OFFCURVE",
"1375 749 OFFCURVE",
"1342 800 CURVE SMOOTH",
"1299 865 OFFCURVE",
"1230 898 OFFCURVE",
"1134 898 CURVE SMOOTH",
"1069 898 OFFCURVE",
"1004 879 OFFCURVE",
"941 841 CURVE SMOOTH",
"850 786 OFFCURVE",
"779 704 OFFCURVE",
"730 597 CURVE",
"730 -51 LINE",
"544 -51 LINE",
"544 1337 LINE",
"283 1337 LINE",
"283 1497 LINE",
"544 1497 LINE",
"544 1700 LINE",
"730 1700 LINE",
"730 1497 LINE",
"1237 1497 LINE",
"1237 1337 LINE",
"730 1337 LINE",
"730 822 LINE",
"785 897 OFFCURVE",
"850 955 OFFCURVE",
"924 996 CURVE SMOOTH",
"1002 1039 OFFCURVE",
"1081 1060 OFFCURVE",
"1161 1060 CURVE SMOOTH",
"1315 1060 OFFCURVE",
"1428 1008 OFFCURVE",
"1500 905 CURVE SMOOTH",
"1553 829 OFFCURVE",
"1580 725 OFFCURVE",
"1580 593 CURVE SMOOTH",
"1580 231 LINE SMOOTH",
"1580 -98 OFFCURVE",
"1503 -201 OFFCURVE",
"1172 -244 CURVE"
);
}
);
vertWidth = 2048;
width = 2048;
}
);
unicode = 0452;
},
{
color = 4;
glyphname = Alphatonos;
lastChange = "2022-04-07 18:21:41 +0000";
layers = (
{
layerId = "4E782664-D0D5-4FED-AFC2-B9212141A2ED";
paths = (
{
closed = 1;
nodes = (
"927 1616 LINE",
"1120 1616 LINE",
"1777 -51 LINE",
"1568 -51 LINE",
"1382 438 LINE",
"665 438 LINE",
"479 -51 LINE",
"270 -51 LINE"
);
},
{
closed = 1;
nodes = (
"1327 596 LINE",
"1153 1055 LINE SMOOTH",
"1091 1218 OFFCURVE",
"1048 1340 OFFCURVE",
"1028 1423 CURVE",
"1020 1423 LINE",
"1000 1345 OFFCURVE",
"958 1222 OFFCURVE",
"895 1055 CURVE SMOOTH",
"721 596 LINE"
);
},
{
closed = 1;
nodes = (
"379 1608 LINE",
"623 1608 LINE",
"403 1170 LINE",
"263 1170 LINE"
);
}
);
vertWidth = 2048;
width = 2048;
}
);
unicode = 0386;
},
{
color = 4;
glyphname = Epsilontonos;
lastChange = "2022-04-07 18:21:41 +0000";
layers = (
{
layerId = "4E782664-D0D5-4FED-AFC2-B9212141A2ED";
paths = (
{
closed = 1;
nodes = (
"594 1608 LINE",
"1573 1608 LINE",
"1573 1444 LINE",
"780 1444 LINE",
"780 889 LINE",
"1477 889 LINE",
"1477 729 LINE",
"780 729 LINE",
"780 117 LINE",
"1600 117 LINE",
"1600 -51 LINE",
"594 -51 LINE"
);
},
{
closed = 1;
nodes = (
"199 1608 LINE",
"443 1608 LINE",
"223 1170 LINE",
"83 1170 LINE"
);
}
);
vertWidth = 2048;
width = 2048;
}
);
unicode = 0388;
},
{
color = 4;
glyphname = Etatonos;
lastChange = "2022-04-07 18:21:41 +0000";
layers = (
{
layerId = "4E782664-D0D5-4FED-AFC2-B9212141A2ED";
paths = (
{
closed = 1;
nodes = (
"583 1608 LINE",
"769 1608 LINE",
"769 889 LINE",
"1479 889 LINE",
"1479 1608 LINE",
"1665 1608 LINE",
"1665 -51 LINE",
"1479 -51 LINE",
"1479 729 LINE",
"769 729 LINE",
"769 -51 LINE",
"583 -51 LINE"
);
},
{
closed = 1;
nodes = (
"199 1608 LINE",
"443 1608 LINE",
"223 1170 LINE",
"83 1170 LINE"
);
}
);
vertWidth = 2048;
width = 2048;
}
);
unicode = 0389;
},
{
color = 4;
glyphname = Iotatonos;
lastChange = "2022-04-07 18:21:41 +0000";
layers = (
{
layerId = "4E782664-D0D5-4FED-AFC2-B9212141A2ED";
paths = (
{
closed = 1;
nodes = (
"721 1608 LINE",
"1327 1608 LINE",
"1327 1463 LINE",
"1118 1463 LINE",
"1118 94 LINE",
"1327 94 LINE",
"1327 -51 LINE",
"721 -51 LINE",
"721 94 LINE",
"930 94 LINE",
"930 1463 LINE",
"721 1463 LINE"
);
},
{
closed = 1;
nodes = (
"299 1608 LINE",
"543 1608 LINE",
"323 1170 LINE",
"183 1170 LINE"
);
}
);
vertWidth = 2048;
width = 2048;
}
);
unicode = 038A;
},
{
color = 4;
glyphname = Omicrontonos;
lastChange = "2022-04-07 18:21:41 +0000";
layers = (
{
layerId = "4E782664-D0D5-4FED-AFC2-B9212141A2ED";
paths = (
{
closed = 1;
nodes = (
"1595 1640 OFFCURVE",
"1807 1268 OFFCURVE",
"1807 779 CURVE SMOOTH",
"1807 285 OFFCURVE",
"1603 -84 OFFCURVE",
"1124 -84 CURVE SMOOTH",
"648 -84 OFFCURVE",
"442 283 OFFCURVE",
"442 779 CURVE SMOOTH",
"442 1272 OFFCURVE",
"651 1640 OFFCURVE",
"1128 1640 CURVE SMOOTH"
);
},
{
closed = 1;
nodes = (
"764 1478 OFFCURVE",
"649 1168 OFFCURVE",
"649 778 CURVE SMOOTH",
"649 390 OFFCURVE",
"762 84 OFFCURVE",
"1125 84 CURVE SMOOTH",
"1486 84 OFFCURVE",
"1600 388 OFFCURVE",
"1600 778 CURVE SMOOTH",
"1600 1168 OFFCURVE",
"1486 1478 OFFCURVE",
"1122 1478 CURVE SMOOTH"
);
},
{
closed = 1;
nodes = (
"199 1608 LINE",
"443 1608 LINE",
"223 1170 LINE",
"83 1170 LINE"
);
}
);
vertWidth = 2048;
width = 2048;
}
);
unicode = 038C;
},
{
color = 4;
glyphname = Upsilontonos;
lastChange = "2022-04-07 18:21:41 +0000";
layers = (
{
layerId = "4E782664-D0D5-4FED-AFC2-B9212141A2ED";
paths = (
{
closed = 1;
nodes = (
"1082 -51 LINE",
"1082 743 LINE SMOOTH",
"1082 1110 OFFCURVE",
"1068 1474 OFFCURVE",
"771 1474 CURVE SMOOTH",
"699 1474 OFFCURVE",
"642 1442 OFFCURVE",
"599 1378 CURVE",
"499 1503 LINE",
"575 1594 OFFCURVE",
"668 1640 OFFCURVE",
"776 1640 CURVE SMOOTH",
"1096 1640 OFFCURVE",
"1139 1389 OFFCURVE",
"1170 1026 CURVE",
"1178 1026 LINE",
"1210 1382 OFFCURVE",
"1251 1640 OFFCURVE",
"1571 1640 CURVE SMOOTH",
"1679 1640 OFFCURVE",
"1772 1594 OFFCURVE",
"1849 1503 CURVE",
"1749 1378 LINE",
"1706 1442 OFFCURVE",
"1648 1474 OFFCURVE",
"1576 1474 CURVE SMOOTH",
"1284 1474 OFFCURVE",
"1266 1111 OFFCURVE",
"1266 743 CURVE SMOOTH",
"1266 -51 LINE"
);
},
{
closed = 1;
nodes = (
"199 1608 LINE",
"443 1608 LINE",
"223 1170 LINE",
"83 1170 LINE"
);
}
);
vertWidth = 2048;
width = 2048;
}
);
unicode = 038E;
},
{
color = 4;
glyphname = Omegatonos;
lastChange = "2022-04-07 18:21:41 +0000";
layers = (
{
layerId = "4E782664-D0D5-4FED-AFC2-B9212141A2ED";
paths = (
{
closed = 1;
nodes = (
"831 113 LINE",
"831 234 LINE",
"597 406 OFFCURVE",
"481 632 OFFCURVE",
"481 915 CURVE SMOOTH",
"481 1374 OFFCURVE",
"720 1645 OFFCURVE",
"1124 1645 CURVE SMOOTH",
"1528 1645 OFFCURVE",
"1767 1374 OFFCURVE",
"1767 916 CURVE SMOOTH",
"1767 631 OFFCURVE",
"1651 405 OFFCURVE",
"1417 234 CURVE",
"1417 113 LINE",
"1794 113 LINE",
"1794 -51 LINE",
"1251 -51 LINE",
"1251 318 LINE",
"1462 458 OFFCURVE",
"1566 656 OFFCURVE",
"1566 915 CURVE SMOOTH",
"1566 1268 OFFCURVE",
"1402 1477 OFFCURVE",
"1124 1477 CURVE SMOOTH",
"846 1477 OFFCURVE",
"682 1268 OFFCURVE",
"682 914 CURVE SMOOTH",
"682 656 OFFCURVE",
"786 458 OFFCURVE",
"997 318 CURVE",
"997 -51 LINE",
"454 -51 LINE",
"454 113 LINE"
);
},
{
closed = 1;
nodes = (
"199 1608 LINE",
"443 1608 LINE",
"223 1170 LINE",
"83 1170 LINE"
);
}
);
vertWidth = 2048;
width = 2048;
}
);
unicode = 038F;
},
{
color = 4;
glyphname = Iotadieresis;
lastChange = "2022-04-07 18:21:41 +0000";
layers = (
{
layerId = "4E782664-D0D5-4FED-AFC2-B9212141A2ED";
paths = (
{
closed = 1;
nodes = (
"721 1488 LINE",
"1327 1488 LINE",
"1327 1343 LINE",
"1118 1343 LINE",
"1118 94 LINE",
"1327 94 LINE",
"1327 -51 LINE",
"721 -51 LINE",
"721 94 LINE",
"930 94 LINE",
"930 1343 LINE",
"721 1343 LINE"
);
},
{
closed = 1;
nodes = (
"700 1800 LINE",
"921 1800 LINE",
"921 1605 LINE",
"700 1605 LINE"
);
},
{
closed = 1;
nodes = (
"1120 1800 LINE",
"1341 1800 LINE",
"1341 1605 LINE",
"1120 1605 LINE"
);
}
);
vertWidth = 2048;
width = 2048;
}
);
unicode = 03AA;
},
{
color = 4;
glyphname = Upsilondieresis;
lastChange = "2022-04-07 18:21:41 +0000";
layers = (
{
background = {
paths = (
{
closed = 1;
nodes = (
"932 -51 LINE",
"932 743 LINE SMOOTH",
"932 959 OFFCURVE",
"899 1130 OFFCURVE",
"832 1257 CURVE SMOOTH",
"757 1402 OFFCURVE",
"653 1474 OFFCURVE",
"521 1474 CURVE SMOOTH",
"428 1474 OFFCURVE",
"354 1442 OFFCURVE",
"299 1378 CURVE",
"199 1503 LINE",
"289 1594 OFFCURVE",
"398 1640 OFFCURVE",
"526 1640 CURVE SMOOTH",
"709 1640 OFFCURVE",
"843 1557 OFFCURVE",
"930 1390 CURVE SMOOTH",
"977 1299 OFFCURVE",
"1007 1177 OFFCURVE",
"1020 1026 CURVE",
"1028 1026 LINE",
"1044 1207 OFFCURVE",
"1084 1346 OFFCURVE",
"1149 1442 CURVE SMOOTH",
"1238 1574 OFFCURVE",
"1362 1640 OFFCURVE",
"1521 1640 CURVE SMOOTH",
"1649 1640 OFFCURVE",
"1758 1594 OFFCURVE",
"1849 1503 CURVE",
"1749 1378 LINE",
"1693 1442 OFFCURVE",
"1619 1474 OFFCURVE",
"1526 1474 CURVE SMOOTH",
"1434 1474 OFFCURVE",
"1353 1435 OFFCURVE",
"1284 1357 CURVE SMOOTH",
"1172 1232 OFFCURVE",
"1116 1028 OFFCURVE",
"1116 743 CURVE SMOOTH",
"1116 -51 LINE"
);
}
);
};
layerId = "4E782664-D0D5-4FED-AFC2-B9212141A2ED";
paths = (
{
closed = 1;
nodes = (
"932 -51 LINE",
"932 623 LINE SMOOTH",
"932 839 OFFCURVE",
"899 1010 OFFCURVE",
"832 1137 CURVE SMOOTH",
"757 1282 OFFCURVE",
"653 1354 OFFCURVE",
"521 1354 CURVE SMOOTH",
"428 1354 OFFCURVE",
"354 1322 OFFCURVE",
"299 1258 CURVE",
"199 1383 LINE",
"289 1474 OFFCURVE",
"398 1520 OFFCURVE",
"526 1520 CURVE SMOOTH",
"709 1520 OFFCURVE",
"843 1437 OFFCURVE",
"930 1270 CURVE SMOOTH",
"977 1179 OFFCURVE",
"1007 1057 OFFCURVE",
"1020 906 CURVE",
"1028 906 LINE",
"1044 1087 OFFCURVE",
"1084 1226 OFFCURVE",
"1149 1322 CURVE SMOOTH",
"1238 1454 OFFCURVE",
"1362 1520 OFFCURVE",
"1521 1520 CURVE SMOOTH",
"1649 1520 OFFCURVE",
"1758 1474 OFFCURVE",
"1849 1383 CURVE",
"1749 1258 LINE",
"1693 1322 OFFCURVE",
"1619 1354 OFFCURVE",
"1526 1354 CURVE SMOOTH",
"1434 1354 OFFCURVE",
"1353 1315 OFFCURVE",
"1284 1237 CURVE SMOOTH",
"1172 1112 OFFCURVE",
"1116 908 OFFCURVE",
"1116 623 CURVE SMOOTH",
"1116 -51 LINE"
);
},
{
closed = 1;
nodes = (
"700 1800 LINE",
"921 1800 LINE",
"921 1605 LINE",
"700 1605 LINE"
);
},
{
closed = 1;
nodes = (
"1120 1800 LINE",
"1341 1800 LINE",
"1341 1605 LINE",
"1120 1605 LINE"
);
}
);
vertWidth = 2048;
width = 2048;
}
);
unicode = 03AB;
},
{
color = 4;
glyphname = iotatonos;
lastChange = "2022-04-07 18:21:41 +0000";
layers = (
{
layerId = "4E782664-D0D5-4FED-AFC2-B9212141A2ED";
paths = (
{
closed = 1;
nodes = (
"1427 282 LINE",
"1284 34 OFFCURVE",
"1115 -90 OFFCURVE",
"920 -90 CURVE SMOOTH",
"811 -90 OFFCURVE",
"726 -56 OFFCURVE",
"665 12 CURVE SMOOTH",
"612 72 OFFCURVE",
"585 147 OFFCURVE",
"585 236 CURVE SMOOTH",
"585 296 OFFCURVE",
"600 366 OFFCURVE",
"629 445 CURVE SMOOTH",
"677 573 OFFCURVE",
"771 789 OFFCURVE",
"917 1089 CURVE SMOOTH",
"950 1157 LINE",
"1163 1157 LINE",
"1006 852 OFFCURVE",
"888 607 OFFCURVE",
"811 420 CURVE SMOOTH",
"782 349 OFFCURVE",
"768 293 OFFCURVE",
"768 251 CURVE SMOOTH",
"768 203 OFFCURVE",
"780 164 OFFCURVE",
"805 134 CURVE SMOOTH",
"834 98 OFFCURVE",
"873 80 OFFCURVE",
"924 80 CURVE SMOOTH",
"1051 80 OFFCURVE",
"1166 178 OFFCURVE",
"1269 375 CURVE"
);
},
{
closed = 1;
nodes = (
"1219 1802 LINE",
"1443 1802 LINE",
"1173 1364 LINE",
"1043 1364 LINE"
);
}
);
vertWidth = 2048;
width = 2048;
}
);
unicode = 03AF;
},
{
color = 4;
glyphname = iotadieresis;
lastChange = "2022-04-07 18:21:41 +0000";
layers = (
{
layerId = "4E782664-D0D5-4FED-AFC2-B9212141A2ED";
paths = (
{
closed = 1;
nodes = (
"1427 282 LINE",
"1284 34 OFFCURVE",
"1115 -90 OFFCURVE",
"920 -90 CURVE SMOOTH",
"811 -90 OFFCURVE",
"726 -56 OFFCURVE",
"665 12 CURVE SMOOTH",
"612 72 OFFCURVE",
"585 147 OFFCURVE",
"585 236 CURVE SMOOTH",
"585 296 OFFCURVE",
"600 366 OFFCURVE",
"629 445 CURVE SMOOTH",
"677 573 OFFCURVE",
"771 789 OFFCURVE",
"917 1089 CURVE SMOOTH",
"950 1157 LINE",
"1163 1157 LINE",
"1006 852 OFFCURVE",
"888 607 OFFCURVE",
"811 420 CURVE SMOOTH",
"782 349 OFFCURVE",
"768 293 OFFCURVE",
"768 251 CURVE SMOOTH",
"768 203 OFFCURVE",
"780 164 OFFCURVE",
"805 134 CURVE SMOOTH",
"834 98 OFFCURVE",
"873 80 OFFCURVE",
"924 80 CURVE SMOOTH",
"1051 80 OFFCURVE",
"1166 178 OFFCURVE",
"1269 375 CURVE"
);
},
{
closed = 1;
nodes = (
"843 1561 LINE",
"1064 1561 LINE",
"1064 1340 LINE",
"843 1340 LINE"
);
},
{
closed = 1;
nodes = (
"1263 1561 LINE",
"1484 1561 LINE",
"1484 1340 LINE",
"1263 1340 LINE"
);
}
);
vertWidth = 2048;
width = 2048;
}
);
unicode = 03CA;
},
{
color = 4;
glyphname = iotadieresistonos;
lastChange = "2022-04-07 18:21:41 +0000";
layers = (
{
background = {
paths = (
{
closed = 1;
nodes = (
"1219 1802 LINE",
"1443 1802 LINE",
"1173 1364 LINE",
"1043 1364 LINE"
);
},
{
closed = 1;
nodes = (
"759 1561 LINE",
"980 1561 LINE",
"980 1340 LINE",
"759 1340 LINE"
);
},
{
closed = 1;
nodes = (
"1328 1561 LINE",
"1549 1561 LINE",
"1549 1340 LINE",
"1328 1340 LINE"
);
}
);
};
layerId = "4E782664-D0D5-4FED-AFC2-B9212141A2ED";
paths = (
{
closed = 1;
nodes = (
"1427 282 LINE",
"1284 34 OFFCURVE",
"1115 -90 OFFCURVE",
"920 -90 CURVE SMOOTH",
"811 -90 OFFCURVE",
"726 -56 OFFCURVE",
"665 12 CURVE SMOOTH",
"612 72 OFFCURVE",
"585 147 OFFCURVE",
"585 236 CURVE SMOOTH",
"585 296 OFFCURVE",
"600 366 OFFCURVE",
"629 445 CURVE SMOOTH",
"677 573 OFFCURVE",
"771 789 OFFCURVE",
"917 1089 CURVE SMOOTH",
"950 1157 LINE",
"1163 1157 LINE",
"1006 852 OFFCURVE",
"888 607 OFFCURVE",
"811 420 CURVE SMOOTH",
"782 349 OFFCURVE",
"768 293 OFFCURVE",
"768 251 CURVE SMOOTH",
"768 203 OFFCURVE",
"780 164 OFFCURVE",
"805 134 CURVE SMOOTH",
"834 98 OFFCURVE",
"873 80 OFFCURVE",
"924 80 CURVE SMOOTH",
"1051 80 OFFCURVE",
"1166 178 OFFCURVE",
"1269 375 CURVE"
);
},
{
closed = 1;
nodes = (
"1169 1802 LINE",
"1393 1802 LINE",
"1173 1340 LINE",
"1043 1340 LINE"
);
},
{
closed = 1;
nodes = (
"709 1561 LINE",
"930 1561 LINE",
"930 1340 LINE",
"709 1340 LINE"
);
},
{
closed = 1;
nodes = (
"1378 1561 LINE",
"1599 1561 LINE",
"1599 1340 LINE",
"1378 1340 LINE"
);
}
);
vertWidth = 2048;
width = 2048;
}
);
unicode = 0390;
},
{
color = 4;
glyphname = upsilontonos;
lastChange = "2022-04-07 18:21:41 +0000";
layers = (
{
layerId = "4E782664-D0D5-4FED-AFC2-B9212141A2ED";
paths = (
{
closed = 1;
nodes = (
"295 954 LINE",
"447 1114 OFFCURVE",
"591 1194 OFFCURVE",
"726 1194 CURVE SMOOTH",
"785 1194 OFFCURVE",
"832 1178 OFFCURVE",
"867 1147 CURVE SMOOTH",
"908 1112 OFFCURVE",
"928 1061 OFFCURVE",
"928 995 CURVE SMOOTH",
"928 904 OFFCURVE",
"884 784 OFFCURVE",
"796 633 CURVE SMOOTH",
"709 482 OFFCURVE",
"665 364 OFFCURVE",
"665 277 CURVE SMOOTH",
"665 148 OFFCURVE",
"744 84 OFFCURVE",
"901 84 CURVE SMOOTH",
"1002 84 OFFCURVE",
"1097 116 OFFCURVE",
"1185 181 CURVE SMOOTH",
"1261 237 OFFCURVE",
"1321 309 OFFCURVE",
"1364 396 CURVE SMOOTH",
"1407 481 OFFCURVE",
"1428 573 OFFCURVE",
"1428 671 CURVE SMOOTH",
"1428 832 OFFCURVE",
"1379 981 OFFCURVE",
"1282 1118 CURVE",
"1450 1208 LINE",
"1562 1039 OFFCURVE",
"1618 863 OFFCURVE",
"1618 678 CURVE SMOOTH",
"1618 497 OFFCURVE",
"1558 331 OFFCURVE",
"1438 180 CURVE SMOOTH",
"1400 132 OFFCURVE",
"1356 90 OFFCURVE",
"1307 54 CURVE SMOOTH",
"1180 -41 OFFCURVE",
"1039 -88 OFFCURVE",
"884 -88 CURVE SMOOTH",
"771 -88 OFFCURVE",
"679 -62 OFFCURVE",
"608 -10 CURVE SMOOTH",
"521 54 OFFCURVE",
"477 145 OFFCURVE",
"477 264 CURVE SMOOTH",
"477 323 OFFCURVE",
"489 384 OFFCURVE",
"512 449 CURVE SMOOTH",
"531 500 OFFCURVE",
"564 566 OFFCURVE",
"613 648 CURVE SMOOTH",
"700 794 OFFCURVE",
"744 900 OFFCURVE",
"744 967 CURVE SMOOTH",
"744 1014 OFFCURVE",
"721 1038 OFFCURVE",
"676 1038 CURVE SMOOTH",
"603 1038 OFFCURVE",
"508 962 OFFCURVE",
"391 811 CURVE"
);
},
{
closed = 1;
nodes = (
"1279 1802 LINE",
"1503 1802 LINE",
"1233 1364 LINE",
"1103 1364 LINE"
);
}
);
vertWidth = 2048;
width = 2048;
}
);
unicode = 03CD;
},
{
color = 4;
glyphname = upsilondieresis;
lastChange = "2022-04-07 18:21:41 +0000";
layers = (
{
background = {
paths = (
{
closed = 1;
nodes = (
"295 954 LINE",
"447 1114 OFFCURVE",
"591 1194 OFFCURVE",
"726 1194 CURVE SMOOTH",
"785 1194 OFFCURVE",
"832 1178 OFFCURVE",
"867 1147 CURVE SMOOTH",
"908 1112 OFFCURVE",
"928 1061 OFFCURVE",
"928 995 CURVE SMOOTH",
"928 904 OFFCURVE",
"884 784 OFFCURVE",
"796 633 CURVE SMOOTH",
"709 482 OFFCURVE",
"665 364 OFFCURVE",
"665 277 CURVE SMOOTH",
"665 148 OFFCURVE",
"744 84 OFFCURVE",
"901 84 CURVE SMOOTH",
"1002 84 OFFCURVE",
"1097 116 OFFCURVE",
"1185 181 CURVE SMOOTH",
"1261 237 OFFCURVE",
"1321 309 OFFCURVE",
"1364 396 CURVE SMOOTH",
"1407 481 OFFCURVE",
"1428 573 OFFCURVE",
"1428 671 CURVE SMOOTH",
"1428 832 OFFCURVE",
"1379 981 OFFCURVE",
"1282 1118 CURVE",
"1450 1208 LINE",
"1562 1039 OFFCURVE",
"1618 863 OFFCURVE",
"1618 678 CURVE SMOOTH",
"1618 497 OFFCURVE",
"1558 331 OFFCURVE",
"1438 180 CURVE SMOOTH",
"1400 132 OFFCURVE",
"1356 90 OFFCURVE",
"1307 54 CURVE SMOOTH",
"1180 -41 OFFCURVE",
"1039 -88 OFFCURVE",
"884 -88 CURVE SMOOTH",
"771 -88 OFFCURVE",
"679 -62 OFFCURVE",
"608 -10 CURVE SMOOTH",
"521 54 OFFCURVE",
"477 145 OFFCURVE",
"477 264 CURVE SMOOTH",
"477 323 OFFCURVE",
"489 384 OFFCURVE",
"512 449 CURVE SMOOTH",
"531 500 OFFCURVE",
"564 566 OFFCURVE",
"613 648 CURVE SMOOTH",
"700 794 OFFCURVE",
"744 900 OFFCURVE",
"744 967 CURVE SMOOTH",
"744 1014 OFFCURVE",
"721 1038 OFFCURVE",
"676 1038 CURVE SMOOTH",
"603 1038 OFFCURVE",
"508 962 OFFCURVE",
"391 811 CURVE"
);
},
{
closed = 1;
nodes = (
"1279 1802 LINE",
"1503 1802 LINE",
"1233 1364 LINE",
"1103 1364 LINE"
);
},
{
closed = 1;
nodes = (
"819 1524 LINE",
"1040 1524 LINE",
"1040 1340 LINE",
"819 1340 LINE"
);
},
{
closed = 1;
nodes = (
"1388 1524 LINE",
"1609 1524 LINE",
"1609 1340 LINE",
"1388 1340 LINE"
);
}
);
};
layerId = "4E782664-D0D5-4FED-AFC2-B9212141A2ED";
paths = (
{
closed = 1;
nodes = (
"295 954 LINE",
"447 1114 OFFCURVE",
"591 1194 OFFCURVE",
"726 1194 CURVE SMOOTH",
"785 1194 OFFCURVE",
"832 1178 OFFCURVE",
"867 1147 CURVE SMOOTH",
"908 1112 OFFCURVE",
"928 1061 OFFCURVE",
"928 995 CURVE SMOOTH",
"928 904 OFFCURVE",
"884 784 OFFCURVE",
"796 633 CURVE SMOOTH",
"709 482 OFFCURVE",
"665 364 OFFCURVE",
"665 277 CURVE SMOOTH",
"665 148 OFFCURVE",
"744 84 OFFCURVE",
"901 84 CURVE SMOOTH",
"1002 84 OFFCURVE",
"1097 116 OFFCURVE",
"1185 181 CURVE SMOOTH",
"1261 237 OFFCURVE",
"1321 309 OFFCURVE",
"1364 396 CURVE SMOOTH",
"1407 481 OFFCURVE",
"1428 573 OFFCURVE",
"1428 671 CURVE SMOOTH",
"1428 832 OFFCURVE",
"1379 981 OFFCURVE",
"1282 1118 CURVE",
"1450 1208 LINE",
"1562 1039 OFFCURVE",
"1618 863 OFFCURVE",
"1618 678 CURVE SMOOTH",
"1618 497 OFFCURVE",
"1558 331 OFFCURVE",
"1438 180 CURVE SMOOTH",
"1400 132 OFFCURVE",
"1356 90 OFFCURVE",
"1307 54 CURVE SMOOTH",
"1180 -41 OFFCURVE",
"1039 -88 OFFCURVE",
"884 -88 CURVE SMOOTH",
"771 -88 OFFCURVE",
"679 -62 OFFCURVE",
"608 -10 CURVE SMOOTH",
"521 54 OFFCURVE",
"477 145 OFFCURVE",
"477 264 CURVE SMOOTH",
"477 323 OFFCURVE",
"489 384 OFFCURVE",
"512 449 CURVE SMOOTH",
"531 500 OFFCURVE",
"564 566 OFFCURVE",
"613 648 CURVE SMOOTH",
"700 794 OFFCURVE",
"744 900 OFFCURVE",
"744 967 CURVE SMOOTH",
"744 1014 OFFCURVE",
"721 1038 OFFCURVE",
"676 1038 CURVE SMOOTH",
"603 1038 OFFCURVE",
"508 962 OFFCURVE",
"391 811 CURVE"
);
},
{
closed = 1;
nodes = (
"888 1561 LINE",
"1109 1561 LINE",
"1109 1340 LINE",
"888 1340 LINE"
);
},
{
closed = 1;
nodes = (
"1308 1561 LINE",
"1529 1561 LINE",
"1529 1340 LINE",
"1308 1340 LINE"
);
}
);
vertWidth = 2048;
width = 2048;
}
);
unicode = 03CB;
},
{
color = 4;
glyphname = upsilondieresistonos;
lastChange = "2022-04-07 18:21:41 +0000";
layers = (
{
layerId = "4E782664-D0D5-4FED-AFC2-B9212141A2ED";
paths = (
{
closed = 1;
nodes = (
"295 954 LINE",
"447 1114 OFFCURVE",
"591 1194 OFFCURVE",
"726 1194 CURVE SMOOTH",
"785 1194 OFFCURVE",
"832 1178 OFFCURVE",
"867 1147 CURVE SMOOTH",
"908 1112 OFFCURVE",
"928 1061 OFFCURVE",
"928 995 CURVE SMOOTH",
"928 904 OFFCURVE",
"884 784 OFFCURVE",
"796 633 CURVE SMOOTH",
"709 482 OFFCURVE",
"665 364 OFFCURVE",
"665 277 CURVE SMOOTH",
"665 148 OFFCURVE",
"744 84 OFFCURVE",
"901 84 CURVE SMOOTH",
"1002 84 OFFCURVE",
"1097 116 OFFCURVE",
"1185 181 CURVE SMOOTH",
"1261 237 OFFCURVE",
"1321 309 OFFCURVE",
"1364 396 CURVE SMOOTH",
"1407 481 OFFCURVE",
"1428 573 OFFCURVE",
"1428 671 CURVE SMOOTH",
"1428 832 OFFCURVE",
"1379 981 OFFCURVE",
"1282 1118 CURVE",
"1450 1208 LINE",
"1562 1039 OFFCURVE",
"1618 863 OFFCURVE",
"1618 678 CURVE SMOOTH",
"1618 497 OFFCURVE",
"1558 331 OFFCURVE",
"1438 180 CURVE SMOOTH",
"1400 132 OFFCURVE",
"1356 90 OFFCURVE",
"1307 54 CURVE SMOOTH",
"1180 -41 OFFCURVE",
"1039 -88 OFFCURVE",
"884 -88 CURVE SMOOTH",
"771 -88 OFFCURVE",
"679 -62 OFFCURVE",
"608 -10 CURVE SMOOTH",
"521 54 OFFCURVE",
"477 145 OFFCURVE",
"477 264 CURVE SMOOTH",
"477 323 OFFCURVE",
"489 384 OFFCURVE",
"512 449 CURVE SMOOTH",
"531 500 OFFCURVE",
"564 566 OFFCURVE",
"613 648 CURVE SMOOTH",
"700 794 OFFCURVE",
"744 900 OFFCURVE",
"744 967 CURVE SMOOTH",
"744 1014 OFFCURVE",
"721 1038 OFFCURVE",
"676 1038 CURVE SMOOTH",
"603 1038 OFFCURVE",
"508 962 OFFCURVE",
"391 811 CURVE"
);
},
{
closed = 1;
nodes = (
"1229 1802 LINE",
"1453 1802 LINE",
"1233 1340 LINE",
"1103 1340 LINE"
);
},
{
closed = 1;
nodes = (
"769 1561 LINE",
"990 1561 LINE",
"990 1340 LINE",
"769 1340 LINE"
);
},
{
closed = 1;
nodes = (
"1438 1561 LINE",
"1659 1561 LINE",
"1659 1340 LINE",
"1438 1340 LINE"
);
}
);
vertWidth = 2048;
width = 2048;
}
);
unicode = 03B0;
},
{
color = 4;
glyphname = omicrontonos;
lastChange = "2022-04-07 18:21:41 +0000";
layers = (
{
layerId = "4E782664-D0D5-4FED-AFC2-B9212141A2ED";
paths = (
{
closed = 1;
nodes = (
"1268 1194 OFFCURVE",
"1389 1140 OFFCURVE",
"1475 1032 CURVE SMOOTH",
"1544 945 OFFCURVE",
"1579 832 OFFCURVE",
"1579 693 CURVE SMOOTH",
"1579 496 OFFCURVE",
"1525 323 OFFCURVE",
"1416 173 CURVE SMOOTH",
"1289 -2 OFFCURVE",
"1127 -90 OFFCURVE",
"931 -90 CURVE SMOOTH",
"786 -90 OFFCURVE",
"670 -41 OFFCURVE",
"581 57 CURVE SMOOTH",
"498 148 OFFCURVE",
"457 266 OFFCURVE",
"457 411 CURVE SMOOTH",
"457 578 OFFCURVE",
"500 731 OFFCURVE",
"587 872 CURVE SMOOTH",
"667 1003 OFFCURVE",
"769 1095 OFFCURVE",
"893 1148 CURVE SMOOTH",
"962 1179 OFFCURVE",
"1035 1194 OFFCURVE",
"1112 1194 CURVE SMOOTH"
);
},
{
closed = 1;
nodes = (
"1018 1034 OFFCURVE",
"935 999 OFFCURVE",
"858 928 CURVE SMOOTH",
"798 873 OFFCURVE",
"749 805 OFFCURVE",
"712 723 CURVE SMOOTH",
"667 624 OFFCURVE",
"645 520 OFFCURVE",
"645 412 CURVE SMOOTH",
"645 331 OFFCURVE",
"660 264 OFFCURVE",
"689 209 CURVE SMOOTH",
"738 118 OFFCURVE",
"818 72 OFFCURVE",
"927 72 CURVE SMOOTH",
"1037 72 OFFCURVE",
"1134 119 OFFCURVE",
"1219 212 CURVE SMOOTH",
"1332 336 OFFCURVE",
"1389 496 OFFCURVE",
"1389 692 CURVE SMOOTH",
"1389 805 OFFCURVE",
"1363 891 OFFCURVE",
"1310 950 CURVE SMOOTH",
"1260 1006 OFFCURVE",
"1192 1034 OFFCURVE",
"1106 1034 CURVE SMOOTH"
);
},
{
closed = 1;
nodes = (
"1319 1802 LINE",
"1543 1802 LINE",
"1273 1364 LINE",
"1143 1364 LINE"
);
}
);
vertWidth = 2048;
width = 2048;
}
);
unicode = 03CC;
},
{
color = 4;
glyphname = omegatonos;
lastChange = "2022-04-07 18:21:41 +0000";
layers = (
{
layerId = "4E782664-D0D5-4FED-AFC2-B9212141A2ED";
paths = (
{
closed = 1;
nodes = (
"1581 1190 LINE",
"1734 1027 OFFCURVE",
"1811 831 OFFCURVE",
"1811 602 CURVE SMOOTH",
"1811 417 OFFCURVE",
"1767 261 OFFCURVE",
"1680 132 CURVE SMOOTH",
"1581 -13 OFFCURVE",
"1456 -86 OFFCURVE",
"1304 -86 CURVE SMOOTH",
"1137 -86 OFFCURVE",
"1023 10 OFFCURVE",
"961 201 CURVE",
"852 10 OFFCURVE",
"721 -86 OFFCURVE",
"566 -86 CURVE SMOOTH",
"448 -86 OFFCURVE",
"355 -36 OFFCURVE",
"288 65 CURVE SMOOTH",
"235 144 OFFCURVE",
"209 245 OFFCURVE",
"209 367 CURVE SMOOTH",
"209 574 OFFCURVE",
"279 765 OFFCURVE",
"420 942 CURVE SMOOTH",
"484 1023 OFFCURVE",
"571 1106 OFFCURVE",
"680 1192 CURVE",
"795 1065 LINE",
"528 864 OFFCURVE",
"395 634 OFFCURVE",
"395 373 CURVE SMOOTH",
"395 304 OFFCURVE",
"406 246 OFFCURVE",
"427 199 CURVE SMOOTH",
"460 125 OFFCURVE",
"510 88 OFFCURVE",
"578 88 CURVE SMOOTH",
"711 88 OFFCURVE",
"827 190 OFFCURVE",
"926 393 CURVE",
"924 424 OFFCURVE",
"923 451 OFFCURVE",
"923 474 CURVE SMOOTH",
"923 631 OFFCURVE",
"953 749 OFFCURVE",
"1012 828 CURVE SMOOTH",
"1035 859 OFFCURVE",
"1058 874 OFFCURVE",
"1082 874 CURVE SMOOTH",
"1129 874 OFFCURVE",
"1153 819 OFFCURVE",
"1153 708 CURVE SMOOTH",
"1153 599 OFFCURVE",
"1122 488 OFFCURVE",
"1061 375 CURVE",
"1095 184 OFFCURVE",
"1175 88 OFFCURVE",
"1302 88 CURVE SMOOTH",
"1385 88 OFFCURVE",
"1458 131 OFFCURVE",
"1519 218 CURVE SMOOTH",
"1590 316 OFFCURVE",
"1625 445 OFFCURVE",
"1625 606 CURVE SMOOTH",
"1625 744 OFFCURVE",
"1597 862 OFFCURVE",
"1541 961 CURVE SMOOTH",
"1518 1001 OFFCURVE",
"1487 1043 OFFCURVE",
"1448 1087 CURVE"
);
},
{
closed = 1;
nodes = (
"1289 1802 LINE",
"1513 1802 LINE",
"1243 1364 LINE",
"1113 1364 LINE"
);
}
);
vertWidth = 2048;
width = 2048;
}
);
unicode = 03CE;
},
{
color = 4;
glyphname = alphatonos;
lastChange = "2022-04-07 18:21:41 +0000";
layers = (
{
layerId = "4E782664-D0D5-4FED-AFC2-B9212141A2ED";
paths = (
{
closed = 1;
nodes = (
"1732 174 LINE",
"1659 -2 OFFCURVE",
"1557 -90 OFFCURVE",
"1427 -90 CURVE SMOOTH",
"1345 -90 OFFCURVE",
"1283 -56 OFFCURVE",
"1240 11 CURVE SMOOTH",
"1207 63 OFFCURVE",
"1182 141 OFFCURVE",
"1165 244 CURVE",
"1085 147 OFFCURVE",
"1010 74 OFFCURVE",
"939 23 CURVE SMOOTH",
"834 -52 OFFCURVE",
"726 -90 OFFCURVE",
"614 -90 CURVE SMOOTH",
"501 -90 OFFCURVE",
"415 -49 OFFCURVE",
"354 33 CURVE SMOOTH",
"302 103 OFFCURVE",
"276 193 OFFCURVE",
"276 302 CURVE SMOOTH",
"276 513 OFFCURVE",
"352 714 OFFCURVE",
"503 906 CURVE SMOOTH",
"654 1098 OFFCURVE",
"815 1194 OFFCURVE",
"987 1194 CURVE SMOOTH",
"1100 1194 OFFCURVE",
"1180 1142 OFFCURVE",
"1227 1037 CURVE SMOOTH",
"1263 956 OFFCURVE",
"1283 830 OFFCURVE",
"1288 659 CURVE",
"1385 809 OFFCURVE",
"1469 975 OFFCURVE",
"1538 1157 CURVE",
"1734 1157 LINE",
"1613 874 OFFCURVE",
"1472 626 OFFCURVE",
"1310 412 CURVE",
"1320 296 OFFCURVE",
"1334 213 OFFCURVE",
"1353 162 CURVE SMOOTH",
"1374 107 OFFCURVE",
"1403 80 OFFCURVE",
"1440 80 CURVE SMOOTH",
"1510 80 OFFCURVE",
"1568 152 OFFCURVE",
"1613 295 CURVE"
);
},
{
closed = 1;
nodes = (
"1134 600 OFFCURVE",
"1124 738 OFFCURVE",
"1104 865 CURVE SMOOTH",
"1100 891 OFFCURVE",
"1092 915 OFFCURVE",
"1081 938 CURVE SMOOTH",
"1052 995 OFFCURVE",
"1008 1024 OFFCURVE",
"948 1024 CURVE SMOOTH",
"869 1024 OFFCURVE",
"786 976 OFFCURVE",
"697 879 CURVE SMOOTH",
"606 781 OFFCURVE",
"541 666 OFFCURVE",
"501 535 CURVE SMOOTH",
"480 464 OFFCURVE",
"469 396 OFFCURVE",
"469 330 CURVE SMOOTH",
"469 261 OFFCURVE",
"481 206 OFFCURVE",
"504 163 CURVE SMOOTH",
"535 108 OFFCURVE",
"580 80 OFFCURVE",
"641 80 CURVE SMOOTH",
"728 80 OFFCURVE",
"818 120 OFFCURVE",
"913 199 CURVE SMOOTH",
"962 240 OFFCURVE",
"1011 293 OFFCURVE",
"1062 356 CURVE SMOOTH",
"1110 415 OFFCURVE",
"1134 447 OFFCURVE",
"1134 452 CURVE SMOOTH"
);
},
{
closed = 1;
nodes = (
"1219 1802 LINE",
"1443 1802 LINE",
"1173 1364 LINE",
"1043 1364 LINE"
);
}
);
vertWidth = 2048;
width = 2048;
}
);
unicode = 03AC;
},
{
color = 4;
glyphname = epsilontonos;
lastChange = "2022-04-07 18:21:41 +0000";
layers = (
{
layerId = "4E782664-D0D5-4FED-AFC2-B9212141A2ED";
paths = (
{
closed = 1;
nodes = (
"1520 141 LINE",
"1335 -13 OFFCURVE",
"1132 -90 OFFCURVE",
"912 -90 CURVE SMOOTH",
"793 -90 OFFCURVE",
"695 -68 OFFCURVE",
"620 -23 CURVE SMOOTH",
"514 40 OFFCURVE",
"461 135 OFFCURVE",
"461 264 CURVE SMOOTH",
"461 421 OFFCURVE",
"553 539 OFFCURVE",
"737 616 CURVE",
"639 686 OFFCURVE",
"590 770 OFFCURVE",
"590 867 CURVE SMOOTH",
"590 968 OFFCURVE",
"635 1049 OFFCURVE",
"725 1111 CURVE SMOOTH",
"805 1166 OFFCURVE",
"905 1194 OFFCURVE",
"1026 1194 CURVE SMOOTH",
"1210 1194 OFFCURVE",
"1390 1137 OFFCURVE",
"1565 1022 CURVE",
"1465 891 LINE",
"1324 989 OFFCURVE",
"1173 1038 OFFCURVE",
"1012 1038 CURVE SMOOTH",
"952 1038 OFFCURVE",
"902 1027 OFFCURVE",
"862 1005 CURVE SMOOTH",
"803 972 OFFCURVE",
"774 923 OFFCURVE",
"774 857 CURVE SMOOTH",
"774 777 OFFCURVE",
"815 713 OFFCURVE",
"897 666 CURVE",
"957 683 OFFCURVE",
"1013 691 OFFCURVE",
"1065 691 CURVE SMOOTH",
"1138 691 OFFCURVE",
"1198 678 OFFCURVE",
"1244 651 CURVE SMOOTH",
"1277 632 OFFCURVE",
"1294 610 OFFCURVE",
"1294 586 CURVE SMOOTH",
"1294 563 OFFCURVE",
"1278 542 OFFCURVE",
"1245 524 CURVE SMOOTH",
"1208 504 OFFCURVE",
"1160 494 OFFCURVE",
"1102 494 CURVE SMOOTH",
"1037 494 OFFCURVE",
"967 508 OFFCURVE",
"893 537 CURVE",
"839 522 OFFCURVE",
"795 503 OFFCURVE",
"760 479 CURVE SMOOTH",
"686 428 OFFCURVE",
"649 362 OFFCURVE",
"649 281 CURVE SMOOTH",
"649 202 OFFCURVE",
"681 143 OFFCURVE",
"744 105 CURVE SMOOTH",
"785 80 OFFCURVE",
"837 68 OFFCURVE",
"899 68 CURVE SMOOTH",
"1090 68 OFFCURVE",
"1261 138 OFFCURVE",
"1413 279 CURVE"
);
},
{
closed = 1;
nodes = (
"1259 1802 LINE",
"1483 1802 LINE",
"1213 1364 LINE",
"1083 1364 LINE"
);
}
);
vertWidth = 2048;
width = 2048;
}
);
unicode = 03AD;
},
{
color = 4;
glyphname = etatonos;
lastChange = "2022-04-07 18:21:41 +0000";
layers = (
{
layerId = "4E782664-D0D5-4FED-AFC2-B9212141A2ED";
paths = (
{
closed = 1;
nodes = (
"484 -51 LINE",
"575 210 OFFCURVE",
"652 440 OFFCURVE",
"715 640 CURVE SMOOTH",
"753 761 OFFCURVE",
"772 845 OFFCURVE",
"772 890 CURVE SMOOTH",
"772 981 OFFCURVE",
"736 1026 OFFCURVE",
"665 1026 CURVE SMOOTH",
"582 1026 OFFCURVE",
"501 949 OFFCURVE",
"422 795 CURVE",
"279 885 LINE",
"340 979 OFFCURVE",
"395 1049 OFFCURVE",
"446 1094 CURVE SMOOTH",
"521 1161 OFFCURVE",
"601 1194 OFFCURVE",
"686 1194 CURVE SMOOTH",
"822 1194 OFFCURVE",
"897 1114 OFFCURVE",
"912 955 CURVE",
"1030 1114 OFFCURVE",
"1172 1194 OFFCURVE",
"1338 1194 CURVE SMOOTH",
"1443 1194 OFFCURVE",
"1519 1158 OFFCURVE",
"1567 1087 CURVE SMOOTH",
"1602 1036 OFFCURVE",
"1619 969 OFFCURVE",
"1619 886 CURVE SMOOTH",
"1619 833 OFFCURVE",
"1610 764 OFFCURVE",
"1591 679 CURVE SMOOTH",
"1520 356 OFFCURVE",
"1450 49 OFFCURVE",
"1379 -244 CURVE",
"1178 -244 LINE",
"1242 -17 OFFCURVE",
"1320 295 OFFCURVE",
"1413 693 CURVE SMOOTH",
"1427 753 OFFCURVE",
"1434 803 OFFCURVE",
"1434 843 CURVE SMOOTH",
"1434 965 OFFCURVE",
"1386 1026 OFFCURVE",
"1289 1026 CURVE SMOOTH",
"1216 1026 OFFCURVE",
"1144 996 OFFCURVE",
"1075 936 CURVE SMOOTH",
"1010 880 OFFCURVE",
"960 803 OFFCURVE",
"925 706 CURVE SMOOTH",
"868 545 OFFCURVE",
"796 313 OFFCURVE",
"702 13 CURVE SMOOTH",
"682 -51 LINE"
);
},
{
closed = 1;
nodes = (
"1319 1802 LINE",
"1543 1802 LINE",
"1273 1364 LINE",
"1143 1364 LINE"
);
}
);
vertWidth = 2048;
width = 2048;
}
);
unicode = 03AE;
},
{
glyphname = fraction;
lastChange = "2022-03-08 23:20:22 +0000";
layers = (
{
background = {
paths = (
{
closed = 1;
nodes = (
"850 1729 LINE",
"944 1686 LINE",
"176 -172 LINE",
"82 -129 LINE"
);
}
);
};
layerId = "4E782664-D0D5-4FED-AFC2-B9212141A2ED";
paths = (
{
closed = 1;
nodes = (
"850 1729 LINE",
"944 1686 LINE",
"176 -172 LINE",
"82 -129 LINE"
);
}
);
vertWidth = 2048;
width = 1024;
}
);
unicode = 2044;
},
{
glyphname = foursuperior;
lastChange = "2022-03-08 04:05:42 +0000";
layers = (
{
background = {
paths = (
{
closed = 1;
nodes = (
"326 922 LINE",
"326 1608 LINE",
"277 1581 OFFCURVE",
"225 1561 OFFCURVE",
"170 1548 CURVE",
"150 1661 LINE",
"215 1677 OFFCURVE",
"282 1707 OFFCURVE",
"351 1751 CURVE",
"457 1751 LINE",
"457 922 LINE"
);
}
);
};
layerId = "4E782664-D0D5-4FED-AFC2-B9212141A2ED";
paths = (
{
closed = 1;
nodes = (
"535 1607 LINE",
"707 1607 LINE",
"707 1023 LINE",
"889 1023 LINE",
"889 902 LINE",
"707 902 LINE",
"707 725 LINE",
"570 725 LINE",
"570 902 LINE",
"104 902 LINE",
"104 1029 LINE"
);
},
{
closed = 1;
nodes = (
"570 1023 LINE",
"570 1297 LINE SMOOTH",
"570 1358 OFFCURVE",
"571 1412 OFFCURVE",
"574 1461 CURVE",
"568 1461 LINE",
"525 1395 OFFCURVE",
"487 1344 OFFCURVE",
"459 1305 CURVE SMOOTH",
"256 1023 LINE"
);
}
);
vertWidth = 2048;
width = 983;
}
);
unicode = 2074;
},
{
glyphname = quotesinglbase;
lastChange = "2022-03-08 04:05:42 +0000";
layers = (
{
background = {
paths = (
{
closed = 1;
nodes = (
"144 326 LINE",
"430 326 LINE",
"430 166 LINE SMOOTH",
"430 -1 OFFCURVE",
"372 -137 OFFCURVE",
"256 -243 CURVE",
"119 -243 LINE",
"207 -156 OFFCURVE",
"259 -61 OFFCURVE",
"275 43 CURVE",
"144 43 LINE"
);
}
);
};
layerId = "4E782664-D0D5-4FED-AFC2-B9212141A2ED";
paths = (
{
closed = 1;
nodes = (
"144 326 LINE",
"430 326 LINE",
"430 166 LINE SMOOTH",
"430 -1 OFFCURVE",
"372 -137 OFFCURVE",
"256 -243 CURVE",
"119 -243 LINE",
"207 -156 OFFCURVE",
"259 -61 OFFCURVE",
"275 43 CURVE",
"144 43 LINE"
);
}
);
vertWidth = 2048;
width = 635;
}
);
unicode = 201A;
},
{
glyphname = quotedblbase;
lastChange = "2022-03-08 04:05:42 +0000";
layers = (
{
background = {
paths = (
{
closed = 1;
nodes = (
"154 328 LINE",
"428 328 LINE",
"428 170 LINE SMOOTH",
"428 2 OFFCURVE",
"372 -142 OFFCURVE",
"260 -262 CURVE",
"138 -262 LINE",
"221 -163 OFFCURVE",
"270 -58 OFFCURVE",
"285 54 CURVE",
"154 54 LINE"
);
},
{
closed = 1;
nodes = (
"531 328 LINE",
"803 328 LINE",
"803 170 LINE SMOOTH",
"803 0 OFFCURVE",
"747 -144 OFFCURVE",
"635 -262 CURVE",
"515 -262 LINE",
"598 -164 OFFCURVE",
"647 -59 OFFCURVE",
"660 54 CURVE",
"531 54 LINE"
);
}
);
};
layerId = "4E782664-D0D5-4FED-AFC2-B9212141A2ED";
paths = (
{
closed = 1;
nodes = (
"532 326 LINE",
"818 326 LINE",
"818 166 LINE SMOOTH",
"818 -1 OFFCURVE",
"760 -137 OFFCURVE",
"644 -243 CURVE",
"507 -243 LINE",
"595 -156 OFFCURVE",
"647 -61 OFFCURVE",
"663 43 CURVE",
"532 43 LINE"
);
},
{
closed = 1;
nodes = (
"144 326 LINE",
"430 326 LINE",
"430 166 LINE SMOOTH",
"430 -1 OFFCURVE",
"372 -137 OFFCURVE",
"256 -243 CURVE",
"119 -243 LINE",
"207 -156 OFFCURVE",
"259 -61 OFFCURVE",
"275 43 CURVE",
"144 43 LINE"
);
}
);
vertWidth = 2048;
width = 1023;
}
);
unicode = 201E;
},
{
glyphname = guilsinglleft;
lastChange = "2022-03-08 04:05:42 +0000";
layers = (
{
layerId = "4E782664-D0D5-4FED-AFC2-B9212141A2ED";
paths = (
{
closed = 1;
nodes = (
"434 1014 LINE",
"567 1014 LINE",
"264 551 LINE",
"567 88 LINE",
"434 88 LINE",
"131 551 LINE"
);
}
);
vertWidth = 2048;
width = 643;
}
);
unicode = 2039;
},
{
glyphname = guilsinglright;
lastChange = "2022-03-08 04:05:42 +0000";
layers = (
{
layerId = "4E782664-D0D5-4FED-AFC2-B9212141A2ED";
paths = (
{
closed = 1;
nodes = (
"209 88 LINE",
"76 88 LINE",
"379 551 LINE",
"76 1014 LINE",
"209 1014 LINE",
"512 551 LINE"
);
}
);
vertWidth = 2048;
width = 643;
}
);
unicode = 203A;
},
{
color = 3;
glyphname = florin;
lastChange = "2022-04-07 18:21:41 +0000";
layers = (
{
background = {
paths = (
{
closed = 1;
nodes = (
"282 -143 OFFCURVE",
"175 -44 OFFCURVE",
"120 98 CURVE",
"269 154 LINE",
"306 52 OFFCURVE",
"367 2 OFFCURVE",
"455 2 CURVE SMOOTH",
"565 2 OFFCURVE",
"618 114 OFFCURVE",
"621 358 CURVE SMOOTH",
"627 960 LINE",
"367 960 LINE",
"367 1108 LINE",
"621 1108 LINE",
"617 1416 OFFCURVE",
"680 1700 OFFCURVE",
"1008 1700 CURVE SMOOTH",
"1167 1700 OFFCURVE",
"1279 1619 OFFCURVE",
"1344 1458 CURVE",
"1195 1403 LINE",
"1155 1505 OFFCURVE",
"1090 1555 OFFCURVE",
"999 1555 CURVE SMOOTH",
"807 1555 OFFCURVE",
"792 1332 OFFCURVE",
"799 1108 CURVE",
"1109 1108 LINE",
"1109 960 LINE",
"807 960 LINE",
"803 435 LINE SMOOTH",
"800 39 OFFCURVE",
"687 -143 OFFCURVE",
"445 -143 CURVE SMOOTH"
);
}
);
};
layerId = "4E782664-D0D5-4FED-AFC2-B9212141A2ED";
paths = (
{
closed = 1;
nodes = (
"282 -143 OFFCURVE",
"175 -44 OFFCURVE",
"120 98 CURVE",
"269 154 LINE",
"306 52 OFFCURVE",
"367 2 OFFCURVE",
"455 2 CURVE SMOOTH",
"565 2 OFFCURVE",
"618 114 OFFCURVE",
"621 358 CURVE SMOOTH",
"627 960 LINE",
"367 960 LINE",
"367 1108 LINE",
"621 1108 LINE",
"617 1416 OFFCURVE",
"680 1700 OFFCURVE",
"1008 1700 CURVE SMOOTH",
"1167 1700 OFFCURVE",
"1279 1619 OFFCURVE",
"1344 1458 CURVE",
"1195 1403 LINE",
"1155 1505 OFFCURVE",
"1090 1555 OFFCURVE",
"999 1555 CURVE SMOOTH",
"807 1555 OFFCURVE",
"792 1332 OFFCURVE",
"799 1108 CURVE",
"1109 1108 LINE",
"1109 960 LINE",
"807 960 LINE",
"803 435 LINE SMOOTH",
"800 39 OFFCURVE",
"687 -143 OFFCURVE",
"445 -143 CURVE SMOOTH"
);
}
);
vertWidth = 2048;
width = 1454;
}
);
unicode = 0192;
},
{
color = 3;
glyphname = trademark;
lastChange = "2022-04-07 18:21:41 +0000";
layers = (
{
background = {
paths = (
{
closed = 1;
nodes = (
"625 1321 LINE",
"625 1350 LINE SMOOTH",
"625 1459 OFFCURVE",
"570 1513 OFFCURVE",
"459 1513 CURVE SMOOTH",
"375 1513 OFFCURVE",
"296 1483 OFFCURVE",
"221 1423 CURVE",
"160 1520 LINE",
"251 1591 OFFCURVE",
"353 1626 OFFCURVE",
"465 1626 CURVE SMOOTH",
"569 1626 OFFCURVE",
"647 1596 OFFCURVE",
"700 1537 CURVE SMOOTH",
"743 1490 OFFCURVE",
"764 1427 OFFCURVE",
"764 1350 CURVE SMOOTH",
"764 1075 LINE SMOOTH",
"764 980 OFFCURVE",
"779 903 OFFCURVE",
"809 844 CURVE",
"676 844 LINE",
"661 875 OFFCURVE",
"650 918 OFFCURVE",
"643 971 CURVE",
"572 874 OFFCURVE",
"485 825 OFFCURVE",
"384 825 CURVE SMOOTH",
"319 825 OFFCURVE",
"263 843 OFFCURVE",
"217 878 CURVE SMOOTH",
"160 923 OFFCURVE",
"131 983 OFFCURVE",
"131 1059 CURVE SMOOTH",
"131 1152 OFFCURVE",
"175 1221 OFFCURVE",
"263 1267 CURVE SMOOTH",
"332 1303 OFFCURVE",
"428 1321 OFFCURVE",
"553 1321 CURVE SMOOTH"
);
},
{
closed = 1;
nodes = (
"625 1225 LINE",
"555 1223 LINE SMOOTH",
"466 1220 OFFCURVE",
"398 1207 OFFCURVE",
"349 1183 CURVE SMOOTH",
"300 1160 OFFCURVE",
"276 1120 OFFCURVE",
"276 1064 CURVE SMOOTH",
"276 1033 OFFCURVE",
"285 1006 OFFCURVE",
"302 985 CURVE SMOOTH",
"327 954 OFFCURVE",
"365 938 OFFCURVE",
"415 938 CURVE SMOOTH",
"495 938 OFFCURVE",
"556 974 OFFCURVE",
"597 1045 CURVE SMOOTH",
"616 1076 OFFCURVE",
"625 1110 OFFCURVE",
"625 1145 CURVE SMOOTH"
);
}
);
};
layerId = "4E782664-D0D5-4FED-AFC2-B9212141A2ED";
paths = (
{
closed = 1;
nodes = (
"26 1608 LINE",
"550 1608 LINE",
"550 1470 LINE",
"352 1470 LINE",
"352 844 LINE",
"224 844 LINE",
"224 1470 LINE",
"26 1470 LINE"
);
},
{
closed = 1;
nodes = (
"599 1608 LINE",
"765 1608 LINE",
"863 1242 LINE SMOOTH",
"871 1215 OFFCURVE",
"886 1136 OFFCURVE",
"901 1069 CURVE",
"906 1069 LINE",
"918 1136 OFFCURVE",
"934 1210 OFFCURVE",
"944 1242 CURVE SMOOTH",
"1052 1608 LINE",
"1198 1608 LINE",
"1198 845 LINE",
"1080 845 LINE",
"1086 1159 LINE SMOOTH",
"1088 1243 OFFCURVE",
"1095 1348 OFFCURVE",
"1110 1478 CURVE",
"1105 1478 LINE",
"1095 1401 OFFCURVE",
"1064 1341 OFFCURVE",
"1051 1293 CURVE SMOOTH",
"969 978 LINE",
"838 978 LINE",
"756 1293 LINE SMOOTH",
"742 1346 OFFCURVE",
"720 1406 OFFCURVE",
"703 1478 CURVE",
"698 1478 LINE",
"713 1343 OFFCURVE",
"721 1236 OFFCURVE",
"722 1159 CURVE SMOOTH",
"727 845 LINE",
"599 845 LINE"
);
}
);
vertWidth = 2048;
width = 1224;
}
);
unicode = 2122;
},
{
color = 3;
glyphname = greaterequal;
lastChange = "2023-09-05 22:16:37 +0000";
layers = (
{
background = {
paths = (
{
closed = 1;
nodes = (
"447 1393 LINE",
"578 1393 LINE",
"578 844 LINE",
"942 844 LINE",
"942 713 LINE",
"578 713 LINE",
"578 164 LINE",
"447 164 LINE",
"447 713 LINE",
"82 713 LINE",
"82 844 LINE",
"447 844 LINE"
);
}
);
};
layerId = "4E782664-D0D5-4FED-AFC2-B9212141A2ED";
paths = (
{
closed = 1;
nodes = (
"184 411 LINE",
"184 554 LINE",
"1217 928 LINE",
"184 1303 LINE",
"184 1446 LINE",
"1566 928 LINE"
);
},
{
closed = 1;
nodes = (
"184 233 LINE",
"184 364 LINE",
"1536 364 LINE",
"1536 233 LINE"
);
}
);
vertWidth = 2048;
width = 1720;
}
);
unicode = 2265;
},
{
color = 3;
glyphname = lessequal;
lastChange = "2023-09-05 22:16:35 +0000";
layers = (
{
background = {
paths = (
{
closed = 1;
nodes = (
"1536 1446 LINE",
"1536 1303 LINE",
"433 778 LINE",
"1536 254 LINE",
"1536 111 LINE",
"154 778 LINE"
);
},
{
closed = 1;
nodes = (
"82 364 LINE",
"942 364 LINE",
"942 233 LINE",
"82 233 LINE"
);
}
);
};
layerId = "4E782664-D0D5-4FED-AFC2-B9212141A2ED";
paths = (
{
closed = 1;
nodes = (
"1536 1446 LINE",
"1536 1303 LINE",
"503 928 LINE",
"1536 554 LINE",
"1536 411 LINE",
"154 928 LINE"
);
},
{
closed = 1;
nodes = (
"184 364 LINE",
"1536 364 LINE",
"1536 233 LINE",
"184 233 LINE"
);
}
);
vertWidth = 2048;
width = 1720;
}
);
unicode = 2264;
},
{
color = 4;
glyphname = product;
lastChange = "2022-04-07 18:21:41 +0000";
layers = (
{
layerId = "4E782664-D0D5-4FED-AFC2-B9212141A2ED";
paths = (
{
closed = 1;
nodes = (
"1554 1393 LINE",
"1554 1262 LINE",
"1306 1262 LINE",
"1306 164 LINE",
"1179 164 LINE",
"1179 1262 LINE",
"870 1262 LINE",
"870 164 LINE",
"743 164 LINE",
"743 1262 LINE",
"494 1262 LINE",
"494 1393 LINE"
);
}
);
vertWidth = 2048;
width = 2048;
}
);
unicode = 220F;
},
{
glyphname = micro;
lastChange = "2022-03-10 18:31:55 +0000";
layers = (
{
background = {
paths = (
{
closed = 1;
nodes = (
"197 532 LINE",
"383 532 LINE",
"383 -245 LINE",
"197 -245 LINE"
);
},
{
closed = 1;
nodes = (
"197 1157 LINE",
"383 1157 LINE",
"383 418 LINE SMOOTH",
"383 196 OFFCURVE",
"470 85 OFFCURVE",
"643 85 CURVE SMOOTH",
"712 85 OFFCURVE",
"779 106 OFFCURVE",
"845 149 CURVE SMOOTH",
"932 206 OFFCURVE",
"998 287 OFFCURVE",
"1045 393 CURVE",
"1045 1157 LINE",
"1235 1157 LINE",
"1235 -51 LINE",
"1055 -51 LINE",
"1055 170 LINE",
"955 32 OFFCURVE",
"795 -74 OFFCURVE",
"643 -74 CURVE SMOOTH",
"517 -74 OFFCURVE",
"402 -14 OFFCURVE",
"365 80 CURVE SMOOTH",
"323 189 OFFCURVE",
"197 258 OFFCURVE",
"197 393 CURVE SMOOTH"
);
}
);
};
layerId = "4E782664-D0D5-4FED-AFC2-B9212141A2ED";
paths = (
{
closed = 1;
nodes = (
"197 1157 LINE",
"383 1157 LINE",
"383 418 LINE SMOOTH",
"383 196 OFFCURVE",
"470 85 OFFCURVE",
"643 85 CURVE SMOOTH",
"712 85 OFFCURVE",
"779 106 OFFCURVE",
"845 149 CURVE SMOOTH",
"932 206 OFFCURVE",
"998 287 OFFCURVE",
"1045 393 CURVE",
"1045 1157 LINE",
"1235 1157 LINE",
"1235 -51 LINE",
"1055 -51 LINE",
"1055 170 LINE",
"955 32 OFFCURVE",
"795 -74 OFFCURVE",
"643 -74 CURVE SMOOTH",
"533 -74 OFFCURVE",
"432 -28 OFFCURVE",
"383 45 CURVE",
"383 -245 LINE",
"197 -245 LINE"
);
}
);
vertWidth = 2048;
width = 1434;
}
);
unicode = 00B5;
},
{
color = 3;
glyphname = lozenge;
lastChange = "2022-04-07 18:21:41 +0000";
layers = (
{
background = {
paths = (
{
closed = 1;
nodes = (
"512 1452 LINE",
"938 778 LINE",
"512 104 LINE",
"86 778 LINE"
);
},
{
closed = 1;
nodes = (
"512 1224 LINE",
"248 778 LINE",
"512 332 LINE",
"776 778 LINE"
);
}
);
};
layerId = "4E782664-D0D5-4FED-AFC2-B9212141A2ED";
paths = (
{
closed = 1;
nodes = (
"717 1577 LINE",
"1280 778 LINE",
"717 -20 LINE",
"154 778 LINE"
);
},
{
closed = 1;
nodes = (
"717 1339 LINE",
"337 778 LINE",
"717 218 LINE",
"1097 778 LINE"
);
}
);
vertWidth = 2048;
width = 1434;
}
);
unicode = 25CA;
},
{
color = 4;
glyphname = tonos;
lastChange = "2022-04-07 18:21:41 +0000";
layers = (
{
layerId = "4E782664-D0D5-4FED-AFC2-B9212141A2ED";
paths = (
{
closed = 1;
nodes = (
"569 1802 LINE",
"793 1802 LINE",
"523 1364 LINE",
"393 1364 LINE"
);
}
);
vertWidth = 2048;
width = 1024;
}
);
unicode = 0384;
},
{
color = 4;
glyphname = dieresistonos;
lastChange = "2022-04-07 18:21:41 +0000";
layers = (
{
layerId = "4E782664-D0D5-4FED-AFC2-B9212141A2ED";
paths = (
{
closed = 1;
nodes = (
"527 1802 LINE",
"751 1802 LINE",
"531 1340 LINE",
"401 1340 LINE"
);
},
{
closed = 1;
nodes = (
"117 1561 LINE",
"338 1561 LINE",
"338 1340 LINE",
"117 1340 LINE"
);
},
{
closed = 1;
nodes = (
"686 1561 LINE",
"907 1561 LINE",
"907 1340 LINE",
"686 1340 LINE"
);
}
);
vertWidth = 2048;
width = 1024;
}
);
unicode = 0385;
},
{
glyphname = circumflex;
lastChange = "2022-03-08 04:05:42 +0000";
layers = (
{
layerId = "4E782664-D0D5-4FED-AFC2-B9212141A2ED";
paths = (
{
closed = 1;
nodes = (
"412 1608 LINE",
"614 1608 LINE",
"878 1340 LINE",
"711 1340 LINE",
"512 1512 LINE",
"313 1340 LINE",
"147 1340 LINE"
);
}
);
vertWidth = 2048;
width = 1024;
}
);
unicode = 02C6;
},
{
glyphname = ring;
lastChange = "2022-03-08 04:05:42 +0000";
layers = (
{
layerId = "4E782664-D0D5-4FED-AFC2-B9212141A2ED";
paths = (
{
closed = 1;
nodes = (
"564 1700 OFFCURVE",
"610 1681 OFFCURVE",
"650 1644 CURVE SMOOTH",
"691 1605 OFFCURVE",
"711 1558 OFFCURVE",
"711 1501 CURVE SMOOTH",
"711 1468 OFFCURVE",
"703 1437 OFFCURVE",
"687 1408 CURVE SMOOTH",
"649 1338 OFFCURVE",
"590 1303 OFFCURVE",
"511 1303 CURVE SMOOTH",
"456 1303 OFFCURVE",
"409 1323 OFFCURVE",
"369 1364 CURVE SMOOTH",
"332 1403 OFFCURVE",
"313 1449 OFFCURVE",
"313 1503 CURVE SMOOTH",
"313 1568 OFFCURVE",
"339 1620 OFFCURVE",
"392 1660 CURVE SMOOTH",
"427 1687 OFFCURVE",
"468 1700 OFFCURVE",
"513 1700 CURVE SMOOTH"
);
},
{
closed = 1;
nodes = (
"492 1610 OFFCURVE",
"473 1604 OFFCURVE",
"454 1593 CURVE SMOOTH",
"420 1572 OFFCURVE",
"403 1541 OFFCURVE",
"403 1501 CURVE SMOOTH",
"403 1474 OFFCURVE",
"412 1451 OFFCURVE",
"430 1430 CURVE SMOOTH",
"452 1405 OFFCURVE",
"479 1393 OFFCURVE",
"512 1393 CURVE SMOOTH",
"529 1393 OFFCURVE",
"546 1397 OFFCURVE",
"562 1405 CURVE SMOOTH",
"601 1426 OFFCURVE",
"621 1458 OFFCURVE",
"621 1501 CURVE SMOOTH",
"621 1534 OFFCURVE",
"608 1562 OFFCURVE",
"582 1584 CURVE SMOOTH",
"562 1601 OFFCURVE",
"539 1610 OFFCURVE",
"512 1610 CURVE SMOOTH"
);
}
